<svg xmlns="http://www.w3.org/2000/svg" xmlns:svg="http://www.w3.org/2000/svg" xmlns:xlink="http://www.w3.org/1999/xlink" id="svg2" width="353.63" height="353.63" version="1.0"><defs id="defs4"><linearGradient id="linearGradient8399"><stop id="stop8401" offset="0" stop-color="#5a0000" stop-opacity="1"/><stop id="stop8403" offset="1" stop-color="#5a0000" stop-opacity="0"/></linearGradient><linearGradient id="linearGradient8391"><stop id="stop8393" offset="0" stop-color="#5a0000" stop-opacity="1"/><stop id="stop8395" offset="1" stop-color="#5a0000" stop-opacity="0"/></linearGradient><linearGradient id="linearGradient8383"><stop id="stop8385" offset="0" stop-color="#5a0000" stop-opacity="1"/><stop id="stop8387" offset="1" stop-color="#5a0000" stop-opacity="0"/></linearGradient><linearGradient id="linearGradient8375"><stop id="stop8377" offset="0" stop-color="#5a0000" stop-opacity="1"/><stop id="stop8379" offset="1" stop-color="#5a0000" stop-opacity="0"/></linearGradient><linearGradient id="linearGradient8367"><stop id="stop8369" offset="0" stop-color="#5a0000" stop-opacity="1"/><stop id="stop8371" offset="1" stop-color="#5a0000" stop-opacity="0"/></linearGradient><linearGradient id="linearGradient3693"><stop id="stop3695" offset="0" stop-color="#ffff82" stop-opacity="1"/><stop id="stop3697" offset="1" stop-color="#ffff82" stop-opacity="0"/></linearGradient><linearGradient id="linearGradient3645"><stop id="stop3649" offset="0" stop-color="#ffff23" stop-opacity=".498"/><stop id="stop3651" offset="1" stop-color="#ffff23" stop-opacity="0"/></linearGradient><linearGradient id="linearGradient3635"><stop id="stop3637" offset="0" stop-color="#ffff23" stop-opacity="1"/><stop id="stop3643" offset=".5" stop-color="#ffff23" stop-opacity=".498"/><stop id="stop3639" offset="1" stop-color="#ffff23" stop-opacity="0"/></linearGradient><linearGradient id="linearGradient3721" x1="212.179" x2="145.873" y1="114.928" y2="79.565" gradientUnits="userSpaceOnUse" xlink:href="#linearGradient3693"/><linearGradient id="linearGradient8373" x1="192.287" x2="179.026" y1="57.463" y2="48.622" gradientUnits="userSpaceOnUse" xlink:href="#linearGradient8367"/><linearGradient id="linearGradient8381" x1="190.077" x2="61.886" y1="154.712" y2="92.826" gradientUnits="userSpaceOnUse" xlink:href="#linearGradient8375"/><linearGradient id="linearGradient8389" x1="176.816" x2="75.147" y1="225.438" y2="172.394" gradientUnits="userSpaceOnUse" xlink:href="#linearGradient8383"/><linearGradient id="linearGradient8397" x1="176.816" x2="22.102" y1="274.063" y2="194.496" gradientUnits="userSpaceOnUse" xlink:href="#linearGradient8391"/><linearGradient id="linearGradient8405" x1="172.396" x2="-17.682" y1="296.165" y2="203.336" gradientUnits="userSpaceOnUse" xlink:href="#linearGradient8399"/><linearGradient id="linearGradient8407" x1="150.294" x2="8.841" y1="313.846" y2="225.438" gradientUnits="userSpaceOnUse" xlink:href="#linearGradient8399"/></defs><metadata id="metadata7"/><g id="layer1" display="inline"><g id="g3679" fill="#fff" display="inline"><path id="path3681" fill="#fff" fill-opacity="1" fill-rule="nonzero" stroke="#000" stroke-dasharray="none" stroke-linejoin="miter" stroke-miterlimit="4" stroke-opacity="1" stroke-width="8" d="M 198.918,55.253006 A 11.051,11.051 0 1 1 176.816,55.253006 A 11.051,11.051 0 1 1 198.918,55.253006 z" opacity="1" transform="translate(-11.051004,-8.8408007)"/><path id="path3683" fill="#fff" fill-opacity="1" fill-rule="evenodd" stroke="#000" stroke-dasharray="none" stroke-linecap="butt" stroke-linejoin="miter" stroke-miterlimit="4" stroke-opacity="1" stroke-width="8" d="M 181.2364,62.304005 C 181.2364,62.304005 187.76674,68.413948 212.1792,92.826405 C 234.2812,114.9284 234.2812,137.0304 234.2812,154.712 C 234.2812,167.9732 229.8608,181.2344 221.02,198.916 C 203.3384,198.91601 150.2936,198.91601 132.612,198.916 C 123.7712,181.2344 119.3508,167.9732 119.3508,152.712 C 119.3508,137.0304 117.73281,117.31108 139.4528,95.246805 C 165.9752,68.304005 172.3956,62.304005 172.3956,62.304005 L 181.2364,62.304005 z"/><path id="path3685" fill="#fff" fill-opacity="1" fill-rule="evenodd" stroke="#000" stroke-dasharray="none" stroke-linecap="butt" stroke-linejoin="miter" stroke-miterlimit="4" stroke-opacity="1" stroke-width="8" d="M 235.122,235.4384 C 213.02,235.4384 198.918,235.4384 176.816,235.4384 C 154.714,235.4384 141.4528,236.6996 119.3508,236.6996 C 137.0324,219.018 132.612,212.1772 132.612,198.916 C 150.2936,198.916 154.715,198.917 176.816,198.916 C 198.919,198.915 203.3384,198.916 221.02,198.916 C 221.02,212.1772 217.4404,217.7568 235.122,235.4384 z"/><path id="path3687" fill="#fff" fill-rule="evenodd" stroke="#000" stroke-dasharray="none" stroke-linecap="round" stroke-linejoin="miter" stroke-miterlimit="4" stroke-opacity="1" stroke-width="6.507" d="M 132.52635,198.814 C 220.26768,198.814 220.26768,198.814 220.26768,198.814"/><path id="path3689" fill="#fff" fill-rule="evenodd" stroke="#000" stroke-dasharray="none" stroke-linecap="round" stroke-linejoin="miter" stroke-miterlimit="4" stroke-opacity="1" stroke-width="8" d="M 139.98939,97.04459 C 176.89372,136.44754 176.89372,136.44754 176.89372,136.44754"/><rect id="rect3691" width="221.02" height="13.261" x="66.306" y="305.846" fill="#fff" fill-opacity="1" fill-rule="nonzero" stroke="#000" stroke-dasharray="none" stroke-linecap="butt" stroke-linejoin="miter" stroke-miterlimit="4" stroke-opacity="1" stroke-width="8" display="inline" opacity="1"/><rect id="rect3693" width="212.179" height="17.682" x="70.726" y="287.744" fill="#fff" fill-opacity="1" fill-rule="nonzero" stroke="#000" stroke-dasharray="none" stroke-linecap="butt" stroke-linejoin="round" stroke-miterlimit="4" stroke-opacity="1" stroke-width="8" display="inline" opacity="1"/><path id="path3695" fill="#fff" fill-opacity="1" fill-rule="evenodd" stroke="#000" stroke-dasharray="none" stroke-linecap="butt" stroke-linejoin="miter" stroke-miterlimit="4" stroke-opacity="1" stroke-width="8" d="M 274.0648,286.90359 C 185.6568,286.90359 176.816,286.90359 79.567195,286.90359 C 92.828395,273.64239 110.51,255.96079 106.0896,238.27919 C 159.1344,238.27919 119.3508,238.27919 176.816,238.27919 C 234.2812,238.27919 225.4404,238.27919 247.5424,238.27919 C 243.122,255.96079 260.8036,273.64239 274.0648,286.90359 z" display="inline"/><path id="path3697" fill="#fff" fill-rule="evenodd" stroke="#000" stroke-dasharray="none" stroke-linecap="round" stroke-linejoin="miter" stroke-miterlimit="4" stroke-opacity="1" stroke-width="7.253" d="M 104.39289,236.17719 C 249.7307,236.17719 249.7307,236.17719 249.7307,236.17719" display="inline"/></g></g><g id="layer2" display="inline"><g id="g3668"><path id="path7780" fill="url(#linearGradient8373)" fill-opacity="1" fill-rule="nonzero" stroke="#000" stroke-dasharray="none" stroke-linejoin="miter" stroke-miterlimit="4" stroke-opacity="1" stroke-width="8" d="M 198.918,55.253006 A 11.051,11.051 0 1 1 176.816,55.253006 A 11.051,11.051 0 1 1 198.918,55.253006 z" opacity="1" transform="translate(-11.051004,-8.8408007)"/><path id="path8299" fill="url(#linearGradient8381)" fill-opacity="1" fill-rule="evenodd" stroke="#000" stroke-dasharray="none" stroke-linecap="butt" stroke-linejoin="miter" stroke-miterlimit="4" stroke-opacity="1" stroke-width="8" d="M 181.2364,62.304005 C 181.2364,62.304005 187.76674,68.413948 212.1792,92.826405 C 234.2812,114.9284 234.2812,137.0304 234.2812,154.712 C 234.2812,167.9732 229.8608,181.2344 221.02,198.916 C 203.3384,198.91601 150.2936,198.91601 132.612,198.916 C 123.7712,181.2344 119.3508,167.9732 119.3508,152.712 C 119.3508,137.0304 117.73281,117.31108 139.4528,95.246805 C 165.9752,68.304005 172.3956,62.304005 172.3956,62.304005 L 181.2364,62.304005 z"/><path id="path8301" fill="url(#linearGradient8389)" fill-opacity="1" fill-rule="evenodd" stroke="#000" stroke-dasharray="none" stroke-linecap="butt" stroke-linejoin="miter" stroke-miterlimit="4" stroke-opacity="1" stroke-width="8" d="M 235.122,235.4384 C 213.02,235.4384 198.918,235.4384 176.816,235.4384 C 154.714,235.4384 141.4528,236.6996 119.3508,236.6996 C 137.0324,219.018 132.612,212.1772 132.612,198.916 C 150.2936,198.916 154.715,198.917 176.816,198.916 C 198.919,198.915 203.3384,198.916 221.02,198.916 C 221.02,212.1772 217.4404,217.7568 235.122,235.4384 z"/><path id="path8305" fill="none" fill-rule="evenodd" stroke="#000" stroke-dasharray="none" stroke-linecap="round" stroke-linejoin="miter" stroke-miterlimit="4" stroke-opacity="1" stroke-width="6.507" d="M 132.52635,198.814 C 220.26768,198.814 220.26768,198.814 220.26768,198.814"/><path id="path8309" fill="none" fill-rule="evenodd" stroke="#000" stroke-dasharray="none" stroke-linecap="round" stroke-linejoin="miter" stroke-miterlimit="4" stroke-opacity="1" stroke-width="8" d="M 139.98939,97.04459 C 176.89372,136.44754 176.89372,136.44754 176.89372,136.44754"/><rect id="rect3284" width="221.02" height="13.261" x="66.306" y="305.846" fill="url(#linearGradient8407)" fill-opacity="1" fill-rule="nonzero" stroke="#000" stroke-dasharray="none" stroke-linecap="butt" stroke-linejoin="miter" stroke-miterlimit="4" stroke-opacity="1" stroke-width="8" display="inline" opacity="1"/><rect id="rect3288" width="212.179" height="17.682" x="70.726" y="287.744" fill="url(#linearGradient8405)" fill-opacity="1" fill-rule="nonzero" stroke="#000" stroke-dasharray="none" stroke-linecap="butt" stroke-linejoin="round" stroke-miterlimit="4" stroke-opacity="1" stroke-width="8" display="inline" opacity="1"/><path id="path2481" fill="url(#linearGradient8397)" fill-opacity="1" fill-rule="evenodd" stroke="#000" stroke-dasharray="none" stroke-linecap="butt" stroke-linejoin="miter" stroke-miterlimit="4" stroke-opacity="1" stroke-width="8" d="M 274.0648,286.90359 C 185.6568,286.90359 176.816,286.90359 79.567195,286.90359 C 92.828395,273.64239 110.51,255.96079 106.0896,238.27919 C 159.1344,238.27919 119.3508,238.27919 176.816,238.27919 C 234.2812,238.27919 225.4404,238.27919 247.5424,238.27919 C 243.122,255.96079 260.8036,273.64239 274.0648,286.90359 z" display="inline"/><path id="path3253" fill="none" fill-rule="evenodd" stroke="#000" stroke-dasharray="none" stroke-linecap="round" stroke-linejoin="miter" stroke-miterlimit="4" stroke-opacity="1" stroke-width="7.253" d="M 104.39289,236.17719 C 249.7307,236.17719 249.7307,236.17719 249.7307,236.17719" display="inline"/></g></g></svg>