<svg xmlns="http://www.w3.org/2000/svg" xmlns:svg="http://www.w3.org/2000/svg" xmlns:xlink="http://www.w3.org/1999/xlink" id="svg2" width="353.63" height="353.63" version="1.0"><defs id="defs4"><linearGradient id="linearGradient3422"><stop id="stop3424" offset="0" stop-color="#5a0000" stop-opacity="1"/><stop id="stop3426" offset="1" stop-color="#000" stop-opacity="0"/></linearGradient><linearGradient id="linearGradient3397"><stop id="stop3399" offset="0" stop-color="#000" stop-opacity="1"/><stop id="stop3401" offset="1" stop-color="#000" stop-opacity="0"/></linearGradient><linearGradient id="linearGradient3357"><stop id="stop3359" offset="0" stop-color="#5a0000" stop-opacity="1"/><stop id="stop3361" offset="1" stop-color="#fff" stop-opacity="0"/></linearGradient><linearGradient id="linearGradient4013"><stop id="stop4015" offset="0" stop-color="#5a0000" stop-opacity="1"/><stop id="stop4017" offset="1" stop-color="#5a0000" stop-opacity="0"/></linearGradient><linearGradient id="linearGradient4005"><stop id="stop4007" offset="0" stop-color="#5a0000" stop-opacity="1"/><stop id="stop4009" offset="1" stop-color="#5a0000" stop-opacity="0"/></linearGradient><linearGradient id="linearGradient3997"><stop id="stop3999" offset="0" stop-color="#5a0000" stop-opacity="1"/><stop id="stop4001" offset="1" stop-color="#5a0000" stop-opacity="0"/></linearGradient><linearGradient id="linearGradient3989"><stop id="stop3991" offset="0" stop-color="#5a0000" stop-opacity="1"/><stop id="stop3993" offset="1" stop-color="#5a0000" stop-opacity="0"/></linearGradient><linearGradient id="linearGradient3645"><stop id="stop3649" offset="0" stop-color="#ffff23" stop-opacity=".498"/><stop id="stop3651" offset="1" stop-color="#ffff23" stop-opacity="0"/></linearGradient><linearGradient id="linearGradient3635"><stop id="stop3637" offset="0" stop-color="#ffff23" stop-opacity="1"/><stop id="stop3643" offset=".5" stop-color="#ffff23" stop-opacity=".498"/><stop id="stop3639" offset="1" stop-color="#ffff23" stop-opacity="0"/></linearGradient><linearGradient id="linearGradient3995" x1="269.644" x2="163.555" y1="181.234" y2="83.986" gradientUnits="userSpaceOnUse" xlink:href="#linearGradient3989"/><linearGradient id="linearGradient4003" x1="154.714" x2="22.102" y1="190.075" y2="83.986" gradientUnits="userSpaceOnUse" xlink:href="#linearGradient3997"/><linearGradient id="linearGradient4011" x1="190.077" x2="79.567" y1="269.642" y2="172.394" gradientUnits="userSpaceOnUse" xlink:href="#linearGradient4005"/><linearGradient id="linearGradient4019" x1="185.657" x2="22.102" y1="296.165" y2="203.336" gradientUnits="userSpaceOnUse" xlink:href="#linearGradient4013"/><linearGradient id="linearGradient4021" x1="181.236" x2="4.42" y1="309.426" y2="229.859" gradientUnits="userSpaceOnUse" xlink:href="#linearGradient4013"/><linearGradient id="linearGradient3363" x1="189.29" x2="124.591" y1="110.273" y2="110.273" gradientUnits="userSpaceOnUse" xlink:href="#linearGradient3357"/><linearGradient id="linearGradient3403" x1="150.664" x2="202.918" y1="120.508" y2="120.508" gradientUnits="userSpaceOnUse" xlink:href="#linearGradient3397"/><linearGradient id="linearGradient3428" x1="202.918" x2="95.856" y1="113.129" y2="81.149" gradientUnits="userSpaceOnUse" xlink:href="#linearGradient3422"/></defs><metadata id="metadata7"/><g id="layer1" display="inline"><g id="g3443" fill="#fff" display="inline"><path id="path3445" fill="#fff" fill-opacity="1" fill-rule="evenodd" stroke="#000" stroke-dasharray="none" stroke-linecap="butt" stroke-linejoin="miter" stroke-miterlimit="4" stroke-opacity="1" stroke-width="8" d="M 176.816,231.018 C 176.816,195.6548 176.816,160.2916 185.6568,142.61 C 194.4976,124.9284 216.5996,93.985605 256.3832,93.985605 C 280.79566,93.985605 318.2688,111.6672 318.2688,151.4508 C 318.2688,162.5018 316.0586,172.4477 311.08565,181.84105 C 306.1127,191.2344 278.4852,217.7568 243.122,226.5976 C 223.94361,231.3922 176.816,231.018 176.816,231.018 z"/><path id="path3447" fill="#fff" fill-rule="evenodd" stroke="#000" stroke-dasharray="none" stroke-linecap="round" stroke-linejoin="miter" stroke-miterlimit="4" stroke-opacity="1" stroke-width="8" d="M 176.815,30.941005 C 176.816,66.304005 176.816,76.304005 176.816,76.304005"/><path id="path3449" fill="#fff" fill-rule="evenodd" stroke="#000" stroke-dasharray="none" stroke-linecap="round" stroke-linejoin="miter" stroke-miterlimit="4" stroke-opacity="1" stroke-width="8" d="M 194.4974,48.621405 C 159.1344,48.622405 159.1344,48.622405 159.1344,48.622405" display="inline"/><g id="g3451" fill="#fff" fill-opacity="1"><path id="path3453" fill="#fff" fill-opacity="1" fill-rule="evenodd" stroke="#000" stroke-dasharray="none" stroke-linecap="butt" stroke-linejoin="miter" stroke-miterlimit="4" stroke-opacity="1" stroke-width="8" d="M 176.816,76.42689 C 194.4976,76.42689 198.918,80.129958 198.918,94.10849 C 198.918,107.36967 196.32859,121.3893 190.0772,133.89207 C 185.6568,142.73287 185.6568,142.73287 176.816,164.83487"/><path id="path3455" fill="#fff" fill-opacity="1" fill-rule="evenodd" stroke="#000" stroke-dasharray="none" stroke-linecap="butt" stroke-linejoin="miter" stroke-miterlimit="4" stroke-opacity="1" stroke-width="8.1" d="M 176.816,76.303993 C 159.1344,76.303993 154.714,80.007063 154.714,93.985593 C 154.714,107.2468 157.30341,121.26643 163.5548,133.7692 C 167.9752,142.61 167.9752,142.61 176.816,164.712" display="inline"/></g><path id="path3457" fill="#fff" fill-opacity="1" fill-rule="evenodd" stroke="#000" stroke-dasharray="none" stroke-linecap="butt" stroke-linejoin="miter" stroke-miterlimit="4" stroke-opacity="1" stroke-width="8" d="M 176.2936,231.018 C 176.2936,195.6548 176.2936,160.29161 167.4528,142.61001 C 158.612,124.92841 136.51,93.985614 96.7264,93.985614 C 72.31394,93.985614 34.8408,111.66721 34.8408,151.45081 C 34.8408,162.50181 37.051,172.44771 42.02395,181.84105 C 46.9969,191.2344 74.6244,217.7568 109.9876,226.5976 C 129.16599,231.3922 176.2936,231.018 176.2936,231.018 z" display="inline"/><rect id="rect3459" width="221.02" height="13.261" x="66.306" y="305.846" fill="#fff" fill-opacity="1" fill-rule="nonzero" stroke="#000" stroke-dasharray="none" stroke-linecap="butt" stroke-linejoin="miter" stroke-miterlimit="4" stroke-opacity="1" stroke-width="8" display="inline" opacity="1"/><rect id="rect3461" width="212.179" height="17.682" x="70.726" y="287.744" fill="#fff" fill-opacity="1" fill-rule="nonzero" stroke="#000" stroke-dasharray="none" stroke-linecap="butt" stroke-linejoin="round" stroke-miterlimit="4" stroke-opacity="1" stroke-width="8" display="inline" opacity="1"/><path id="path3463" fill="#fff" fill-opacity="1" fill-rule="evenodd" stroke="#000" stroke-dasharray="none" stroke-linecap="butt" stroke-linejoin="miter" stroke-miterlimit="4" stroke-opacity="1" stroke-width="8" d="M 274.0648,286.90359 C 185.6568,286.90359 176.816,286.90359 79.567195,286.90359 C 92.828395,273.64239 110.51,255.96079 106.0896,238.27919 C 159.1344,238.27919 119.3508,238.27919 176.816,238.27919 C 234.2812,238.27919 225.4404,238.27919 247.5424,238.27919 C 243.122,255.96079 260.8036,273.64239 274.0648,286.90359 z" display="inline"/><path id="path3465" fill="#fff" fill-rule="evenodd" stroke="#000" stroke-dasharray="none" stroke-linecap="round" stroke-linejoin="miter" stroke-miterlimit="4" stroke-opacity="1" stroke-width="7.248" d="M 104.1276,236.17719 C 249.27265,236.17719 249.27265,236.17719 249.27265,236.17719" display="inline"/></g></g><g id="layer2" display="inline"><g id="g3430"><path id="path3366" fill="url(#linearGradient3995)" fill-opacity="1" fill-rule="evenodd" stroke="#000" stroke-dasharray="none" stroke-linecap="butt" stroke-linejoin="miter" stroke-miterlimit="4" stroke-opacity="1" stroke-width="8" d="M 176.816,231.018 C 176.816,195.6548 176.816,160.2916 185.6568,142.61 C 194.4976,124.9284 216.5996,93.985605 256.3832,93.985605 C 280.79566,93.985605 318.2688,111.6672 318.2688,151.4508 C 318.2688,162.5018 316.0586,172.4477 311.08565,181.84105 C 306.1127,191.2344 278.4852,217.7568 243.122,226.5976 C 223.94361,231.3922 176.816,231.018 176.816,231.018 z"/><path id="path3370" fill="none" fill-rule="evenodd" stroke="#000" stroke-dasharray="none" stroke-linecap="round" stroke-linejoin="miter" stroke-miterlimit="4" stroke-opacity="1" stroke-width="8" d="M 176.815,30.941005 C 176.816,66.304005 176.816,76.304005 176.816,76.304005"/><path id="path3372" fill="none" fill-rule="evenodd" stroke="#000" stroke-dasharray="none" stroke-linecap="round" stroke-linejoin="miter" stroke-miterlimit="4" stroke-opacity="1" stroke-width="8" d="M 194.4974,48.621405 C 159.1344,48.622405 159.1344,48.622405 159.1344,48.622405" display="inline"/><g id="g3418" fill="url(#linearGradient3428)" fill-opacity="1"><path id="path3396" fill="url(#linearGradient3428)" fill-opacity="1" fill-rule="evenodd" stroke="#000" stroke-dasharray="none" stroke-linecap="butt" stroke-linejoin="miter" stroke-miterlimit="4" stroke-opacity="1" stroke-width="8" d="M 176.816,76.42689 C 194.4976,76.42689 198.918,80.129958 198.918,94.10849 C 198.918,107.36967 196.32859,121.3893 190.0772,133.89207 C 185.6568,142.73287 185.6568,142.73287 176.816,164.83487"/><path id="path3398" fill="url(#linearGradient3428)" fill-opacity="1" fill-rule="evenodd" stroke="#000" stroke-dasharray="none" stroke-linecap="butt" stroke-linejoin="miter" stroke-miterlimit="4" stroke-opacity="1" stroke-width="8.1" d="M 176.816,76.303993 C 159.1344,76.303993 154.714,80.007063 154.714,93.985593 C 154.714,107.2468 157.30341,121.26643 163.5548,133.7692 C 167.9752,142.61 167.9752,142.61 176.816,164.712" display="inline"/></g><path id="path3621" fill="url(#linearGradient4003)" fill-opacity="1" fill-rule="evenodd" stroke="#000" stroke-dasharray="none" stroke-linecap="butt" stroke-linejoin="miter" stroke-miterlimit="4" stroke-opacity="1" stroke-width="8" d="M 176.2936,231.018 C 176.2936,195.6548 176.2936,160.29161 167.4528,142.61001 C 158.612,124.92841 136.51,93.985614 96.7264,93.985614 C 72.31394,93.985614 34.8408,111.66721 34.8408,151.45081 C 34.8408,162.50181 37.051,172.44771 42.02395,181.84105 C 46.9969,191.2344 74.6244,217.7568 109.9876,226.5976 C 129.16599,231.3922 176.2936,231.018 176.2936,231.018 z" display="inline"/><rect id="rect3284" width="221.02" height="13.261" x="66.306" y="305.846" fill="url(#linearGradient4021)" fill-opacity="1" fill-rule="nonzero" stroke="#000" stroke-dasharray="none" stroke-linecap="butt" stroke-linejoin="miter" stroke-miterlimit="4" stroke-opacity="1" stroke-width="8" display="inline" opacity="1"/><rect id="rect3288" width="212.179" height="17.682" x="70.726" y="287.744" fill="url(#linearGradient4019)" fill-opacity="1" fill-rule="nonzero" stroke="#000" stroke-dasharray="none" stroke-linecap="butt" stroke-linejoin="round" stroke-miterlimit="4" stroke-opacity="1" stroke-width="8" display="inline" opacity="1"/><path id="path2481" fill="url(#linearGradient4011)" fill-opacity="1" fill-rule="evenodd" stroke="#000" stroke-dasharray="none" stroke-linecap="butt" stroke-linejoin="miter" stroke-miterlimit="4" stroke-opacity="1" stroke-width="8" d="M 274.0648,286.90359 C 185.6568,286.90359 176.816,286.90359 79.567195,286.90359 C 92.828395,273.64239 110.51,255.96079 106.0896,238.27919 C 159.1344,238.27919 119.3508,238.27919 176.816,238.27919 C 234.2812,238.27919 225.4404,238.27919 247.5424,238.27919 C 243.122,255.96079 260.8036,273.64239 274.0648,286.90359 z" display="inline"/><path id="path3253" fill="none" fill-rule="evenodd" stroke="#000" stroke-dasharray="none" stroke-linecap="round" stroke-linejoin="miter" stroke-miterlimit="4" stroke-opacity="1" stroke-width="7.248" d="M 104.1276,236.17719 C 249.27265,236.17719 249.27265,236.17719 249.27265,236.17719" display="inline"/></g></g></svg>