<svg xmlns="http://www.w3.org/2000/svg" xmlns:svg="http://www.w3.org/2000/svg" xmlns:xlink="http://www.w3.org/1999/xlink" id="svg2" width="353.63" height="353.63" version="1.0"><defs id="defs4"><linearGradient id="linearGradient9261"><stop id="stop9263" offset="0" stop-color="#5a0000" stop-opacity="1"/><stop id="stop9265" offset="1" stop-color="#5a0000" stop-opacity="0"/></linearGradient><linearGradient id="linearGradient9253"><stop id="stop9255" offset="0" stop-color="#5a0000" stop-opacity="1"/><stop id="stop9257" offset="1" stop-color="#5a0000" stop-opacity="0"/></linearGradient><linearGradient id="linearGradient9243"><stop id="stop9245" offset="0" stop-color="#5a0000" stop-opacity="1"/><stop id="stop9247" offset="1" stop-color="#5a0000" stop-opacity="0"/></linearGradient><linearGradient id="linearGradient9235"><stop id="stop9237" offset="0" stop-color="#5a0000" stop-opacity="1"/><stop id="stop9239" offset="1" stop-color="#5a0000" stop-opacity="0"/></linearGradient><linearGradient id="linearGradient9227"><stop id="stop9229" offset="0" stop-color="#5a0000" stop-opacity="1"/><stop id="stop9231" offset="1" stop-color="#5a0000" stop-opacity="0"/></linearGradient><linearGradient id="linearGradient3693"><stop id="stop3695" offset="0" stop-color="#ffff82" stop-opacity="1"/><stop id="stop3697" offset="1" stop-color="#ffff82" stop-opacity="0"/></linearGradient><linearGradient id="linearGradient3645"><stop id="stop3649" offset="0" stop-color="#ffff23" stop-opacity=".498"/><stop id="stop3651" offset="1" stop-color="#ffff23" stop-opacity="0"/></linearGradient><linearGradient id="linearGradient3635"><stop id="stop3637" offset="0" stop-color="#ffff23" stop-opacity="1"/><stop id="stop3643" offset=".5" stop-color="#ffff23" stop-opacity=".498"/><stop id="stop3639" offset="1" stop-color="#ffff23" stop-opacity="0"/></linearGradient><linearGradient id="linearGradient3721" x1="212.179" x2="145.873" y1="114.928" y2="79.565" gradientUnits="userSpaceOnUse" xlink:href="#linearGradient3693"/><linearGradient id="linearGradient9233" x1="207.759" x2="8.841" y1="154.712" y2="137.03" gradientUnits="userSpaceOnUse" xlink:href="#linearGradient9227"/><linearGradient id="linearGradient9241" x1="181.236" x2="13.261" y1="274.063" y2="229.859" gradientUnits="userSpaceOnUse" xlink:href="#linearGradient9235"/><linearGradient id="linearGradient9249" x1="167.975" x2="35.363" y1="296.165" y2="238.7" gradientUnits="userSpaceOnUse" xlink:href="#linearGradient9243"/><linearGradient id="linearGradient9251" x1="141.453" x2="44.204" y1="313.846" y2="282.904" gradientUnits="userSpaceOnUse" xlink:href="#linearGradient9243"/><linearGradient id="linearGradient9259" x1="225.44" x2="207.759" y1="97.247" y2="88.406" gradientUnits="userSpaceOnUse" xlink:href="#linearGradient9253"/><linearGradient id="linearGradient9267" x1="221.02" x2="172.396" y1="66.304" y2="39.782" gradientUnits="userSpaceOnUse" xlink:href="#linearGradient9261"/></defs><metadata id="metadata7"/><g id="layer1" display="inline"><g id="g2641" fill="#fff" display="inline"><path id="path2643" fill="#fff" fill-opacity="1" fill-rule="evenodd" stroke="#000" stroke-dasharray="none" stroke-linecap="butt" stroke-linejoin="miter" stroke-miterlimit="4" stroke-opacity="1" stroke-width="8" d="M 106.0896,237.018 C 128.1916,237.018 225.4404,237.018 247.5424,237.018 C 247.5424,214.916 246.82751,215.04704 243.122,192.814 C 238.7016,166.29161 247.5424,122.0876 247.5424,99.985605 C 247.5424,64.622405 244.02414,69.91703 239.60374,67.000658 C 234.9152,65.437811 217.13461,66.843932 198.918,69.042805 C 180.70139,71.241677 162.51223,78.172823 156.07961,79.78098 C 138.39801,84.20138 126.10102,87.97814 112.3987,91.144805 C 98.779148,94.292343 95.0558,95.565205 79.5672,99.985605 C 73.540319,101.70566 66.306,101.88752 66.306,108.8264 C 65.921966,111.15296 63.182443,123.07455 66.306,123.7692 C 70.989384,124.81073 89.510128,122.9054 92.8284,128.1896 C 86.845572,127.20643 68.140795,133.71369 70.7264,137.0304 C 75.824604,139.82864 72.744863,145.8712 75.1468,145.8712 C 98.656625,141.4508 90.948777,139.36314 110.51,141.4508 C 131.05827,143.64381 154.714,179.5528 179.57278,144.1896 C 172.3956,173.77473 164.8077,178.45321 160.28144,182.3367 C 154.02228,187.707 134.74719,198.63674 129.82082,203.63472 C 125.40198,208.11779 113.51427,214.916 106.0896,237.018 z"/><path id="path2645" fill="#fff" fill-opacity="1" fill-rule="evenodd" stroke="#000" stroke-dasharray="none" stroke-linecap="butt" stroke-linejoin="miter" stroke-miterlimit="4" stroke-opacity="1" stroke-width="8" d="M 187.98966,82.118838 C 187.36948,81.206008 192.66702,95.694478 198.918,99.985605 C 213.87004,94.076016 243.23409,79.548617 237.85501,73.578499 C 225.54159,74.193215 187.98966,82.118838 187.98966,82.118838 z"/><path id="path2647" fill="#fff" fill-rule="evenodd" stroke="#000" stroke-dasharray="none" stroke-linecap="butt" stroke-linejoin="miter" stroke-miterlimit="4" stroke-opacity="1" stroke-width="8" d="M 181.2364,122.0876 C 186.13768,132.68234 182.89337,137.64877 179.59585,144.1896"/><path id="path2649" fill="#fff" fill-opacity="1" fill-rule="evenodd" stroke="#000" stroke-dasharray="none" stroke-linecap="butt" stroke-linejoin="miter" stroke-miterlimit="4" stroke-opacity="1" stroke-width="8" d="M 181.2364,72.037975 C 197.13696,69.042805 210.7321,67.652385 225.4404,66.458892 C 225.4404,60.202005 222.93565,58.382182 221.02,55.781605 C 213.61937,45.73492 194.4976,45.550385 185.6568,51.361205 C 181.2364,58.79418 178.90163,67.012326 181.2364,72.037975 z"/><path id="path2651" fill="#fff" fill-opacity="1" fill-rule="nonzero" stroke="#000" stroke-dasharray="none" stroke-linejoin="miter" stroke-miterlimit="4" stroke-opacity="1" stroke-width="8" d="M 159.13439,99.457008 A 2.2102001,2.2102001 0 1 1 154.71399,99.457008 A 2.2102001,2.2102001 0 1 1 159.13439,99.457008 z" opacity="1"/><path id="path2653" fill="#fff" fill-opacity="1" fill-rule="nonzero" stroke="#000" stroke-dasharray="none" stroke-linejoin="miter" stroke-miterlimit="4" stroke-opacity="1" stroke-width="8" d="M 159.13439,99.457008 A 2.2102001,2.2102001 0 1 1 154.71399,99.457008 A 2.2102001,2.2102001 0 1 1 159.13439,99.457008 z" display="inline" opacity="1" transform="translate(-77.356994,13.261196)"/><path id="path2655" fill="#fff" fill-rule="evenodd" stroke="#000" stroke-dasharray="none" stroke-linecap="round" stroke-linejoin="miter" stroke-miterlimit="4" stroke-opacity="1" stroke-width="8" d="M 247.5424,75.144805 C 265.224,75.144805 265.224,75.144805 265.224,75.144805" display="inline"/><path id="path2657" fill="#fff" fill-rule="evenodd" stroke="#000" stroke-dasharray="none" stroke-linecap="round" stroke-linejoin="miter" stroke-miterlimit="4" stroke-opacity="1" stroke-width="8" d="M 247.5424,88.406005 C 265.224,88.406005 265.224,88.406005 265.224,88.406005" display="inline"/><path id="path2659" fill="#fff" fill-rule="evenodd" stroke="#000" stroke-dasharray="none" stroke-linecap="round" stroke-linejoin="miter" stroke-miterlimit="4" stroke-opacity="1" stroke-width="8" d="M 247.5424,101.6672 C 265.224,101.6672 265.224,101.6672 265.224,101.6672" display="inline"/><path id="path2661" fill="#fff" fill-rule="evenodd" stroke="#000" stroke-dasharray="none" stroke-linecap="round" stroke-linejoin="miter" stroke-miterlimit="4" stroke-opacity="1" stroke-width="8" d="M 247.5424,114.9284 C 265.224,114.9284 265.224,114.9284 265.224,114.9284" display="inline"/><path id="path2663" fill="#fff" fill-rule="evenodd" stroke="#000" stroke-dasharray="none" stroke-linecap="round" stroke-linejoin="miter" stroke-miterlimit="4" stroke-opacity="1" stroke-width="8" d="M 247.5424,128.1896 C 265.224,128.1896 265.224,128.1896 265.224,128.1896" display="inline"/><path id="path2665" fill="#fff" fill-rule="evenodd" stroke="#000" stroke-dasharray="none" stroke-linecap="round" stroke-linejoin="miter" stroke-miterlimit="4" stroke-opacity="1" stroke-width="8" d="M 243.122,141.4508 C 260.8036,141.4508 260.8036,141.4508 260.8036,141.4508" display="inline"/><path id="path2667" fill="#fff" fill-rule="evenodd" stroke="#000" stroke-dasharray="none" stroke-linecap="round" stroke-linejoin="miter" stroke-miterlimit="4" stroke-opacity="1" stroke-width="8" d="M 243.122,154.712 C 260.8036,154.712 260.8036,154.712 260.8036,154.712" display="inline"/><path id="path2669" fill="#fff" fill-rule="evenodd" stroke="#000" stroke-dasharray="none" stroke-linecap="round" stroke-linejoin="miter" stroke-miterlimit="4" stroke-opacity="1" stroke-width="8" d="M 243.122,167.9732 C 260.8036,167.9732 260.8036,167.9732 260.8036,167.9732" display="inline"/><path id="path2671" fill="#fff" fill-rule="evenodd" stroke="#000" stroke-dasharray="none" stroke-linecap="round" stroke-linejoin="miter" stroke-miterlimit="4" stroke-opacity="1" stroke-width="8" d="M 243.122,181.2344 C 260.8036,181.2344 260.8036,181.2344 260.8036,181.2344" display="inline"/><path id="path2673" fill="#fff" fill-rule="evenodd" stroke="#000" stroke-dasharray="none" stroke-linecap="round" stroke-linejoin="miter" stroke-miterlimit="4" stroke-opacity="1" stroke-width="8" d="M 243.122,194.4956 C 260.8036,194.4956 260.8036,194.4956 260.8036,194.4956" display="inline"/><path id="path2675" fill="#fff" fill-rule="evenodd" stroke="#000" stroke-dasharray="none" stroke-linecap="round" stroke-linejoin="miter" stroke-miterlimit="4" stroke-opacity="1" stroke-width="8" d="M 247.5424,207.7568 C 265.224,207.7568 265.224,207.7568 265.224,207.7568" display="inline"/><path id="path2677" fill="#fff" fill-rule="evenodd" stroke="#000" stroke-dasharray="none" stroke-linecap="round" stroke-linejoin="miter" stroke-miterlimit="4" stroke-opacity="1" stroke-width="8" d="M 247.5424,221.018 C 265.224,221.018 265.224,221.018 265.224,221.018" display="inline"/><rect id="rect2679" width="221.02" height="13.261" x="66.306" y="305.846" fill="#fff" fill-opacity="1" fill-rule="nonzero" stroke="#000" stroke-dasharray="none" stroke-linecap="butt" stroke-linejoin="miter" stroke-miterlimit="4" stroke-opacity="1" stroke-width="8" display="inline" opacity="1"/><rect id="rect2681" width="212.179" height="17.682" x="70.726" y="287.744" fill="#fff" fill-opacity="1" fill-rule="nonzero" stroke="#000" stroke-dasharray="none" stroke-linecap="butt" stroke-linejoin="round" stroke-miterlimit="4" stroke-opacity="1" stroke-width="8" display="inline" opacity="1"/><path id="path2683" fill="#fff" fill-opacity="1" fill-rule="evenodd" stroke="#000" stroke-dasharray="none" stroke-linecap="butt" stroke-linejoin="miter" stroke-miterlimit="4" stroke-opacity="1" stroke-width="8" d="M 274.0648,286.90359 C 185.6568,286.90359 176.816,286.90359 79.567195,286.90359 C 92.828395,273.64239 110.51,255.96079 106.0896,238.27919 C 159.1344,238.27919 119.3508,238.27919 176.816,238.27919 C 234.2812,238.27919 225.4404,238.27919 247.5424,238.27919 C 243.122,255.96079 260.8036,273.64239 274.0648,286.90359 z" display="inline"/><path id="path2685" fill="#fff" fill-rule="evenodd" stroke="#000" stroke-dasharray="none" stroke-linecap="round" stroke-linejoin="miter" stroke-miterlimit="4" stroke-opacity="1" stroke-width="8.014" d="M 101.66872,237.52472 C 252.44883,237.52472 252.44883,237.52472 252.44883,237.52472" display="inline"/></g></g><g id="layer2" display="inline"><g id="g2617"><path id="path8562" fill="url(#linearGradient9233)" fill-opacity="1" fill-rule="evenodd" stroke="#000" stroke-dasharray="none" stroke-linecap="butt" stroke-linejoin="miter" stroke-miterlimit="4" stroke-opacity="1" stroke-width="8" d="M 106.0896,237.018 C 128.1916,237.018 225.4404,237.018 247.5424,237.018 C 247.5424,214.916 246.82751,215.04704 243.122,192.814 C 238.7016,166.29161 247.5424,122.0876 247.5424,99.985605 C 247.5424,64.622405 244.02414,69.91703 239.60374,67.000658 C 234.9152,65.437811 217.13461,66.843932 198.918,69.042805 C 180.70139,71.241677 162.51223,78.172823 156.07961,79.78098 C 138.39801,84.20138 126.10102,87.97814 112.3987,91.144805 C 98.779148,94.292343 95.0558,95.565205 79.5672,99.985605 C 73.540319,101.70566 66.306,101.88752 66.306,108.8264 C 65.921966,111.15296 63.182443,123.07455 66.306,123.7692 C 70.989384,124.81073 89.510128,122.9054 92.8284,128.1896 C 86.845572,127.20643 68.140795,133.71369 70.7264,137.0304 C 75.824604,139.82864 72.744863,145.8712 75.1468,145.8712 C 98.656625,141.4508 90.948777,139.36314 110.51,141.4508 C 131.05827,143.64381 154.714,179.5528 179.57278,144.1896 C 172.3956,173.77473 164.8077,178.45321 160.28144,182.3367 C 154.02228,187.707 134.74719,198.63674 129.82082,203.63472 C 125.40198,208.11779 113.51427,214.916 106.0896,237.018 z"/><path id="path9099" fill="url(#linearGradient9259)" fill-opacity="1" fill-rule="evenodd" stroke="#000" stroke-dasharray="none" stroke-linecap="butt" stroke-linejoin="miter" stroke-miterlimit="4" stroke-opacity="1" stroke-width="8" d="M 187.98966,82.118838 C 187.36948,81.206008 192.66702,95.694478 198.918,99.985605 C 213.87004,94.076016 243.23409,79.548617 237.85501,73.578499 C 225.54159,74.193215 187.98966,82.118838 187.98966,82.118838 z"/><path id="path9105" fill="none" fill-rule="evenodd" stroke="#000" stroke-dasharray="none" stroke-linecap="butt" stroke-linejoin="miter" stroke-miterlimit="4" stroke-opacity="1" stroke-width="8" d="M 181.2364,122.0876 C 186.13768,132.68234 182.89337,137.64877 179.59585,144.1896"/><path id="path9113" fill="url(#linearGradient9267)" fill-opacity="1" fill-rule="evenodd" stroke="#000" stroke-dasharray="none" stroke-linecap="butt" stroke-linejoin="miter" stroke-miterlimit="4" stroke-opacity="1" stroke-width="8" d="M 181.2364,72.037975 C 197.13696,69.042805 210.7321,67.652385 225.4404,66.458892 C 225.4404,60.202005 222.93565,58.382182 221.02,55.781605 C 213.61937,45.73492 194.4976,45.550385 185.6568,51.361205 C 181.2364,58.79418 178.90163,67.012326 181.2364,72.037975 z"/><path id="path9117" fill="#fff" fill-opacity="1" fill-rule="nonzero" stroke="#000" stroke-dasharray="none" stroke-linejoin="miter" stroke-miterlimit="4" stroke-opacity="1" stroke-width="8" d="M 159.13439,99.457008 A 2.2102001,2.2102001 0 1 1 154.71399,99.457008 A 2.2102001,2.2102001 0 1 1 159.13439,99.457008 z" opacity="1"/><path id="path9119" fill="#fff" fill-opacity="1" fill-rule="nonzero" stroke="#000" stroke-dasharray="none" stroke-linejoin="miter" stroke-miterlimit="4" stroke-opacity="1" stroke-width="8" d="M 159.13439,99.457008 A 2.2102001,2.2102001 0 1 1 154.71399,99.457008 A 2.2102001,2.2102001 0 1 1 159.13439,99.457008 z" display="inline" opacity="1" transform="translate(-77.356994,13.261196)"/><path id="path9129" fill="none" fill-rule="evenodd" stroke="#000" stroke-dasharray="none" stroke-linecap="round" stroke-linejoin="miter" stroke-miterlimit="4" stroke-opacity="1" stroke-width="8" d="M 247.5424,75.144805 C 265.224,75.144805 265.224,75.144805 265.224,75.144805" display="inline"/><path id="path9131" fill="none" fill-rule="evenodd" stroke="#000" stroke-dasharray="none" stroke-linecap="round" stroke-linejoin="miter" stroke-miterlimit="4" stroke-opacity="1" stroke-width="8" d="M 247.5424,88.406005 C 265.224,88.406005 265.224,88.406005 265.224,88.406005" display="inline"/><path id="path9133" fill="none" fill-rule="evenodd" stroke="#000" stroke-dasharray="none" stroke-linecap="round" stroke-linejoin="miter" stroke-miterlimit="4" stroke-opacity="1" stroke-width="8" d="M 247.5424,101.6672 C 265.224,101.6672 265.224,101.6672 265.224,101.6672" display="inline"/><path id="path9135" fill="none" fill-rule="evenodd" stroke="#000" stroke-dasharray="none" stroke-linecap="round" stroke-linejoin="miter" stroke-miterlimit="4" stroke-opacity="1" stroke-width="8" d="M 247.5424,114.9284 C 265.224,114.9284 265.224,114.9284 265.224,114.9284" display="inline"/><path id="path9137" fill="none" fill-rule="evenodd" stroke="#000" stroke-dasharray="none" stroke-linecap="round" stroke-linejoin="miter" stroke-miterlimit="4" stroke-opacity="1" stroke-width="8" d="M 247.5424,128.1896 C 265.224,128.1896 265.224,128.1896 265.224,128.1896" display="inline"/><path id="path9139" fill="none" fill-rule="evenodd" stroke="#000" stroke-dasharray="none" stroke-linecap="round" stroke-linejoin="miter" stroke-miterlimit="4" stroke-opacity="1" stroke-width="8" d="M 243.122,141.4508 C 260.8036,141.4508 260.8036,141.4508 260.8036,141.4508" display="inline"/><path id="path9141" fill="none" fill-rule="evenodd" stroke="#000" stroke-dasharray="none" stroke-linecap="round" stroke-linejoin="miter" stroke-miterlimit="4" stroke-opacity="1" stroke-width="8" d="M 243.122,154.712 C 260.8036,154.712 260.8036,154.712 260.8036,154.712" display="inline"/><path id="path9143" fill="none" fill-rule="evenodd" stroke="#000" stroke-dasharray="none" stroke-linecap="round" stroke-linejoin="miter" stroke-miterlimit="4" stroke-opacity="1" stroke-width="8" d="M 243.122,167.9732 C 260.8036,167.9732 260.8036,167.9732 260.8036,167.9732" display="inline"/><path id="path9145" fill="none" fill-rule="evenodd" stroke="#000" stroke-dasharray="none" stroke-linecap="round" stroke-linejoin="miter" stroke-miterlimit="4" stroke-opacity="1" stroke-width="8" d="M 243.122,181.2344 C 260.8036,181.2344 260.8036,181.2344 260.8036,181.2344" display="inline"/><path id="path9147" fill="none" fill-rule="evenodd" stroke="#000" stroke-dasharray="none" stroke-linecap="round" stroke-linejoin="miter" stroke-miterlimit="4" stroke-opacity="1" stroke-width="8" d="M 243.122,194.4956 C 260.8036,194.4956 260.8036,194.4956 260.8036,194.4956" display="inline"/><path id="path9149" fill="none" fill-rule="evenodd" stroke="#000" stroke-dasharray="none" stroke-linecap="round" stroke-linejoin="miter" stroke-miterlimit="4" stroke-opacity="1" stroke-width="8" d="M 247.5424,207.7568 C 265.224,207.7568 265.224,207.7568 265.224,207.7568" display="inline"/><path id="path9151" fill="none" fill-rule="evenodd" stroke="#000" stroke-dasharray="none" stroke-linecap="round" stroke-linejoin="miter" stroke-miterlimit="4" stroke-opacity="1" stroke-width="8" d="M 247.5424,221.018 C 265.224,221.018 265.224,221.018 265.224,221.018" display="inline"/><rect id="rect3284" width="221.02" height="13.261" x="66.306" y="305.846" fill="url(#linearGradient9251)" fill-opacity="1" fill-rule="nonzero" stroke="#000" stroke-dasharray="none" stroke-linecap="butt" stroke-linejoin="miter" stroke-miterlimit="4" stroke-opacity="1" stroke-width="8" display="inline" opacity="1"/><rect id="rect3288" width="212.179" height="17.682" x="70.726" y="287.744" fill="url(#linearGradient9249)" fill-opacity="1" fill-rule="nonzero" stroke="#000" stroke-dasharray="none" stroke-linecap="butt" stroke-linejoin="round" stroke-miterlimit="4" stroke-opacity="1" stroke-width="8" display="inline" opacity="1"/><path id="path2481" fill="url(#linearGradient9241)" fill-opacity="1" fill-rule="evenodd" stroke="#000" stroke-dasharray="none" stroke-linecap="butt" stroke-linejoin="miter" stroke-miterlimit="4" stroke-opacity="1" stroke-width="8" d="M 274.0648,286.90359 C 185.6568,286.90359 176.816,286.90359 79.567195,286.90359 C 92.828395,273.64239 110.51,255.96079 106.0896,238.27919 C 159.1344,238.27919 119.3508,238.27919 176.816,238.27919 C 234.2812,238.27919 225.4404,238.27919 247.5424,238.27919 C 243.122,255.96079 260.8036,273.64239 274.0648,286.90359 z" display="inline"/><path id="path3253" fill="none" fill-rule="evenodd" stroke="#000" stroke-dasharray="none" stroke-linecap="round" stroke-linejoin="miter" stroke-miterlimit="4" stroke-opacity="1" stroke-width="8.014" d="M 101.66872,237.52472 C 252.44883,237.52472 252.44883,237.52472 252.44883,237.52472" display="inline"/></g></g></svg>