<svg xmlns="http://www.w3.org/2000/svg" xmlns:svg="http://www.w3.org/2000/svg" xmlns:xlink="http://www.w3.org/1999/xlink" id="svg2" width="353.63" height="353.63" version="1.0"><defs id="defs4"><linearGradient id="linearGradient8515"><stop id="stop8517" offset="0" stop-color="#d7a127" stop-opacity=".68"/><stop id="stop8519" offset="1" stop-color="#ffffe6" stop-opacity="0"/></linearGradient><linearGradient id="linearGradient3709"><stop id="stop3711" offset="0" stop-color="#ffff82" stop-opacity="1"/><stop id="stop3713" offset="1" stop-color="#ffff82" stop-opacity="0"/></linearGradient><linearGradient id="linearGradient3693"><stop id="stop3695" offset="0" stop-color="#ffff82" stop-opacity="1"/><stop id="stop3697" offset="1" stop-color="#ffff82" stop-opacity="0"/></linearGradient><linearGradient id="linearGradient3645"><stop id="stop3649" offset="0" stop-color="#ffff23" stop-opacity=".498"/><stop id="stop3651" offset="1" stop-color="#ffff23" stop-opacity="0"/></linearGradient><linearGradient id="linearGradient3635"><stop id="stop3637" offset="0" stop-color="#ffff23" stop-opacity="1"/><stop id="stop3643" offset=".5" stop-color="#ffff23" stop-opacity=".498"/><stop id="stop3639" offset="1" stop-color="#ffff23" stop-opacity="0"/></linearGradient><linearGradient id="linearGradient3699" x1="265.224" x2="190.077" y1="154.712" y2="101.667" gradientTransform="translate(0,10)" gradientUnits="userSpaceOnUse" xlink:href="#linearGradient3693"/><linearGradient id="linearGradient3715" x1="132.612" x2="57.465" y1="154.712" y2="101.667" gradientTransform="translate(0,10)" gradientUnits="userSpaceOnUse" xlink:href="#linearGradient3709"/><linearGradient id="linearGradient3721" x1="212.179" x2="145.873" y1="114.928" y2="79.565" gradientUnits="userSpaceOnUse" xlink:href="#linearGradient3693"/><linearGradient id="linearGradient3725" x1="212.179" x2="141.453" y1="114.928" y2="75.145" gradientUnits="userSpaceOnUse" xlink:href="#linearGradient3693"/><linearGradient id="linearGradient3939" x1="212.179" x2="145.873" y1="114.928" y2="79.565" gradientUnits="userSpaceOnUse" xlink:href="#linearGradient3693"/><linearGradient id="linearGradient8521" x1="216.442" x2="80.181" y1="209.026" y2="163.606" gradientUnits="userSpaceOnUse" xlink:href="#linearGradient8515"/><linearGradient id="linearGradient8523" x1="216.442" x2="80.181" y1="209.026" y2="163.606" gradientUnits="userSpaceOnUse" xlink:href="#linearGradient8515"/><linearGradient id="linearGradient8525" x1="216.442" x2="80.181" y1="209.026" y2="163.606" gradientUnits="userSpaceOnUse" xlink:href="#linearGradient8515"/><linearGradient id="linearGradient8527" x1="216.442" x2="80.181" y1="209.026" y2="163.606" gradientUnits="userSpaceOnUse" xlink:href="#linearGradient8515"/><linearGradient id="linearGradient8529" x1="197.831" x2="161.68" y1="58.432" y2="42.983" gradientUnits="userSpaceOnUse" xlink:href="#linearGradient8515"/><linearGradient id="linearGradient8531" x1="191.414" x2="107.989" y1="152.483" y2="100.11" gradientUnits="userSpaceOnUse" xlink:href="#linearGradient8515"/><linearGradient id="linearGradient8533" x1="198.367" x2="80.181" y1="209.026" y2="163.606" gradientUnits="userSpaceOnUse" xlink:href="#linearGradient8515"/><linearGradient id="linearGradient8535" x1="216.442" x2="80.181" y1="209.026" y2="163.606" gradientUnits="userSpaceOnUse" xlink:href="#linearGradient8515"/><linearGradient id="linearGradient8537" x1="216.442" x2="80.181" y1="209.026" y2="163.606" gradientUnits="userSpaceOnUse" xlink:href="#linearGradient8515"/></defs><metadata id="metadata7"/><g id="layer1" display="inline"><g id="g7995" fill="#fff"><rect id="rect7977" width="221.02" height="13.261" x="66.306" y="305.846" fill="#fff" fill-opacity="1" fill-rule="nonzero" stroke="#000" stroke-dasharray="none" stroke-linecap="butt" stroke-linejoin="miter" stroke-miterlimit="4" stroke-opacity="1" stroke-width="8" display="inline"/><rect id="rect7979" width="212.179" height="17.682" x="70.726" y="287.744" fill="#fff" fill-opacity="1" fill-rule="nonzero" stroke="#000" stroke-dasharray="none" stroke-linecap="butt" stroke-linejoin="round" stroke-miterlimit="4" stroke-opacity="1" stroke-width="8" display="inline"/><path id="path7981" fill="#fff" fill-opacity="1" fill-rule="evenodd" stroke="#000" stroke-dasharray="none" stroke-linecap="butt" stroke-linejoin="miter" stroke-miterlimit="4" stroke-opacity="1" stroke-width="8" d="m 274.0648,286.90359 c -88.408,0 -97.2488,0 -194.497605,0 13.2612,-13.2612 30.942805,-30.9428 26.522405,-48.6244 53.0448,0 13.2612,0 70.7264,0 57.4652,0 48.6244,0 70.7264,0 -4.4204,17.6816 13.2612,35.3632 26.5224,48.6244 z" display="inline"/><path id="path7983" fill="#fff" fill-opacity="1" fill-rule="evenodd" stroke="#000" stroke-dasharray="none" stroke-linecap="round" stroke-linejoin="miter" stroke-miterlimit="4" stroke-opacity="1" stroke-width="7.256" d="m 103.90377,236.17719 c 145.47686,0 145.47686,0 145.47686,0" display="inline"/><circle id="path7985" cx="187.867" cy="55.253" r="11.051" fill="#fff" fill-opacity="1" fill-rule="nonzero" stroke="#000" stroke-dasharray="none" stroke-linejoin="miter" stroke-miterlimit="4" stroke-opacity="1" stroke-width="8" display="inline" transform="translate(-11.051004,-8.8408007)"/><path id="path7987" fill="#fff" fill-opacity="1" fill-rule="evenodd" stroke="#000" stroke-dasharray="none" stroke-linecap="butt" stroke-linejoin="miter" stroke-miterlimit="4" stroke-opacity="1" stroke-width="8" d="m 181.2364,62.304005 c 0,0 6.53034,6.109943 30.9428,30.5224 22.102,22.101995 22.102,44.203995 22.102,61.885595 0,13.2612 -4.4204,26.5224 -13.2612,44.204 -17.6816,1e-5 -70.7264,1e-5 -88.408,0 -8.8408,-17.6816 -13.2612,-30.9428 -13.2612,-46.204 0,-15.6816 -1.61799,-35.40092 20.102,-57.465195 26.5224,-26.9428 32.9428,-32.9428 32.9428,-32.9428 l 8.8408,0 z" display="inline"/><path id="path7989" fill="#fff" fill-opacity="1" fill-rule="evenodd" stroke="#000" stroke-dasharray="none" stroke-linecap="butt" stroke-linejoin="miter" stroke-miterlimit="4" stroke-opacity="1" stroke-width="8" d="m 235.122,235.4384 c -22.102,0 -36.204,0 -58.306,0 -22.102,0 -35.3632,1.2612 -57.4652,1.2612 17.6816,-17.6816 13.2612,-24.5224 13.2612,-37.7836 17.6816,0 22.103,0.001 44.204,0 22.103,-0.001 26.5224,0 44.204,0 0,13.2612 -3.5796,18.8408 14.102,36.5224 z" display="inline"/><path id="path7991" fill="#fff" fill-opacity="1" fill-rule="evenodd" stroke="#000" stroke-dasharray="none" stroke-linecap="round" stroke-linejoin="miter" stroke-miterlimit="4" stroke-opacity="1" stroke-width="6.471" d="m 133.36855,198.814 c 86.75727,0 86.75727,0 86.75727,0" display="inline"/><path id="path7993" fill="#fff" fill-opacity="1" fill-rule="evenodd" stroke="#000" stroke-dasharray="none" stroke-linecap="round" stroke-linejoin="miter" stroke-miterlimit="4" stroke-opacity="1" stroke-width="8" d="m 139.98939,97.04459 c 36.90433,39.40295 36.90433,39.40295 36.90433,39.40295" display="inline"/></g></g><g id="layer2" display="inline"><rect id="rect3284" width="221.02" height="13.261" x="66.306" y="305.846" fill="url(#linearGradient8521)" fill-opacity="1" fill-rule="nonzero" stroke="#000" stroke-dasharray="none" stroke-linecap="butt" stroke-linejoin="miter" stroke-miterlimit="4" stroke-opacity="1" stroke-width="8" display="inline"/><rect id="rect3288" width="212.179" height="17.682" x="70.726" y="287.744" fill="url(#linearGradient8523)" fill-opacity="1" fill-rule="nonzero" stroke="#000" stroke-dasharray="none" stroke-linecap="butt" stroke-linejoin="round" stroke-miterlimit="4" stroke-opacity="1" stroke-width="8" display="inline"/><path id="path2481" fill="url(#linearGradient8525)" fill-opacity="1" fill-rule="evenodd" stroke="#000" stroke-dasharray="none" stroke-linecap="butt" stroke-linejoin="miter" stroke-miterlimit="4" stroke-opacity="1" stroke-width="8" d="m 274.0648,286.90359 c -88.408,0 -97.2488,0 -194.497605,0 13.2612,-13.2612 30.942805,-30.9428 26.522405,-48.6244 53.0448,0 13.2612,0 70.7264,0 57.4652,0 48.6244,0 70.7264,0 -4.4204,17.6816 13.2612,35.3632 26.5224,48.6244 z" display="inline"/><path id="path3253" fill="url(#linearGradient8527)" fill-opacity="1" fill-rule="evenodd" stroke="#000" stroke-dasharray="none" stroke-linecap="round" stroke-linejoin="miter" stroke-miterlimit="4" stroke-opacity="1" stroke-width="7.256" d="m 103.90377,236.17719 c 145.47686,0 145.47686,0 145.47686,0" display="inline"/><circle id="path7780" cx="187.867" cy="55.253" r="11.051" fill="url(#linearGradient8529)" fill-opacity="1" fill-rule="nonzero" stroke="#000" stroke-dasharray="none" stroke-linejoin="miter" stroke-miterlimit="4" stroke-opacity="1" stroke-width="8" transform="translate(-11.051004,-8.8408007)"/><path id="path8299" fill="url(#linearGradient8531)" fill-opacity="1" fill-rule="evenodd" stroke="#000" stroke-dasharray="none" stroke-linecap="butt" stroke-linejoin="miter" stroke-miterlimit="4" stroke-opacity="1" stroke-width="8" d="m 181.2364,62.304005 c 0,0 6.53034,6.109943 30.9428,30.5224 22.102,22.101995 22.102,44.203995 22.102,61.885595 0,13.2612 -4.4204,26.5224 -13.2612,44.204 -17.6816,1e-5 -70.7264,1e-5 -88.408,0 -8.8408,-17.6816 -13.2612,-30.9428 -13.2612,-46.204 0,-15.6816 -1.61799,-35.40092 20.102,-57.465195 26.5224,-26.9428 32.9428,-32.9428 32.9428,-32.9428 l 8.8408,0 z"/><path id="path8301" fill="url(#linearGradient8533)" fill-opacity="1" fill-rule="evenodd" stroke="#000" stroke-dasharray="none" stroke-linecap="butt" stroke-linejoin="miter" stroke-miterlimit="4" stroke-opacity="1" stroke-width="8" d="m 235.122,235.4384 c -22.102,0 -36.204,0 -58.306,0 -22.102,0 -35.3632,1.2612 -57.4652,1.2612 17.6816,-17.6816 13.2612,-24.5224 13.2612,-37.7836 17.6816,0 22.103,0.001 44.204,0 22.103,-0.001 26.5224,0 44.204,0 0,13.2612 -3.5796,18.8408 14.102,36.5224 z"/><path id="path8305" fill="url(#linearGradient8535)" fill-opacity="1" fill-rule="evenodd" stroke="#000" stroke-dasharray="none" stroke-linecap="round" stroke-linejoin="miter" stroke-miterlimit="4" stroke-opacity="1" stroke-width="6.471" d="m 133.36855,198.814 c 86.75727,0 86.75727,0 86.75727,0"/><path id="path8309" fill="url(#linearGradient8537)" fill-opacity="1" fill-rule="evenodd" stroke="#000" stroke-dasharray="none" stroke-linecap="round" stroke-linejoin="miter" stroke-miterlimit="4" stroke-opacity="1" stroke-width="8" d="m 139.98939,97.04459 c 36.90433,39.40295 36.90433,39.40295 36.90433,39.40295"/></g></svg>