<svg xmlns="http://www.w3.org/2000/svg" xmlns:svg="http://www.w3.org/2000/svg" xmlns:xlink="http://www.w3.org/1999/xlink" id="svg2" width="353.63" height="353.63" version="1.0"><defs id="defs4"><linearGradient id="linearGradient10492"><stop id="stop10494" offset="0" stop-color="#ffffe6" stop-opacity="1"/><stop id="stop10496" offset="1" stop-color="#ffffe6" stop-opacity="0"/></linearGradient><linearGradient id="linearGradient10484"><stop id="stop10486" offset="0" stop-color="#ffffe6" stop-opacity="1"/><stop id="stop10488" offset="1" stop-color="#ffffe6" stop-opacity="0"/></linearGradient><linearGradient id="linearGradient10476"><stop id="stop10478" offset="0" stop-color="#ffffe6" stop-opacity="1"/><stop id="stop10480" offset="1" stop-color="#ffffe6" stop-opacity="0"/></linearGradient><linearGradient id="linearGradient9614"><stop id="stop9616" offset="0" stop-color="#d7a127" stop-opacity=".68"/><stop id="stop9618" offset="1" stop-color="#ffffe6" stop-opacity="0"/></linearGradient><linearGradient id="linearGradient9604"><stop id="stop9606" offset="0" stop-color="#d7a127" stop-opacity=".68"/><stop id="stop9608" offset="1" stop-color="#ffffe6" stop-opacity="0"/></linearGradient><linearGradient id="linearGradient9596"><stop id="stop9598" offset="0" stop-color="#d7a127" stop-opacity=".68"/><stop id="stop9600" offset="1" stop-color="#ffffe6" stop-opacity="0"/></linearGradient><linearGradient id="linearGradient9588"><stop id="stop9590" offset="0" stop-color="#d7a127" stop-opacity=".68"/><stop id="stop9592" offset="1" stop-color="#ffffe6" stop-opacity="0"/></linearGradient><linearGradient id="linearGradient9580"><stop id="stop9582" offset="0" stop-color="#d7a127" stop-opacity=".678"/><stop id="stop9584" offset="1" stop-color="#ffffe6" stop-opacity="0"/></linearGradient><linearGradient id="linearGradient3645"><stop id="stop3649" offset="0" stop-color="#ffff23" stop-opacity=".498"/><stop id="stop3651" offset="1" stop-color="#ffff23" stop-opacity="0"/></linearGradient><linearGradient id="linearGradient3635"><stop id="stop3637" offset="0" stop-color="#ffff23" stop-opacity="1"/><stop id="stop3643" offset=".5" stop-color="#ffff23" stop-opacity=".498"/><stop id="stop3639" offset="1" stop-color="#ffff23" stop-opacity="0"/></linearGradient><linearGradient id="linearGradient9586" x1="196.976" x2="133.017" y1="102.16" y2="71.567" gradientUnits="userSpaceOnUse" xlink:href="#linearGradient9580"/><linearGradient id="linearGradient9594" x1="157.581" x2="40.11" y1="183.535" y2="133.48" gradientUnits="userSpaceOnUse" xlink:href="#linearGradient9588"/><linearGradient id="linearGradient9602" x1="284.109" x2="190.024" y1="172.875" y2="103.818" gradientUnits="userSpaceOnUse" xlink:href="#linearGradient9596"/><linearGradient id="linearGradient9610" x1="236.371" x2="21.32" y1="289.207" y2="225.248" gradientUnits="userSpaceOnUse" xlink:href="#linearGradient9604"/><linearGradient id="linearGradient9612" x1="236.371" x2="21.32" y1="289.207" y2="225.248" gradientUnits="userSpaceOnUse" xlink:href="#linearGradient9604"/><linearGradient id="linearGradient9620" x1="215.978" x2="97.329" y1="323.108" y2="295.696" gradientUnits="userSpaceOnUse" xlink:href="#linearGradient9614"/><linearGradient id="linearGradient10482" x1="100.754" x2="252.68" y1="236.177" y2="236.177" gradientUnits="userSpaceOnUse" xlink:href="#linearGradient10476"/><linearGradient id="linearGradient10490" x1="172.815" x2="180.816" y1="53.623" y2="53.623" gradientUnits="userSpaceOnUse" xlink:href="#linearGradient10484"/><linearGradient id="linearGradient10498" x1="155.134" x2="198.497" y1="48.622" y2="48.622" gradientUnits="userSpaceOnUse" xlink:href="#linearGradient10492"/></defs><metadata id="metadata7"/><g id="layer1" display="inline"><g id="g9044"><rect id="rect9022" width="221.02" height="13.261" x="66.306" y="305.846" fill="#fff" fill-opacity="1" fill-rule="nonzero" stroke="#000" stroke-dasharray="none" stroke-linecap="butt" stroke-linejoin="miter" stroke-miterlimit="4" stroke-opacity="1" stroke-width="8" display="inline"/><rect id="rect9024" width="212.179" height="17.682" x="70.726" y="287.744" fill="#fff" fill-opacity="1" fill-rule="nonzero" stroke="#000" stroke-dasharray="none" stroke-linecap="butt" stroke-linejoin="round" stroke-miterlimit="4" stroke-opacity="1" stroke-width="8" display="inline"/><path id="path9026" fill="#fff" fill-opacity="1" fill-rule="evenodd" stroke="#000" stroke-dasharray="none" stroke-linecap="butt" stroke-linejoin="miter" stroke-miterlimit="4" stroke-opacity="1" stroke-width="8" d="m 274.0648,286.90359 c -88.408,0 -97.2488,0 -194.497605,0 13.2612,-13.2612 30.942805,-30.9428 26.522405,-48.6244 53.0448,0 13.2612,0 70.7264,0 57.4652,0 48.6244,0 70.7264,0 -4.4204,17.6816 13.2612,35.3632 26.5224,48.6244 z" display="inline"/><path id="path9028" fill="#ffffe6" fill-opacity="1" fill-rule="evenodd" stroke="#000" stroke-dasharray="none" stroke-linecap="round" stroke-linejoin="miter" stroke-miterlimit="4" stroke-opacity="1" stroke-width="7.237" d="m 104.37233,236.17719 c 144.6894,0 144.6894,0 144.6894,0" display="inline"/><path id="path9030" fill="#fff" fill-opacity="1" fill-rule="evenodd" stroke="#000" stroke-dasharray="none" stroke-linecap="butt" stroke-linejoin="miter" stroke-miterlimit="4" stroke-opacity="1" stroke-width="8" d="m 176.816,231.018 c 0,-35.3632 0,-70.7264 8.8408,-88.408 8.8408,-17.6816 30.9428,-48.624395 70.7264,-48.624395 24.41246,0 61.8856,17.681595 61.8856,57.465195 0,11.051 -2.2102,20.9969 -7.18315,30.39025 -4.97295,9.39335 -32.60045,35.91575 -67.96365,44.75655 -19.17839,4.7946 -66.306,4.4204 -66.306,4.4204 z" display="inline"/><path id="path9032" fill="#ffffe6" fill-opacity="1" fill-rule="evenodd" stroke="#000" stroke-dasharray="none" stroke-linecap="round" stroke-linejoin="miter" stroke-miterlimit="4" stroke-opacity="1" stroke-width="8" d="m 176.815,30.941005 c 0.001,35.363 0.001,45.363 0.001,45.363" display="inline"/><path id="path9034" fill="#ffffe6" fill-opacity="1" fill-rule="evenodd" stroke="#000" stroke-dasharray="none" stroke-linecap="round" stroke-linejoin="miter" stroke-miterlimit="4" stroke-opacity="1" stroke-width="8" d="m 194.4974,48.621405 c -35.363,10e-4 -35.363,10e-4 -35.363,10e-4" display="inline"/><g id="g9036" fill="#ffffe6" fill-opacity="1" display="inline" transform="translate(0,10)"><path id="path9038" fill="#fff" fill-opacity="1" fill-rule="evenodd" stroke="#000" stroke-dasharray="none" stroke-linecap="butt" stroke-linejoin="miter" stroke-miterlimit="4" stroke-opacity="1" stroke-width="8" d="m 176.816,66.304005 c 17.6816,0 22.102,3.703068 22.102,17.6816 0,13.2612 -2.58941,27.280825 -8.8408,39.783595 -4.4204,8.8408 -4.4204,8.8408 -13.2612,30.9428"/><path id="path9040" fill="#fff" fill-opacity="1" fill-rule="evenodd" stroke="#000" stroke-dasharray="none" stroke-linecap="butt" stroke-linejoin="miter" stroke-miterlimit="4" stroke-opacity="1" stroke-width="8.1" d="m 176.51,65.883605 c -17.6816,0 -22.102,3.70307 -22.102,17.6816 0,13.2612 2.58941,27.280825 8.8408,39.783595 4.4204,8.8408 4.4204,8.8408 13.2612,30.9428" display="inline"/></g><path id="path9042" fill="#fff" fill-opacity="1" fill-rule="evenodd" stroke="#000" stroke-dasharray="none" stroke-linecap="butt" stroke-linejoin="miter" stroke-miterlimit="4" stroke-opacity="1" stroke-width="8" d="m 176.2936,231.018 c 0,-35.3632 0,-70.72639 -8.8408,-88.40799 -8.8408,-17.6816 -30.9428,-48.624396 -70.7264,-48.624396 -24.41246,0 -61.8856,17.681596 -61.8856,57.465196 0,11.051 2.2102,20.9969 7.18315,30.39024 4.97295,9.39335 32.60045,35.91575 67.96365,44.75655 19.17839,4.7946 66.306,4.4204 66.306,4.4204 z" display="inline"/></g></g><g id="layer2" display="inline"><rect id="rect3284" width="221.02" height="13.261" x="66.306" y="305.846" fill="url(#linearGradient9620)" fill-opacity="1" fill-rule="nonzero" stroke="#000" stroke-dasharray="none" stroke-linecap="butt" stroke-linejoin="miter" stroke-miterlimit="4" stroke-opacity="1" stroke-width="8" display="inline"/><rect id="rect3288" width="212.179" height="17.682" x="70.726" y="287.744" fill="url(#linearGradient9610)" fill-opacity="1" fill-rule="nonzero" stroke="#000" stroke-dasharray="none" stroke-linecap="butt" stroke-linejoin="round" stroke-miterlimit="4" stroke-opacity="1" stroke-width="8" display="inline"/><path id="path2481" fill="url(#linearGradient9612)" fill-opacity="1" fill-rule="evenodd" stroke="#000" stroke-dasharray="none" stroke-linecap="butt" stroke-linejoin="miter" stroke-miterlimit="4" stroke-opacity="1" stroke-width="8" d="m 274.0648,286.90359 c -88.408,0 -97.2488,0 -194.497605,0 13.2612,-13.2612 30.942805,-30.9428 26.522405,-48.6244 53.0448,0 13.2612,0 70.7264,0 57.4652,0 48.6244,0 70.7264,0 -4.4204,17.6816 13.2612,35.3632 26.5224,48.6244 z" display="inline"/><path id="path3253" fill="url(#linearGradient10482)" fill-opacity="1" fill-rule="evenodd" stroke="#000" stroke-dasharray="none" stroke-linecap="round" stroke-linejoin="miter" stroke-miterlimit="4" stroke-opacity="1" stroke-width="7.237" d="m 104.37233,236.17719 c 144.6894,0 144.6894,0 144.6894,0" display="inline"/><path id="path3366" fill="url(#linearGradient9602)" fill-opacity="1" fill-rule="evenodd" stroke="#000" stroke-dasharray="none" stroke-linecap="butt" stroke-linejoin="miter" stroke-miterlimit="4" stroke-opacity="1" stroke-width="8" d="m 176.816,231.018 c 0,-35.3632 0,-70.7264 8.8408,-88.408 8.8408,-17.6816 30.9428,-48.624395 70.7264,-48.624395 24.41246,0 61.8856,17.681595 61.8856,57.465195 0,11.051 -2.2102,20.9969 -7.18315,30.39025 -4.97295,9.39335 -32.60045,35.91575 -67.96365,44.75655 -19.17839,4.7946 -66.306,4.4204 -66.306,4.4204 z"/><path id="path3370" fill="url(#linearGradient10490)" fill-opacity="1" fill-rule="evenodd" stroke="#000" stroke-dasharray="none" stroke-linecap="round" stroke-linejoin="miter" stroke-miterlimit="4" stroke-opacity="1" stroke-width="8" d="m 176.815,30.941005 c 0.001,35.363 0.001,45.363 0.001,45.363"/><path id="path3372" fill="url(#linearGradient10498)" fill-opacity="1" fill-rule="evenodd" stroke="#000" stroke-dasharray="none" stroke-linecap="round" stroke-linejoin="miter" stroke-miterlimit="4" stroke-opacity="1" stroke-width="8" d="m 194.4974,48.621405 c -35.363,10e-4 -35.363,10e-4 -35.363,10e-4" display="inline"/><g id="g3717" fill="url(#linearGradient9586)" fill-opacity="1" transform="translate(0,10)"><path id="path3396" fill="url(#linearGradient9586)" fill-opacity="1" fill-rule="evenodd" stroke="#000" stroke-dasharray="none" stroke-linecap="butt" stroke-linejoin="miter" stroke-miterlimit="4" stroke-opacity="1" stroke-width="8" d="m 176.816,66.304005 c 17.6816,0 22.102,3.703068 22.102,17.6816 0,13.2612 -2.58941,27.280825 -8.8408,39.783595 -4.4204,8.8408 -4.4204,8.8408 -13.2612,30.9428"/><path id="path3398" fill="url(#linearGradient9586)" fill-opacity="1" fill-rule="evenodd" stroke="#000" stroke-dasharray="none" stroke-linecap="butt" stroke-linejoin="miter" stroke-miterlimit="4" stroke-opacity="1" stroke-width="8.1" d="m 176.51,65.883605 c -17.6816,0 -22.102,3.70307 -22.102,17.6816 0,13.2612 2.58941,27.280825 8.8408,39.783595 4.4204,8.8408 4.4204,8.8408 13.2612,30.9428" display="inline"/></g><path id="path3621" fill="url(#linearGradient9594)" fill-opacity="1" fill-rule="evenodd" stroke="#000" stroke-dasharray="none" stroke-linecap="butt" stroke-linejoin="miter" stroke-miterlimit="4" stroke-opacity="1" stroke-width="8" d="m 176.2936,231.018 c 0,-35.3632 0,-70.72639 -8.8408,-88.40799 -8.8408,-17.6816 -30.9428,-48.624396 -70.7264,-48.624396 -24.41246,0 -61.8856,17.681596 -61.8856,57.465196 0,11.051 2.2102,20.9969 7.18315,30.39024 4.97295,9.39335 32.60045,35.91575 67.96365,44.75655 19.17839,4.7946 66.306,4.4204 66.306,4.4204 z" display="inline"/></g></svg>