<svg xmlns="http://www.w3.org/2000/svg" xmlns:svg="http://www.w3.org/2000/svg" xmlns:xlink="http://www.w3.org/1999/xlink" id="svg2" width="353.63" height="353.63" version="1.0"><defs id="defs4"><linearGradient id="linearGradient12660"><stop id="stop12662" offset="0" stop-color="#d7a127" stop-opacity=".678"/><stop id="stop12664" offset="1" stop-color="#feffff" stop-opacity="0"/></linearGradient><linearGradient id="linearGradient10468"><stop id="stop10470" offset="0" stop-color="#d7a127" stop-opacity=".522"/><stop id="stop10472" offset="1" stop-color="#000" stop-opacity="0"/></linearGradient><linearGradient id="linearGradient9177"><stop id="stop9179" offset="0" stop-color="#ffff82" stop-opacity="1"/><stop id="stop9181" offset="1" stop-color="#ffff82" stop-opacity="0"/></linearGradient><linearGradient id="linearGradient3693"><stop id="stop3695" offset="0" stop-color="#ffff82" stop-opacity="1"/><stop id="stop3697" offset="1" stop-color="#ffff82" stop-opacity="0"/></linearGradient><linearGradient id="linearGradient3645"><stop id="stop3649" offset="0" stop-color="#ffff23" stop-opacity=".498"/><stop id="stop3651" offset="1" stop-color="#ffff23" stop-opacity="0"/></linearGradient><linearGradient id="linearGradient3635"><stop id="stop3637" offset="0" stop-color="#ffff23" stop-opacity="1"/><stop id="stop3643" offset=".5" stop-color="#ffff23" stop-opacity=".498"/><stop id="stop3639" offset="1" stop-color="#ffff23" stop-opacity="0"/></linearGradient><linearGradient id="linearGradient3721" x1="212.179" x2="145.873" y1="114.928" y2="79.565" gradientUnits="userSpaceOnUse" xlink:href="#linearGradient3693"/><linearGradient id="linearGradient9185" x1="243.122" x2="207.759" y1="106.088" y2="88.406" gradientUnits="userSpaceOnUse" xlink:href="#linearGradient9177"/><linearGradient id="linearGradient12666" x1="216.905" x2="78.79" y1="198.367" y2="156.19" gradientUnits="userSpaceOnUse" xlink:href="#linearGradient12660"/></defs><metadata id="metadata7"/><g id="layer1" display="inline"><g id="g9911" fill="#fff"><rect id="rect9867" width="221.02" height="13.261" x="66.306" y="305.846" fill="#fff" fill-opacity="1" fill-rule="nonzero" stroke="#000" stroke-dasharray="none" stroke-linecap="butt" stroke-linejoin="miter" stroke-miterlimit="4" stroke-opacity="1" stroke-width="8" display="inline"/><rect id="rect9869" width="212.179" height="17.682" x="70.726" y="287.744" fill="#fff" fill-opacity="1" fill-rule="nonzero" stroke="#000" stroke-dasharray="none" stroke-linecap="butt" stroke-linejoin="round" stroke-miterlimit="4" stroke-opacity="1" stroke-width="8" display="inline"/><path id="path9871" fill="#fff" fill-opacity="1" fill-rule="evenodd" stroke="#000" stroke-dasharray="none" stroke-linecap="butt" stroke-linejoin="miter" stroke-miterlimit="4" stroke-opacity="1" stroke-width="8" d="M 274.0648,287.324 C 185.65681,287.324 176.81601,287.324 79.5672,287.324 C 92.8284,274.0628 110.51001,256.3812 106.08961,238.6996 C 159.13441,238.6996 119.35081,238.6996 176.81601,238.6996 C 234.2812,238.6996 225.4404,238.6996 247.5424,238.6996 C 243.12201,256.3812 260.80361,274.0628 274.0648,287.324 z" display="inline"/><path id="path9873" fill="#fff" fill-opacity="1" fill-rule="evenodd" stroke="#000" stroke-dasharray="none" stroke-linecap="round" stroke-linejoin="miter" stroke-miterlimit="4" stroke-opacity="1" stroke-width="7.371" d="M 101.41648,238.17719 C 251.52859,238.17719 251.52859,238.17719 251.52859,238.17719" display="inline"/><path id="path9875" fill="#fff" fill-opacity="1" fill-rule="evenodd" stroke="#000" stroke-dasharray="none" stroke-linecap="butt" stroke-linejoin="miter" stroke-miterlimit="4" stroke-opacity="1" stroke-width="8" d="M 106.0896,237.018 C 128.1916,237.018 225.4404,237.018 247.5424,237.018 C 247.5424,214.916 246.82751,215.04704 243.122,192.814 C 238.7016,166.29161 247.5424,122.0876 247.5424,99.985605 C 247.5424,64.622405 244.02414,69.91703 239.60374,67.000658 C 234.9152,65.437811 217.13461,66.843932 198.918,69.042805 C 180.70139,71.241677 162.51223,78.172823 156.07961,79.78098 C 138.39801,84.20138 126.10102,87.97814 112.3987,91.144805 C 98.779148,94.292343 95.0558,95.565205 79.5672,99.985605 C 73.540319,101.70566 66.306,101.88752 66.306,108.8264 C 65.921966,111.15296 63.182443,123.07455 66.306,123.7692 C 70.989384,124.81073 89.510128,122.9054 92.8284,128.1896 C 86.845572,127.20643 68.140795,133.71369 70.7264,137.0304 C 75.824604,139.82864 72.744863,145.8712 75.1468,145.8712 C 98.656625,141.4508 90.948777,139.36314 110.51,141.4508 C 131.05827,143.64381 154.714,179.5528 179.57278,144.1896 C 172.3956,173.77473 164.8077,178.45321 160.28144,182.3367 C 154.02228,187.707 134.74719,198.63674 129.82082,203.63472 C 125.40198,208.11779 113.51427,214.916 106.0896,237.018 z" display="inline"/><path id="path9877" fill="#fff" fill-opacity="1" fill-rule="evenodd" stroke="#000" stroke-dasharray="none" stroke-linecap="butt" stroke-linejoin="miter" stroke-miterlimit="4" stroke-opacity="1" stroke-width="8" d="M 187.98966,82.118838 C 187.36948,81.206008 192.66702,95.694478 198.918,99.985605 C 213.87004,94.076016 243.23409,79.548617 237.85501,73.578499 C 225.54159,74.193215 187.98966,82.118838 187.98966,82.118838 z" display="inline"/><path id="path9879" fill="#fff" fill-opacity="1" fill-rule="evenodd" stroke="#000" stroke-dasharray="none" stroke-linecap="butt" stroke-linejoin="miter" stroke-miterlimit="4" stroke-opacity="1" stroke-width="8" d="M 181.2364,122.0876 C 186.13768,132.68234 182.89337,137.64877 179.59585,144.1896" display="inline"/><path id="path9881" fill="#fff" fill-opacity="1" fill-rule="evenodd" stroke="#000" stroke-dasharray="none" stroke-linecap="butt" stroke-linejoin="miter" stroke-miterlimit="4" stroke-opacity="1" stroke-width="8" d="M 181.2364,72.037975 C 197.13696,69.042805 210.7321,67.652385 225.4404,66.458892 C 225.4404,60.202005 222.93565,58.382182 221.02,55.781605 C 213.61937,45.73492 194.4976,45.550385 185.6568,51.361205 C 181.2364,58.79418 178.90163,67.012326 181.2364,72.037975 z" display="inline"/><path id="path9883" fill="#fff" fill-opacity="1" fill-rule="nonzero" stroke="#000" stroke-dasharray="none" stroke-linejoin="miter" stroke-miterlimit="4" stroke-opacity="1" stroke-width="8" d="M 159.13439,99.457008 A 2.2102001,2.2102001 0 1 1 154.71399,99.457008 A 2.2102001,2.2102001 0 1 1 159.13439,99.457008 z" display="inline"/><path id="path9885" fill="#fff" fill-opacity="1" fill-rule="nonzero" stroke="#000" stroke-dasharray="none" stroke-linejoin="miter" stroke-miterlimit="4" stroke-opacity="1" stroke-width="8" d="M 159.13439,99.457008 A 2.2102001,2.2102001 0 1 1 154.71399,99.457008 A 2.2102001,2.2102001 0 1 1 159.13439,99.457008 z" display="inline" transform="translate(-77.356994,13.261196)"/><path id="path9887" fill="#fff" fill-opacity="1" fill-rule="evenodd" stroke="#000" stroke-dasharray="none" stroke-linecap="round" stroke-linejoin="miter" stroke-miterlimit="4" stroke-opacity="1" stroke-width="8" d="M 247.5424,75.144805 C 265.224,75.144805 265.224,75.144805 265.224,75.144805" display="inline"/><path id="path9889" fill="#fff" fill-opacity="1" fill-rule="evenodd" stroke="#000" stroke-dasharray="none" stroke-linecap="round" stroke-linejoin="miter" stroke-miterlimit="4" stroke-opacity="1" stroke-width="8" d="M 247.5424,88.406005 C 265.224,88.406005 265.224,88.406005 265.224,88.406005" display="inline"/><path id="path9891" fill="#fff" fill-opacity="1" fill-rule="evenodd" stroke="#000" stroke-dasharray="none" stroke-linecap="round" stroke-linejoin="miter" stroke-miterlimit="4" stroke-opacity="1" stroke-width="8" d="M 247.5424,101.6672 C 265.224,101.6672 265.224,101.6672 265.224,101.6672" display="inline"/><path id="path9893" fill="#fff" fill-opacity="1" fill-rule="evenodd" stroke="#000" stroke-dasharray="none" stroke-linecap="round" stroke-linejoin="miter" stroke-miterlimit="4" stroke-opacity="1" stroke-width="8" d="M 247.5424,114.9284 C 265.224,114.9284 265.224,114.9284 265.224,114.9284" display="inline"/><path id="path9895" fill="#fff" fill-opacity="1" fill-rule="evenodd" stroke="#000" stroke-dasharray="none" stroke-linecap="round" stroke-linejoin="miter" stroke-miterlimit="4" stroke-opacity="1" stroke-width="8" d="M 247.5424,128.1896 C 265.224,128.1896 265.224,128.1896 265.224,128.1896" display="inline"/><path id="path9897" fill="#fff" fill-opacity="1" fill-rule="evenodd" stroke="#000" stroke-dasharray="none" stroke-linecap="round" stroke-linejoin="miter" stroke-miterlimit="4" stroke-opacity="1" stroke-width="8" d="M 243.122,141.4508 C 260.8036,141.4508 260.8036,141.4508 260.8036,141.4508" display="inline"/><path id="path9899" fill="#fff" fill-opacity="1" fill-rule="evenodd" stroke="#000" stroke-dasharray="none" stroke-linecap="round" stroke-linejoin="miter" stroke-miterlimit="4" stroke-opacity="1" stroke-width="8" d="M 243.122,154.712 C 260.8036,154.712 260.8036,154.712 260.8036,154.712" display="inline"/><path id="path9901" fill="#fff" fill-opacity="1" fill-rule="evenodd" stroke="#000" stroke-dasharray="none" stroke-linecap="round" stroke-linejoin="miter" stroke-miterlimit="4" stroke-opacity="1" stroke-width="8" d="M 243.122,167.9732 C 260.8036,167.9732 260.8036,167.9732 260.8036,167.9732" display="inline"/><path id="path9903" fill="#fff" fill-opacity="1" fill-rule="evenodd" stroke="#000" stroke-dasharray="none" stroke-linecap="round" stroke-linejoin="miter" stroke-miterlimit="4" stroke-opacity="1" stroke-width="8" d="M 243.122,181.2344 C 260.8036,181.2344 260.8036,181.2344 260.8036,181.2344" display="inline"/><path id="path9905" fill="#fff" fill-opacity="1" fill-rule="evenodd" stroke="#000" stroke-dasharray="none" stroke-linecap="round" stroke-linejoin="miter" stroke-miterlimit="4" stroke-opacity="1" stroke-width="8" d="M 243.122,194.4956 C 260.8036,194.4956 260.8036,194.4956 260.8036,194.4956" display="inline"/><path id="path9907" fill="#fff" fill-opacity="1" fill-rule="evenodd" stroke="#000" stroke-dasharray="none" stroke-linecap="round" stroke-linejoin="miter" stroke-miterlimit="4" stroke-opacity="1" stroke-width="8" d="M 247.5424,207.7568 C 265.224,207.7568 265.224,207.7568 265.224,207.7568" display="inline"/><path id="path9909" fill="#fff" fill-opacity="1" fill-rule="evenodd" stroke="#000" stroke-dasharray="none" stroke-linecap="round" stroke-linejoin="miter" stroke-miterlimit="4" stroke-opacity="1" stroke-width="8" d="M 247.5424,221.018 C 265.224,221.018 265.224,221.018 265.224,221.018" display="inline"/></g></g><g id="layer2" display="inline"><g id="g10444" fill="url(#linearGradient12666)" fill-opacity="1"><rect id="rect3284" width="221.02" height="13.261" x="66.306" y="305.846" fill="url(#linearGradient12666)" fill-opacity="1" fill-rule="nonzero" stroke="#000" stroke-dasharray="none" stroke-linecap="butt" stroke-linejoin="miter" stroke-miterlimit="4" stroke-opacity="1" stroke-width="8" display="inline"/><rect id="rect3288" width="212.179" height="17.682" x="70.726" y="287.744" fill="url(#linearGradient12666)" fill-opacity="1" fill-rule="nonzero" stroke="#000" stroke-dasharray="none" stroke-linecap="butt" stroke-linejoin="round" stroke-miterlimit="4" stroke-opacity="1" stroke-width="8" display="inline"/><path id="path2481" fill="url(#linearGradient12666)" fill-opacity="1" fill-rule="evenodd" stroke="#000" stroke-dasharray="none" stroke-linecap="butt" stroke-linejoin="miter" stroke-miterlimit="4" stroke-opacity="1" stroke-width="8" d="M 274.0648,287.324 C 185.65681,287.324 176.81601,287.324 79.5672,287.324 C 92.8284,274.0628 110.51001,256.3812 106.08961,238.6996 C 159.13441,238.6996 119.35081,238.6996 176.81601,238.6996 C 234.2812,238.6996 225.4404,238.6996 247.5424,238.6996 C 243.12201,256.3812 260.80361,274.0628 274.0648,287.324 z" display="inline"/><path id="path3253" fill="url(#linearGradient12666)" fill-opacity="1" fill-rule="evenodd" stroke="#000" stroke-dasharray="none" stroke-linecap="round" stroke-linejoin="miter" stroke-miterlimit="4" stroke-opacity="1" stroke-width="7.371" d="M 101.41648,238.17719 C 251.52859,238.17719 251.52859,238.17719 251.52859,238.17719" display="inline"/><path id="path8562" fill="url(#linearGradient12666)" fill-opacity="1" fill-rule="evenodd" stroke="#000" stroke-dasharray="none" stroke-linecap="butt" stroke-linejoin="miter" stroke-miterlimit="4" stroke-opacity="1" stroke-width="8" d="M 106.0896,237.018 C 128.1916,237.018 225.4404,237.018 247.5424,237.018 C 247.5424,214.916 246.82751,215.04704 243.122,192.814 C 238.7016,166.29161 247.5424,122.0876 247.5424,99.985605 C 247.5424,64.622405 244.02414,69.91703 239.60374,67.000658 C 234.9152,65.437811 217.13461,66.843932 198.918,69.042805 C 180.70139,71.241677 162.51223,78.172823 156.07961,79.78098 C 138.39801,84.20138 126.10102,87.97814 112.3987,91.144805 C 98.779148,94.292343 95.0558,95.565205 79.5672,99.985605 C 73.540319,101.70566 66.306,101.88752 66.306,108.8264 C 65.921966,111.15296 63.182443,123.07455 66.306,123.7692 C 70.989384,124.81073 89.510128,122.9054 92.8284,128.1896 C 86.845572,127.20643 68.140795,133.71369 70.7264,137.0304 C 75.824604,139.82864 72.744863,145.8712 75.1468,145.8712 C 98.656625,141.4508 90.948777,139.36314 110.51,141.4508 C 131.05827,143.64381 154.714,179.5528 179.57278,144.1896 C 172.3956,173.77473 164.8077,178.45321 160.28144,182.3367 C 154.02228,187.707 134.74719,198.63674 129.82082,203.63472 C 125.40198,208.11779 113.51427,214.916 106.0896,237.018 z"/><path id="path9099" fill="url(#linearGradient12666)" fill-opacity="1" fill-rule="evenodd" stroke="#000" stroke-dasharray="none" stroke-linecap="butt" stroke-linejoin="miter" stroke-miterlimit="4" stroke-opacity="1" stroke-width="8" d="M 187.98966,82.118838 C 187.36948,81.206008 192.66702,95.694478 198.918,99.985605 C 213.87004,94.076016 243.23409,79.548617 237.85501,73.578499 C 225.54159,74.193215 187.98966,82.118838 187.98966,82.118838 z"/><path id="path9105" fill="url(#linearGradient12666)" fill-opacity="1" fill-rule="evenodd" stroke="#000" stroke-dasharray="none" stroke-linecap="butt" stroke-linejoin="miter" stroke-miterlimit="4" stroke-opacity="1" stroke-width="8" d="M 181.2364,122.0876 C 186.13768,132.68234 182.89337,137.64877 179.59585,144.1896"/><path id="path9113" fill="url(#linearGradient12666)" fill-opacity="1" fill-rule="evenodd" stroke="#000" stroke-dasharray="none" stroke-linecap="butt" stroke-linejoin="miter" stroke-miterlimit="4" stroke-opacity="1" stroke-width="8" d="M 181.2364,72.037975 C 197.13696,69.042805 210.7321,67.652385 225.4404,66.458892 C 225.4404,60.202005 222.93565,58.382182 221.02,55.781605 C 213.61937,45.73492 194.4976,45.550385 185.6568,51.361205 C 181.2364,58.79418 178.90163,67.012326 181.2364,72.037975 z"/><path id="path9117" fill="url(#linearGradient12666)" fill-opacity="1" fill-rule="nonzero" stroke="#000" stroke-dasharray="none" stroke-linejoin="miter" stroke-miterlimit="4" stroke-opacity="1" stroke-width="8" d="M 159.13439,99.457008 A 2.2102001,2.2102001 0 1 1 154.71399,99.457008 A 2.2102001,2.2102001 0 1 1 159.13439,99.457008 z"/><path id="path9119" fill="url(#linearGradient12666)" fill-opacity="1" fill-rule="nonzero" stroke="#000" stroke-dasharray="none" stroke-linejoin="miter" stroke-miterlimit="4" stroke-opacity="1" stroke-width="8" d="M 159.13439,99.457008 A 2.2102001,2.2102001 0 1 1 154.71399,99.457008 A 2.2102001,2.2102001 0 1 1 159.13439,99.457008 z" display="inline" transform="translate(-77.356994,13.261196)"/><path id="path9129" fill="url(#linearGradient12666)" fill-opacity="1" fill-rule="evenodd" stroke="#000" stroke-dasharray="none" stroke-linecap="round" stroke-linejoin="miter" stroke-miterlimit="4" stroke-opacity="1" stroke-width="8" d="M 247.5424,75.144805 C 265.224,75.144805 265.224,75.144805 265.224,75.144805" display="inline"/><path id="path9131" fill="url(#linearGradient12666)" fill-opacity="1" fill-rule="evenodd" stroke="#000" stroke-dasharray="none" stroke-linecap="round" stroke-linejoin="miter" stroke-miterlimit="4" stroke-opacity="1" stroke-width="8" d="M 247.5424,88.406005 C 265.224,88.406005 265.224,88.406005 265.224,88.406005" display="inline"/><path id="path9133" fill="url(#linearGradient12666)" fill-opacity="1" fill-rule="evenodd" stroke="#000" stroke-dasharray="none" stroke-linecap="round" stroke-linejoin="miter" stroke-miterlimit="4" stroke-opacity="1" stroke-width="8" d="M 247.5424,101.6672 C 265.224,101.6672 265.224,101.6672 265.224,101.6672" display="inline"/><path id="path9135" fill="url(#linearGradient12666)" fill-opacity="1" fill-rule="evenodd" stroke="#000" stroke-dasharray="none" stroke-linecap="round" stroke-linejoin="miter" stroke-miterlimit="4" stroke-opacity="1" stroke-width="8" d="M 247.5424,114.9284 C 265.224,114.9284 265.224,114.9284 265.224,114.9284" display="inline"/><path id="path9137" fill="url(#linearGradient12666)" fill-opacity="1" fill-rule="evenodd" stroke="#000" stroke-dasharray="none" stroke-linecap="round" stroke-linejoin="miter" stroke-miterlimit="4" stroke-opacity="1" stroke-width="8" d="M 247.5424,128.1896 C 265.224,128.1896 265.224,128.1896 265.224,128.1896" display="inline"/><path id="path9139" fill="url(#linearGradient12666)" fill-opacity="1" fill-rule="evenodd" stroke="#000" stroke-dasharray="none" stroke-linecap="round" stroke-linejoin="miter" stroke-miterlimit="4" stroke-opacity="1" stroke-width="8" d="M 243.122,141.4508 C 260.8036,141.4508 260.8036,141.4508 260.8036,141.4508" display="inline"/><path id="path9141" fill="url(#linearGradient12666)" fill-opacity="1" fill-rule="evenodd" stroke="#000" stroke-dasharray="none" stroke-linecap="round" stroke-linejoin="miter" stroke-miterlimit="4" stroke-opacity="1" stroke-width="8" d="M 243.122,154.712 C 260.8036,154.712 260.8036,154.712 260.8036,154.712" display="inline"/><path id="path9143" fill="url(#linearGradient12666)" fill-opacity="1" fill-rule="evenodd" stroke="#000" stroke-dasharray="none" stroke-linecap="round" stroke-linejoin="miter" stroke-miterlimit="4" stroke-opacity="1" stroke-width="8" d="M 243.122,167.9732 C 260.8036,167.9732 260.8036,167.9732 260.8036,167.9732" display="inline"/><path id="path9145" fill="url(#linearGradient12666)" fill-opacity="1" fill-rule="evenodd" stroke="#000" stroke-dasharray="none" stroke-linecap="round" stroke-linejoin="miter" stroke-miterlimit="4" stroke-opacity="1" stroke-width="8" d="M 243.122,181.2344 C 260.8036,181.2344 260.8036,181.2344 260.8036,181.2344" display="inline"/><path id="path9147" fill="url(#linearGradient12666)" fill-opacity="1" fill-rule="evenodd" stroke="#000" stroke-dasharray="none" stroke-linecap="round" stroke-linejoin="miter" stroke-miterlimit="4" stroke-opacity="1" stroke-width="8" d="M 243.122,194.4956 C 260.8036,194.4956 260.8036,194.4956 260.8036,194.4956" display="inline"/><path id="path9149" fill="url(#linearGradient12666)" fill-opacity="1" fill-rule="evenodd" stroke="#000" stroke-dasharray="none" stroke-linecap="round" stroke-linejoin="miter" stroke-miterlimit="4" stroke-opacity="1" stroke-width="8" d="M 247.5424,207.7568 C 265.224,207.7568 265.224,207.7568 265.224,207.7568" display="inline"/><path id="path9151" fill="url(#linearGradient12666)" fill-opacity="1" fill-rule="evenodd" stroke="#000" stroke-dasharray="none" stroke-linecap="round" stroke-linejoin="miter" stroke-miterlimit="4" stroke-opacity="1" stroke-width="8" d="M 247.5424,221.018 C 265.224,221.018 265.224,221.018 265.224,221.018" display="inline"/></g></g></svg>