<svg xmlns="http://www.w3.org/2000/svg" xmlns:svg="http://www.w3.org/2000/svg" xmlns:xlink="http://www.w3.org/1999/xlink" id="svg2" width="353.63" height="353.63" version="1.0"><defs id="defs4"><linearGradient id="linearGradient13608"><stop id="stop13610" offset="0" stop-color="#ffffe6" stop-opacity="1"/><stop id="stop13612" offset="1" stop-color="#ffffe6" stop-opacity="0"/></linearGradient><linearGradient id="linearGradient13598"><stop id="stop13600" offset="0" stop-color="#ffffe6" stop-opacity="1"/><stop id="stop13602" offset="1" stop-color="#ffffe6" stop-opacity="0"/></linearGradient><linearGradient id="linearGradient13590"><stop id="stop13592" offset="0" stop-color="#ffffe6" stop-opacity="1"/><stop id="stop13594" offset="1" stop-color="#ffffe6" stop-opacity="0"/></linearGradient><linearGradient id="linearGradient13580"><stop id="stop13582" offset="0" stop-color="#ffffe6" stop-opacity="1"/><stop id="stop13584" offset="1" stop-color="#ffffe6" stop-opacity="0"/></linearGradient><linearGradient id="linearGradient12422"><stop id="stop12424" offset="0" stop-color="#fff" stop-opacity=".523"/><stop id="stop12426" offset="1" stop-color="#d7a127" stop-opacity=".522"/></linearGradient><linearGradient id="linearGradient12348"><stop id="stop12350" offset="0" stop-color="#d7a127" stop-opacity=".522"/><stop id="stop12352" offset="1" stop-color="#ffffe6" stop-opacity="0"/></linearGradient><linearGradient id="linearGradient12236"><stop id="stop12238" offset="0" stop-color="#d7a127" stop-opacity=".522"/><stop id="stop12240" offset="1" stop-color="#ffffe6" stop-opacity="0"/></linearGradient><linearGradient id="linearGradient12228"><stop id="stop12230" offset="0" stop-color="#d7a127" stop-opacity=".522"/><stop id="stop12232" offset="1" stop-color="#ffffe6" stop-opacity="0"/></linearGradient><linearGradient id="linearGradient12220"><stop id="stop12222" offset="0" stop-color="#d7a127" stop-opacity=".522"/><stop id="stop12224" offset="1" stop-color="#ffffe6" stop-opacity="0"/></linearGradient><linearGradient id="linearGradient12212"><stop id="stop12214" offset="0" stop-color="#d7a127" stop-opacity=".522"/><stop id="stop12216" offset="1" stop-color="#ffffe6" stop-opacity="0"/></linearGradient><linearGradient id="linearGradient12204"><stop id="stop12206" offset="0" stop-color="#d7a127" stop-opacity=".522"/><stop id="stop12208" offset="1" stop-color="#ffffe6" stop-opacity="0"/></linearGradient><linearGradient id="linearGradient12196"><stop id="stop12198" offset="0" stop-color="#d7a127" stop-opacity=".522"/><stop id="stop12200" offset="1" stop-color="#ffffe6" stop-opacity="0"/></linearGradient><linearGradient id="linearGradient12182"><stop id="stop12184" offset="0" stop-color="#d7a127" stop-opacity=".672"/><stop id="stop12186" offset="1" stop-color="#ffffe6" stop-opacity="0"/></linearGradient><linearGradient id="linearGradient6431"><stop id="stop6433" offset="0" stop-color="#faff82" stop-opacity="1"/><stop id="stop6435" offset="1" stop-color="#faff82" stop-opacity="0"/></linearGradient><linearGradient id="linearGradient3693"><stop id="stop3695" offset="0" stop-color="#ffff82" stop-opacity="1"/><stop id="stop3697" offset="1" stop-color="#ffff82" stop-opacity="0"/></linearGradient><linearGradient id="linearGradient3645"><stop id="stop3649" offset="0" stop-color="#ffff23" stop-opacity=".498"/><stop id="stop3651" offset="1" stop-color="#ffff23" stop-opacity="0"/></linearGradient><linearGradient id="linearGradient3635"><stop id="stop3637" offset="0" stop-color="#ffff23" stop-opacity="1"/><stop id="stop3643" offset=".5" stop-color="#ffff23" stop-opacity=".498"/><stop id="stop3639" offset="1" stop-color="#ffff23" stop-opacity="0"/></linearGradient><linearGradient id="linearGradient3721" x1="212.179" x2="145.873" y1="114.928" y2="79.565" gradientUnits="userSpaceOnUse" xlink:href="#linearGradient3693"/><linearGradient id="linearGradient6449" x1="207.759" x2="150.294" y1="203.336" y2="150.292" gradientTransform="translate(35.3632,-0.8407951)" gradientUnits="userSpaceOnUse" xlink:href="#linearGradient6431"/><linearGradient id="linearGradient6461" x1="207.759" x2="150.294" y1="203.336" y2="150.292" gradientTransform="translate(32,0)" gradientUnits="userSpaceOnUse" xlink:href="#linearGradient6431"/><linearGradient id="linearGradient12188" x1="194.659" x2="75.567" y1="262.591" y2="229.685" gradientUnits="userSpaceOnUse" xlink:href="#linearGradient12182"/><linearGradient id="linearGradient12190" x1="194.659" x2="75.567" y1="262.591" y2="229.685" gradientUnits="userSpaceOnUse" xlink:href="#linearGradient12182"/><linearGradient id="linearGradient12192" x1="194.659" x2="75.567" y1="262.591" y2="229.685" gradientUnits="userSpaceOnUse" xlink:href="#linearGradient12182"/><linearGradient id="linearGradient12194" x1="194.659" x2="75.567" y1="262.591" y2="229.685" gradientUnits="userSpaceOnUse" xlink:href="#linearGradient12182"/><linearGradient id="linearGradient12202" x1="254.447" x2="231.273" y1="163.606" y2="148.311" gradientUnits="userSpaceOnUse" xlink:href="#linearGradient12196"/><linearGradient id="linearGradient12210" x1="222.004" x2="199.293" y1="158.508" y2="143.677" gradientUnits="userSpaceOnUse" xlink:href="#linearGradient12204"/><linearGradient id="linearGradient12218" x1="182.145" x2="159.555" y1="161.752" y2="146.921" gradientUnits="userSpaceOnUse" xlink:href="#linearGradient12212"/><linearGradient id="linearGradient12226" x1="147.848" x2="115.868" y1="153.873" y2="140.896" gradientUnits="userSpaceOnUse" xlink:href="#linearGradient12220"/><linearGradient id="linearGradient12234" x1="114.478" x2="81.108" y1="167.314" y2="155.263" gradientUnits="userSpaceOnUse" xlink:href="#linearGradient12228"/><linearGradient id="linearGradient13586" x1="104.941" x2="249.675" y1="236.177" y2="236.177" gradientUnits="userSpaceOnUse" xlink:href="#linearGradient13580"/><linearGradient id="linearGradient13614" x1="44.147" x2="79.147" y1="67.764" y2="83.986" gradientUnits="userSpaceOnUse" xlink:href="#linearGradient13608"/><linearGradient id="linearGradient14068" x1="163.25" x2="179.449" y1="56.115" y2="64.094" gradientUnits="userSpaceOnUse" xlink:href="#linearGradient12422"/><linearGradient id="linearGradient14070" x1="153.082" x2="200.708" y1="42.739" y2="55.253" gradientUnits="userSpaceOnUse" xlink:href="#linearGradient13590"/><linearGradient id="linearGradient14072" x1="218.505" x2="266.288" y1="39.859" y2="59.325" gradientUnits="userSpaceOnUse" xlink:href="#linearGradient13598"/><linearGradient id="linearGradient14074" x1="115.405" x2="74.517" y1="61.178" y2="50.422" gradientUnits="userSpaceOnUse" xlink:href="#linearGradient12236"/></defs><metadata id="metadata7"/><g id="layer1" display="inline"><rect id="rect11571" width="221.02" height="13.261" x="66.306" y="305.846" fill="#fff" fill-opacity="1" fill-rule="nonzero" stroke="#000" stroke-dasharray="none" stroke-linecap="butt" stroke-linejoin="miter" stroke-miterlimit="4" stroke-opacity="1" stroke-width="8" display="inline"/><rect id="rect11573" width="212.179" height="17.682" x="70.726" y="287.744" fill="#fff" fill-opacity="1" fill-rule="nonzero" stroke="#000" stroke-dasharray="none" stroke-linecap="butt" stroke-linejoin="round" stroke-miterlimit="4" stroke-opacity="1" stroke-width="8" display="inline"/><path id="path11575" fill="#fff" fill-opacity="1" fill-rule="evenodd" stroke="#000" stroke-dasharray="none" stroke-linecap="butt" stroke-linejoin="miter" stroke-miterlimit="4" stroke-opacity="1" stroke-width="8" d="M 274.0648,286.90359 C 185.6568,286.90359 176.816,286.90359 79.567195,286.90359 C 92.828395,273.64239 110.51,255.96079 106.0896,238.27919 C 159.1344,238.27919 119.3508,238.27919 176.816,238.27919 C 234.2812,238.27919 225.4404,238.27919 247.5424,238.27919 C 243.122,255.96079 260.8036,273.64239 274.0648,286.90359 z" display="inline"/><path id="path11577" fill="#fff" fill-opacity="1" fill-rule="evenodd" stroke="#000" stroke-dasharray="none" stroke-linecap="round" stroke-linejoin="miter" stroke-miterlimit="4" stroke-opacity="1" stroke-width="7.059" d="M 108.47025,236.17719 C 246.14492,236.17719 246.14492,236.17719 246.14492,236.17719" display="inline"/><path id="path11579" fill="#fff" fill-opacity="1" fill-rule="nonzero" stroke="#000" stroke-dasharray="none" stroke-miterlimit="4" stroke-opacity="1" stroke-width="8" d="M 194.4976,64.093803 A 19.8918,19.8918 0 1 1 154.714,64.093803 A 19.8918,19.8918 0 1 1 194.4976,64.093803 z" display="inline" transform="translate(2.2101956,-8.8407986)"/><path id="path11589" fill="#fff" fill-opacity="1" fill-rule="evenodd" stroke="#000" stroke-dasharray="none" stroke-linecap="butt" stroke-linejoin="miter" stroke-miterlimit="4" stroke-opacity="1" stroke-width="8" d="M 176.815,78.458738 C 172.3956,119.3488 167.9752,148.916 163.5548,184.2792 C 172.3956,184.2792 167.9752,184.2792 176.816,184.2792 C 185.6568,184.2792 181.2364,184.2792 190.0772,184.2792 C 185.6568,148.916 181.2364,119.3488 176.815,78.458738 z" display="inline"/><path id="path11591" fill="#fff" fill-opacity="1" fill-rule="evenodd" stroke="#000" stroke-dasharray="none" stroke-linecap="butt" stroke-linejoin="miter" stroke-miterlimit="4" stroke-opacity="1" stroke-width="8" d="M 238.7016,79.565205 C 225.4404,119.3488 203.3384,148.916 195.37237,183.93422 C 204.21317,183.93422 199.79277,183.93422 208.63357,183.93422 C 217.47437,183.93422 213.05397,183.93422 221.89477,183.93422 C 225.4404,148.916 234.2812,123.7692 238.7016,79.565205 z" display="inline"/><path id="path11593" fill="#fff" fill-opacity="1" fill-rule="evenodd" stroke="#000" stroke-dasharray="none" stroke-linecap="butt" stroke-linejoin="miter" stroke-miterlimit="4" stroke-opacity="1" stroke-width="8" d="M 291.7464,101.6672 C 269.6444,141.4508 239.122,150.916 222.66218,185.03242 C 231.50298,185.03242 227.08258,185.03242 235.92338,185.03242 C 244.76418,185.03242 240.34378,185.03242 249.18458,185.03242 C 261.224,150.916 278.4852,145.8712 291.7464,101.6672 z" display="inline"/><path id="path11595" fill="#fff" fill-opacity="1" fill-rule="evenodd" stroke="#000" stroke-dasharray="none" stroke-linecap="butt" stroke-linejoin="miter" stroke-miterlimit="4" stroke-opacity="1" stroke-width="8" d="M 114.9304,79.565205 C 119.3508,123.7692 128.1916,148.916 132.66218,185.03242 C 141.50298,185.03242 137.08258,185.03242 145.92338,185.03242 C 154.76418,185.03242 150.34378,185.03242 159.18458,185.03242 C 145.8732,144.4956 123.7712,119.3488 114.9304,79.565205 z" display="inline"/><path id="path11597" fill="#fff" fill-opacity="1" fill-rule="evenodd" stroke="#000" stroke-dasharray="none" stroke-linecap="butt" stroke-linejoin="miter" stroke-miterlimit="4" stroke-opacity="1" stroke-width="8" d="M 61.8856,101.6672 C 75.1468,150.2916 92.408,144.4956 104.66218,185.03242 C 113.50298,185.03242 109.08258,185.03242 117.92338,185.03242 C 126.76418,185.03242 122.34378,185.03242 131.18458,185.03242 C 114.51,148.916 79.5672,141.4508 61.8856,101.6672 z" display="inline"/><rect id="rect11599" width="148.826" height="45.888" x="102.403" y="189.658" fill="#fff" fill-opacity="1" fill-rule="nonzero" stroke="#000" stroke-dasharray="none" stroke-linejoin="bevel" stroke-miterlimit="4" stroke-opacity="1" stroke-width="8" display="inline"/><path id="path12142" fill="#fff" fill-opacity="1" fill-rule="nonzero" stroke="#000" stroke-dasharray="none" stroke-miterlimit="4" stroke-opacity="1" stroke-width="8" d="M 194.4976,64.093803 A 19.8918,19.8918 0 1 1 154.714,64.093803 A 19.8918,19.8918 0 1 1 194.4976,64.093803 z" display="inline" transform="translate(-59.200991,-2.915355)"/><path id="path12144" fill="#fff" fill-opacity="1" fill-rule="nonzero" stroke="#000" stroke-dasharray="none" stroke-miterlimit="4" stroke-opacity="1" stroke-width="8" d="M 194.4976,64.093803 A 19.8918,19.8918 0 1 1 154.714,64.093803 A 19.8918,19.8918 0 1 1 194.4976,64.093803 z" display="inline" transform="translate(-118.98903,19.331356)"/><path id="path12146" fill="#fff" fill-opacity="1" fill-rule="nonzero" stroke="#000" stroke-dasharray="none" stroke-miterlimit="4" stroke-opacity="1" stroke-width="8" d="M 194.4976,64.093803 A 19.8918,19.8918 0 1 1 154.714,64.093803 A 19.8918,19.8918 0 1 1 194.4976,64.093803 z" display="inline" transform="translate(67.790652,-4.7692476)"/><path id="path12148" fill="#fff" fill-opacity="1" fill-rule="nonzero" stroke="#000" stroke-dasharray="none" stroke-miterlimit="4" stroke-opacity="1" stroke-width="8" d="M 194.4976,64.093803 A 19.8918,19.8918 0 1 1 154.714,64.093803 A 19.8918,19.8918 0 1 1 194.4976,64.093803 z" display="inline" transform="translate(123.40743,22.112195)"/></g><g id="layer2" display="inline"><rect id="rect3284" width="221.02" height="13.261" x="66.306" y="305.846" fill="url(#linearGradient12188)" fill-opacity="1" fill-rule="nonzero" stroke="#000" stroke-dasharray="none" stroke-linecap="butt" stroke-linejoin="miter" stroke-miterlimit="4" stroke-opacity="1" stroke-width="8" display="inline"/><rect id="rect3288" width="212.179" height="17.682" x="70.726" y="287.744" fill="url(#linearGradient12190)" fill-opacity="1" fill-rule="nonzero" stroke="#000" stroke-dasharray="none" stroke-linecap="butt" stroke-linejoin="round" stroke-miterlimit="4" stroke-opacity="1" stroke-width="8" display="inline"/><path id="path2481" fill="url(#linearGradient12192)" fill-opacity="1" fill-rule="evenodd" stroke="#000" stroke-dasharray="none" stroke-linecap="butt" stroke-linejoin="miter" stroke-miterlimit="4" stroke-opacity="1" stroke-width="8" d="M 274.0648,286.90359 C 185.6568,286.90359 176.816,286.90359 79.567195,286.90359 C 92.828395,273.64239 110.51,255.96079 106.0896,238.27919 C 159.1344,238.27919 119.3508,238.27919 176.816,238.27919 C 234.2812,238.27919 225.4404,238.27919 247.5424,238.27919 C 243.122,255.96079 260.8036,273.64239 274.0648,286.90359 z" display="inline"/><path id="path3253" fill="url(#linearGradient13586)" fill-opacity="1" fill-rule="evenodd" stroke="#000" stroke-dasharray="none" stroke-linecap="round" stroke-linejoin="miter" stroke-miterlimit="4" stroke-opacity="1" stroke-width="7.059" d="M 108.47025,236.17719 C 246.14492,236.17719 246.14492,236.17719 246.14492,236.17719" display="inline"/><path id="path4206" fill="url(#linearGradient14068)" fill-opacity="1" fill-rule="nonzero" stroke="#000" stroke-dasharray="none" stroke-miterlimit="4" stroke-opacity="1" stroke-width="8" d="M 194.4976,64.093803 A 19.8918,19.8918 0 1 1 154.714,64.093803 A 19.8918,19.8918 0 1 1 194.4976,64.093803 z" transform="translate(2.2101956,-8.8407986)"/><use id="use6409" width="353.63" height="353.63" x="0" y="0" fill="url(#linearGradient14070)" fill-opacity="1" transform="translate(65.580456,4.071551)" xlink:href="#path4206"/><use id="use6411" width="353.63" height="353.63" x="0" y="0" fill="url(#linearGradient14072)" fill-opacity="1" transform="translate(-126.99164,1.8538926)" xlink:href="#use6409"/><use id="use6413" width="353.63" height="353.63" x="0" y="0" fill="url(#linearGradient14074)" fill-opacity="1" transform="translate(-60.149817,22.807157)" xlink:href="#use6411"/><use id="use6415" width="353.63" height="353.63" x="0" y="0" fill="url(#linearGradient13614)" fill-opacity="1" transform="translate(242.75824,2.2203934)" xlink:href="#use6413"/><path id="path6417" fill="url(#linearGradient12218)" fill-opacity="1" fill-rule="evenodd" stroke="#000" stroke-dasharray="none" stroke-linecap="butt" stroke-linejoin="miter" stroke-miterlimit="4" stroke-opacity="1" stroke-width="8" d="M 176.815,78.458738 C 172.3956,119.3488 167.9752,148.916 163.5548,184.2792 C 172.3956,184.2792 167.9752,184.2792 176.816,184.2792 C 185.6568,184.2792 181.2364,184.2792 190.0772,184.2792 C 185.6568,148.916 181.2364,119.3488 176.815,78.458738 z"/><path id="path6463" fill="url(#linearGradient12210)" fill-opacity="1" fill-rule="evenodd" stroke="#000" stroke-dasharray="none" stroke-linecap="butt" stroke-linejoin="miter" stroke-miterlimit="4" stroke-opacity="1" stroke-width="8" d="M 238.7016,79.565205 C 225.4404,119.3488 203.3384,148.916 195.37237,183.93422 C 204.21317,183.93422 199.79277,183.93422 208.63357,183.93422 C 217.47437,183.93422 213.05397,183.93422 221.89477,183.93422 C 225.4404,148.916 234.2812,123.7692 238.7016,79.565205 z" display="inline"/><path id="path6467" fill="url(#linearGradient12202)" fill-opacity="1" fill-rule="evenodd" stroke="#000" stroke-dasharray="none" stroke-linecap="butt" stroke-linejoin="miter" stroke-miterlimit="4" stroke-opacity="1" stroke-width="8" d="M 291.7464,101.6672 C 269.6444,141.4508 239.122,150.916 222.66218,185.03242 C 231.50298,185.03242 227.08258,185.03242 235.92338,185.03242 C 244.76418,185.03242 240.34378,185.03242 249.18458,185.03242 C 261.224,150.916 278.4852,145.8712 291.7464,101.6672 z" display="inline"/><path id="path6471" fill="url(#linearGradient12226)" fill-opacity="1" fill-rule="evenodd" stroke="#000" stroke-dasharray="none" stroke-linecap="butt" stroke-linejoin="miter" stroke-miterlimit="4" stroke-opacity="1" stroke-width="8" d="M 114.9304,79.565205 C 119.3508,123.7692 128.1916,148.916 132.66218,185.03242 C 141.50298,185.03242 137.08258,185.03242 145.92338,185.03242 C 154.76418,185.03242 150.34378,185.03242 159.18458,185.03242 C 145.8732,144.4956 123.7712,119.3488 114.9304,79.565205 z" display="inline"/><path id="path6475" fill="url(#linearGradient12234)" fill-opacity="1" fill-rule="evenodd" stroke="#000" stroke-dasharray="none" stroke-linecap="butt" stroke-linejoin="miter" stroke-miterlimit="4" stroke-opacity="1" stroke-width="8" d="M 61.8856,101.6672 C 75.1468,150.2916 92.408,144.4956 104.66218,185.03242 C 113.50298,185.03242 109.08258,185.03242 117.92338,185.03242 C 126.76418,185.03242 122.34378,185.03242 131.18458,185.03242 C 114.51,148.916 79.5672,141.4508 61.8856,101.6672 z" display="inline"/><rect id="rect6479" width="148.826" height="45.888" x="102.403" y="189.658" fill="url(#linearGradient12194)" fill-opacity="1" fill-rule="nonzero" stroke="#000" stroke-dasharray="none" stroke-linejoin="bevel" stroke-miterlimit="4" stroke-opacity="1" stroke-width="8"/></g></svg>