<svg xmlns="http://www.w3.org/2000/svg" xmlns:cc="http://web.resource.org/cc/" xmlns:xlink="http://www.w3.org/1999/xlink" id="svg1710" width="153.333" height="153.333" x="0" y="0" version="1.0"><metadata id="metadata2342"/><defs id="defs3"><linearGradient id="linearGradient1689"><stop id="stop1690" offset="0" stop-color="#b2b2b2" stop-opacity="1"/><stop id="stop1691" offset="1" stop-color="#fff" stop-opacity="1"/></linearGradient><linearGradient id="linearGradient3006"><stop id="stop3007" offset="0" stop-color="#000" stop-opacity="1"/><stop id="stop3008" offset="1" stop-color="#4e4e4e" stop-opacity="1"/></linearGradient><linearGradient id="linearGradient3522" x1="654.755" x2="780.58" y1="89.639" y2="89.639" gradientTransform="matrix(0.912643,0.000000,0.000000,0.930004,-575.3452,-14.50745)" gradientUnits="userSpaceOnUse" xlink:href="#linearGradient3006"/><linearGradient id="linearGradient2464" x1="654.755" x2="780.58" y1="89.639" y2="89.639" gradientTransform="matrix(0.990622,0.000000,0.000000,1.009466,-39.18608,-19.23569)" gradientUnits="userSpaceOnUse" xlink:href="#linearGradient3006"/><linearGradient id="linearGradient2465" x1="700.986" x2="750.105" y1="67.151" y2="67.151" gradientTransform="scale(0.926097,1.079801)" gradientUnits="userSpaceOnUse" xlink:href="#linearGradient1689"/><linearGradient id="linearGradient1932" x1="654.755" x2="780.58" y1="89.639" y2="89.639" gradientTransform="matrix(0.990622,0.000000,0.000000,1.009466,-39.18608,-19.23569)" gradientUnits="userSpaceOnUse" xlink:href="#linearGradient3006"/><linearGradient id="linearGradient1933" x1="700.986" x2="750.105" y1="67.151" y2="67.151" gradientTransform="scale(0.926097,1.079801)" gradientUnits="userSpaceOnUse" xlink:href="#linearGradient1689"/></defs><path id="path1862" fill="#000" fill-opacity=".251" stroke="none" stroke-opacity="1" d="M 17.063410,133.95611 C 14.867210,130.54347 12.932490,127.45965 12.764030,127.10318 C 12.595570,126.74670 15.067460,124.95578 18.257120,123.12337 L 24.056500,119.79172 L 43.056500,119.77152 C 58.679970,119.75491 62.576900,119.46318 64.984850,118.12993 L 67.913210,116.50853 L 58.984850,115.25009 C 48.417130,113.76059 45.556500,112.81730 45.556500,110.82213 C 45.556500,110.00885 46.904950,105.18322 48.553060,100.09851 L 51.549630,90.853572 L 49.216700,88.302442 C 41.062720,79.385812 38.220570,65.720032 42.623310,56.599792 C 45.720480,50.184042 52.323470,43.244211 61.764810,36.481851 L 69.473130,30.960761 L 67.514810,28.471171 C 64.503660,24.643111 64.995280,20.612521 68.956500,16.651301 C 73.569920,12.037881 77.543080,12.037881 82.156495,16.651301 C 86.123735,20.618541 86.608805,24.643781 83.583165,28.490261 L 81.609845,30.998931 L 87.833165,35.332951 C 99.592647,43.522441 102.85008,45.572532 108.49400,55.297492 C 113.73936,64.335702 109.69131,75.601282 107.16692,80.333972 C 105.57765,83.313502 103.21670,86.899322 101.92036,88.302442 L 99.563367,90.853572 L 102.55993,100.09851 C 104.20805,105.18322 105.55650,110.00885 105.55650,110.82213 C 105.55650,112.61445 102.70811,113.75970 96.056495,114.64179 C 93.306495,115.00647 89.281865,115.57208 87.112875,115.89869 L 83.169265,116.49254 L 86.112875,118.12193 C 88.543445,119.46733 92.368075,119.75132 108.05650,119.75132 C 126.39174,119.75132 127.19645,119.83605 131.05650,122.17310 C 139.01952,126.99427 138.92985,126.62142 133.86779,133.86275 C 130.06578,139.30159 129.01363,140.21568 127.20467,139.65161 C 126.02318,139.28319 124.73238,138.47991 124.33623,137.86654 C 123.84248,137.10205 118.34828,136.83151 106.86633,137.00630 C 90.390965,137.25710 87.159735,136.85507 79.436280,133.59344 C 76.013260,132.14789 75.420840,132.20718 68.560570,134.68182 C 61.674550,137.16574 60.458540,137.28507 44.680790,137.02517 C 30.174130,136.78620 27.741550,136.97424 25.583990,138.50132 C 24.224110,139.46382 22.649110,140.23097 22.083990,140.20611 C 21.518870,140.18124 19.259610,137.36874 17.063410,133.95611 z"/><g id="g1867" transform="translate(-0.500047,0.500028)"><path id="path3502" fill="url(#linearGradient1932)" fill-opacity="1" stroke="none" stroke-opacity="1" d="M 613.73675,128.50867 C 611.54055,125.09603 609.60583,122.01221 609.43737,121.65574 C 609.26891,121.29926 611.74080,119.50834 614.93046,117.67593 L 620.72984,114.34428 L 639.72984,114.32408 C 655.35331,114.30747 659.25024,114.01574 661.65819,112.68249 L 664.58655,111.06109 L 655.65819,109.80265 C 645.09047,108.31315 642.22984,107.36986 642.22984,105.37469 C 642.22984,104.56141 643.57829,99.735778 645.22640,94.651068 L 648.22297,85.406138 L 645.89004,82.855008 C 637.73606,73.938378 634.89391,60.272598 639.29665,51.152358 C 642.39382,44.736608 648.99681,37.796778 658.43815,31.034418 L 666.14647,25.513328 L 664.18815,23.023738 C 661.17700,19.195678 661.66862,15.165088 665.62984,11.203868 C 670.24326,6.5904481 674.21642,6.5904481 678.82984,11.203868 C 682.79708,15.171108 683.28215,19.196348 680.25651,23.042828 L 678.28319,25.551498 L 684.50651,29.885518 C 696.26599,38.075008 699.52342,40.125098 705.16734,49.850058 C 710.41270,58.888268 706.36465,70.153848 703.84026,74.886538 C 702.25099,77.866068 699.89004,81.451888 698.59370,82.855008 L 696.23671,85.406138 L 699.23327,94.651068 C 700.88139,99.735778 702.22984,104.56141 702.22984,105.37469 C 702.22984,107.16701 699.38145,108.31226 692.72984,109.19435 C 689.97984,109.55903 685.95521,110.12464 683.78622,110.45125 L 679.84261,111.04510 L 682.78622,112.67449 C 685.21679,114.01989 689.04142,114.30388 704.72984,114.30388 C 723.06508,114.30388 723.86979,114.38861 727.72984,116.72566 C 735.69286,121.54683 735.60319,121.17398 730.54113,128.41531 C 726.73912,133.85415 725.68697,134.76824 723.87801,134.20417 C 722.69652,133.83575 721.40572,133.03247 721.00957,132.41910 C 720.51582,131.65461 715.02162,131.38407 703.53967,131.55886 C 687.06431,131.80966 683.83308,131.40763 676.10962,128.14600 C 672.68660,126.70045 672.09418,126.75974 665.23391,129.23438 C 658.34789,131.71830 657.13188,131.83763 641.35413,131.57773 C 626.84747,131.33876 624.41489,131.52680 622.25733,133.05388 C 620.89745,134.01638 619.32245,134.78353 618.75733,134.75867 C 618.19221,134.73380 615.93295,131.92130 613.73675,128.50867 z" transform="translate(-599.7166,1.404100)"/><path id="path3504" fill="url(#linearGradient1933)" fill-opacity="1" d="M 649.48412,98.191093 C 647.94521,95.701073 651.94790,94.978963 668.96850,94.675973 C 687.72910,94.342013 694.66952,95.114303 694.66952,97.535833 C 694.66952,98.764913 691.20039,98.996843 672.34699,99.028223 C 660.06960,99.048663 649.78131,98.671953 649.48412,98.191093 z M 654.96184,85.741073 C 654.23609,84.866433 654.29846,84.040643 655.16952,82.991073 C 657.03097,80.748163 687.33939,80.785903 689.20469,83.033453 C 691.66553,85.998573 688.77480,86.642293 672.20676,86.818603 C 660.28292,86.945483 655.72490,86.660683 654.96184,85.741073 z M 670.85702,70.845243 C 670.47889,70.467113 670.16952,68.006253 670.16952,65.376663 L 670.16952,60.595593 L 664.91952,60.293333 C 661.05386,60.070773 659.66952,59.595553 659.66952,58.491073 C 659.66952,57.388593 661.04747,56.911433 664.86901,56.690563 L 670.06850,56.390053 L 670.36901,51.190563 C 670.58988,47.369023 671.06704,45.991073 672.16952,45.991073 C 673.27200,45.991073 673.74916,47.369023 673.97003,51.190563 L 674.27054,56.390053 L 679.47003,56.690563 C 683.29157,56.911433 684.66952,57.388593 684.66952,58.491073 C 684.66952,59.593553 683.29157,60.070713 679.47003,60.291583 L 674.27054,60.592093 L 673.97003,65.712973 C 673.69028,70.480143 672.48274,72.470953 670.85702,70.845243 z" transform="translate(-599.7166,1.404100)"/></g></svg>