<svg xmlns="http://www.w3.org/2000/svg" xmlns:cc="http://web.resource.org/cc/" xmlns:svg="http://www.w3.org/2000/svg" id="svg2" width="83.39" height="83.39" version="1.0"><metadata id="metadata7"/><g id="layer1" transform="translate(472.0828,-784.41402)"><g id="g2166" transform="matrix(0.7071068,-0.7071068,0.7071068,0.7071068,-717.72068,-71.564421)"><path id="path2170" fill="#babdb6" fill-opacity="1" stroke="none" stroke-dasharray="none" stroke-linecap="round" stroke-linejoin="miter" stroke-miterlimit="4" stroke-opacity="1" stroke-width="20" d="M 88.75,40 C 89.57251,43.194385 90,46.55 90,50 C 89.999992,72.08 72.08,90 50,90 C 46.55,90 43.194385,89.57251 40,88.75 L 40,98.96875 C 43.235202,99.627148 46.571327,100 50,100 C 77.599999,100 100,77.6 100,50 C 100,46.571327 99.627148,43.235201 98.96875,40 L 88.75,40 z" opacity="1" transform="translate(-495.71429,773.79075)"/><path id="path2166" fill="#888a85" fill-opacity="1" stroke="none" stroke-dasharray="none" stroke-linecap="round" stroke-linejoin="miter" stroke-miterlimit="4" stroke-opacity="1" stroke-width="20" d="M 67.3125,40 C 69.018266,42.943891 70,46.355043 70,50 C 70.000002,61.04 61.04,70 50,70 C 46.355043,70 42.943891,69.018266 40,67.3125 L 40,78.28125 C 43.130374,79.389764 46.49135,80 50,80 C 66.559999,80 79.99999,66.56 80,50 C 80.000001,46.49135 79.389764,43.130374 78.28125,40 L 67.3125,40 z" opacity="1" transform="translate(-495.71429,773.79075)"/><path id="path2160" fill="#c00" fill-opacity="1" stroke="none" stroke-dasharray="none" stroke-linecap="round" stroke-linejoin="miter" stroke-miterlimit="4" stroke-opacity="1" stroke-width="20" d="M 195.9696 543.75037 A 11.616755 10.606602 0 1 1 172.73609,543.75037 A 11.616755 10.606602 0 1 1 195.9696 543.75037 z" opacity="1" transform="matrix(0.8608256,0,0,0.942809,-604.40994,311.12519)"/></g></g></svg>