<svg xmlns="http://www.w3.org/2000/svg" xmlns:svg="http://www.w3.org/2000/svg" id="svg2985" width="480" height="480" version="1.1"><title id="title3680">Black Bishop</title><metadata id="metadata2990"/><g id="layer1"><path font-style="normal" style="text-align:start;line-height:125%;-inkscape-font-specification:chess Bold" id="text3456" fill="#000" fill-opacity="1" stroke="none" d="m 238.375,55.15625 -50.71875,52.90625 70.15625,91.78125 c 8.09658,10.79544 11.875,14.56252 11.875,32.375 0,17.81248 -13.48581,32.375 -30.21875,32.375 -16.73294,0 -30.25,-14.56252 -30.25,-32.375 0,-11.87499 3.25,-19.98865 3.25,-28.625 0,-20.51134 -39.41195,-64.21875 -52.90625,-64.21875 -8.63635,0 -30.21875,25.36648 -30.21875,25.90625 -16.19316,14.03408 -38.875,43.7131 -38.875,77.71875 0,46.42041 8.656269,53.98018 26.46875,116.59375 C 154.72155,340.70172 197.35232,331 238.375,331 c 41.02268,0.53977 83.6847,9.70172 121.46875,28.59375 17.81248,-62.61357 26.4375,-70.17334 26.4375,-116.59375 0,-34.00565 -23.76138,-62.60513 -38.875,-77.71875 C 346.86648,164.20171 281.017,98.338023 238.375,55.15625 z m 0,331.4375 C 160.64781,386.59375 92.642001,415.73868 50,460 l 380,0 C 387.358,415.73868 316.10219,386.59375 238.375,386.59375 z" font-family="chess" font-size="539.773" font-stretch="normal" font-variant="normal" font-weight="bold" letter-spacing="0" text-anchor="start" word-spacing="0" writing-mode="lr-tb"/></g></svg>