<svg xmlns="http://www.w3.org/2000/svg" xmlns:svg="http://www.w3.org/2000/svg" xmlns:xlink="http://www.w3.org/1999/xlink" id="svg2" width="353.63" height="353.63" version="1.0"><defs id="defs4"><linearGradient id="linearGradient6777"><stop id="stop6779" offset="0" stop-color="#daa520" stop-opacity="1"/><stop id="stop6781" offset="1" stop-color="#daa520" stop-opacity="0"/></linearGradient><linearGradient id="linearGradient3693"><stop id="stop3695" offset="0" stop-color="#ffff82" stop-opacity="1"/><stop id="stop3697" offset="1" stop-color="#ffff82" stop-opacity="0"/></linearGradient><linearGradient id="linearGradient3645"><stop id="stop3649" offset="0" stop-color="#ffff23" stop-opacity=".498"/><stop id="stop3651" offset="1" stop-color="#ffff23" stop-opacity="0"/></linearGradient><linearGradient id="linearGradient3635"><stop id="stop3637" offset="0" stop-color="#ffff23" stop-opacity="1"/><stop id="stop3643" offset=".5" stop-color="#ffff23" stop-opacity=".498"/><stop id="stop3639" offset="1" stop-color="#ffff23" stop-opacity="0"/></linearGradient><linearGradient id="linearGradient3721" x1="212.179" x2="145.873" y1="114.928" y2="79.565" gradientUnits="userSpaceOnUse" xlink:href="#linearGradient3693"/><linearGradient id="linearGradient6783" x1="83.147" x2="298.755" y1="159.898" y2="159.898" gradientTransform="translate(-12.45355,-1.9663499)" gradientUnits="userSpaceOnUse" xlink:href="#linearGradient6777"/></defs><metadata id="metadata7"/><g id="layer4" display="inline"><path id="path6751" fill="#804d00" fill-opacity="1" fill-rule="evenodd" stroke="#000" stroke-linecap="butt" stroke-linejoin="miter" stroke-opacity="1" stroke-width="1" d="m 180.46373,-2.7808296 36.1509,87.1329476 -20.39282,12.050302 11.12336,11.58683 28.73533,10.19641 26.88144,16.22156 19.92935,23.63713 4.63473,23.17365 -6.02515,25.02755 -9.73294,19.46587 -25.95449,31.97965 -40.32216,34.29701 74.1557,0.92695 1.39042,29.77197 -206.245545,0 0,-29.77197 82.961685,-0.46348 -36.1509,-27.80839 -20.85629,-21.78323 -16.221559,-23.63713 -9.269463,-24.1006 -2.317365,-23.17366 7.41557,-20.39282 16.685037,-18.53892 22.24671,-13.9042 28.27186,-11.12335 7.87904,-2.78084 7.41557,-9.732937 -20.85629,-8.805989 z"/></g><g id="layer5" display="inline"><path id="path6751-6" fill="url(#linearGradient6783)" fill-opacity="1" fill-rule="evenodd" stroke="#000" stroke-linecap="butt" stroke-linejoin="miter" stroke-opacity="1" stroke-width="1" d="m 178.7276,-4.4096182 36.1509,87.1329482 -20.39282,12.050303 11.12336,11.586827 28.73533,10.19641 26.88144,16.22156 19.92935,23.63713 4.63473,23.17365 -6.02515,25.02755 -9.73294,19.46587 -25.95449,31.97965 -40.32216,34.29701 74.1557,0.92695 1.39042,29.77197 -206.245541,0 0,-29.77197 82.961681,-0.46348 -36.1509,-27.80839 -20.85629,-21.78323 -16.221561,-23.63713 -9.26946,-24.1006 -2.31737,-23.17366 7.41557,-20.39282 16.685041,-18.53892 22.24671,-13.9042 28.27186,-11.12335 7.87904,-2.78084 7.41557,-9.732935 -20.85629,-8.805989 z" display="inline"/></g><g id="layer1" display="inline" opacity="1"><rect id="rect7395" width="53.299" height="15.295" x="150.226" y="25.379" fill="none" fill-opacity="0" fill-rule="evenodd" stroke="#b50000" stroke-dasharray="none" stroke-miterlimit="4" stroke-opacity="0" stroke-width="21" opacity=".248"/><rect id="rect7397" width="98.536" height="15.384" x="162.136" y="29.601" fill="none" fill-opacity="0" fill-rule="evenodd" stroke="#b50000" stroke-dasharray="none" stroke-miterlimit="4" stroke-opacity="0" stroke-width="15.753" opacity=".248" ry="7.435"/><rect id="rect7399" width="95.012" height="43.103" x="123.344" y="99.534" fill="none" fill-opacity="0" fill-rule="evenodd" stroke="#b50000" stroke-dasharray="none" stroke-miterlimit="4" stroke-opacity="0" stroke-width="21" opacity=".248" ry="7.435"/><use id="use7401" width="100%" height="100%" x="0" y="0" fill="none" transform="translate(-64.903989,-41.89831)" xlink:href="#rect7399"/><use id="use7403" width="100%" height="100%" x="0" y="0" fill="none" transform="translate(-54.630279,-23.322448)" xlink:href="#rect7399"/><use id="use7405" width="100%" height="100%" x="0" y="0" fill="none" transform="translate(-52.875269,-21.039501)" xlink:href="#rect7399"/><use id="use7407" width="100%" height="100%" x="0" y="0" fill="none" transform="translate(-50.010349,-24.881165)" xlink:href="#rect7399"/><use id="use7409" width="100%" height="100%" x="0" y="0" fill="none" transform="translate(-42.702769,-14.078738)" xlink:href="#rect7399"/><use id="use7411" width="100%" height="100%" x="0" y="0" fill="none" transform="translate(-42.829049,-7.8951471)" xlink:href="#rect7399"/><use id="use7413" width="100%" height="100%" x="0" y="0" fill="none" transform="translate(-43.893079,-16.473312)" xlink:href="#rect7399"/><use id="use7415" width="100%" height="100%" x="0" y="0" fill="none" transform="translate(-52.516479,-15.263686)" xlink:href="#rect7399"/><use id="use7417" width="100%" height="100%" x="0" y="0" fill="none" transform="translate(-45.488639,-3.7118887)" xlink:href="#rect7399"/><use id="use7419" width="100%" height="100%" x="0" y="0" fill="none" transform="translate(-52.287659,2.6307273)" xlink:href="#rect7399"/><use id="use7421" width="100%" height="100%" x="0" y="0" fill="none" transform="translate(-49.313999,-6.4787042)" xlink:href="#rect7399"/><use id="use7423" width="100%" height="100%" x="0" y="0" fill="none" transform="translate(-38.175979,15.642167)" xlink:href="#rect7399"/><use id="use7425" width="100%" height="100%" x="0" y="0" fill="none" transform="translate(-41.453329,-4.8573002)" xlink:href="#rect7399"/><use id="use7427" width="100%" height="100%" x="0" y="0" fill="none" transform="translate(-31.740129,6.8546172)" xlink:href="#rect7399"/><use id="use7429" width="100%" height="100%" x="0" y="0" fill="none" transform="translate(-42.463429,30.219905)" xlink:href="#rect7399"/><use id="use7431" width="100%" height="100%" x="0" y="0" fill="none" transform="translate(-33.334479,36.364809)" xlink:href="#rect7399"/><use id="use7433" width="100%" height="100%" x="0" y="0" fill="none" transform="translate(-29.673779,33.820059)" xlink:href="#rect7399"/><use id="use7435" width="100%" height="100%" x="0" y="0" fill="none" transform="translate(-42.849869,30.11827)" xlink:href="#rect7399"/><use id="use7437" width="100%" height="100%" x="0" y="0" fill="none" transform="translate(-36.914329,14.124709)" xlink:href="#rect7399"/><use id="use7439" width="100%" height="100%" x="0" y="0" fill="none" transform="translate(-19.254399,20.987022)" xlink:href="#rect7399"/><use id="use7441" width="100%" height="100%" x="0" y="0" fill="none" transform="translate(-33.871449,39.680308)" xlink:href="#rect7399"/><use id="use7443" width="100%" height="100%" x="0" y="0" fill="none" transform="translate(-20.180309,27.115187)" xlink:href="#rect7399"/><use id="use7445" width="100%" height="100%" x="0" y="0" fill="none" transform="translate(-30.206969,33.953632)" xlink:href="#rect7399"/><use id="use7447" width="100%" height="100%" x="0" y="0" fill="none" transform="translate(-71.992799,-40.853477)" xlink:href="#rect7399"/><use id="use7449" width="100%" height="100%" x="0" y="0" fill="none" transform="translate(-70.188789,-30.745929)" xlink:href="#rect7399"/><use id="use7451" width="100%" height="100%" x="0" y="0" fill="none" transform="translate(-58.965349,-41.130145)" xlink:href="#rect7399"/><use id="use7453" width="100%" height="100%" x="0" y="0" fill="none" transform="translate(-9.9403093,46.363562)" xlink:href="#rect7399"/><use id="use7455" width="100%" height="100%" x="0" y="0" fill="none" transform="translate(-50.307839,1.2081263)" xlink:href="#rect7399"/><use id="use7457" width="100%" height="100%" x="0" y="0" fill="none" transform="translate(-42.353339,-14.111704)" xlink:href="#rect7399"/><use id="use7459" width="100%" height="100%" x="0" y="0" fill="none" transform="translate(-56.755729,-4.9357462)" xlink:href="#rect7399"/><use id="use7461" width="100%" height="100%" x="0" y="0" fill="none" transform="translate(-40.494629,1.2178173)" xlink:href="#rect7399"/><use id="use7463" width="100%" height="100%" x="0" y="0" fill="none" transform="translate(-47.773909,20.269536)" xlink:href="#rect7399"/><use id="use7465" width="100%" height="100%" x="0" y="0" fill="none" transform="translate(-53.656259,11.353041)" xlink:href="#rect7399"/><use id="use7467" width="100%" height="100%" x="0" y="0" fill="none" transform="translate(-41.873219,19.652604)" xlink:href="#rect7399"/><use id="use7469" width="100%" height="100%" x="0" y="0" fill="none" transform="translate(-44.648679,17.511905)" xlink:href="#rect7399"/><use id="use7471" width="100%" height="100%" x="0" y="0" fill="none" transform="translate(-9.8052093,25.749294)" xlink:href="#rect7399"/><use id="use7473" width="100%" height="100%" x="0" y="0" fill="none" transform="translate(-8.8370693,42.959665)" xlink:href="#rect7399"/><use id="use7475" width="100%" height="100%" x="0" y="0" fill="none" transform="translate(-18.669549,37.083324)" xlink:href="#rect7399"/><use id="use7477" width="100%" height="100%" x="0" y="0" fill="none" transform="translate(-22.848009,21.444351)" xlink:href="#rect7399"/><use id="use7479" width="100%" height="100%" x="0" y="0" fill="none" transform="translate(-4.4861493,25.781344)" xlink:href="#rect7399"/><use id="use7481" width="100%" height="100%" x="0" y="0" fill="none" transform="translate(-0.4867393,36.134685)" xlink:href="#rect7399"/><use id="use7483" width="100%" height="100%" x="0" y="0" fill="none" transform="translate(-14.659769,38.821224)" xlink:href="#rect7399"/><use id="use7485" width="100%" height="100%" x="0" y="0" fill="none" transform="translate(10.706171,25.024276)" xlink:href="#rect7399"/><use id="use7487" width="100%" height="100%" x="0" y="0" fill="none" transform="translate(7.7617107,9.6753892)" xlink:href="#rect7399"/><use id="use7489" width="100%" height="100%" x="0" y="0" fill="none" transform="translate(-5.4250993,13.018049)" xlink:href="#rect7399"/><use id="use7491" width="100%" height="100%" x="0" y="0" fill="none" transform="translate(13.752191,19.389891)" xlink:href="#rect7399"/><use id="use7493" width="100%" height="100%" x="0" y="0" fill="none" transform="translate(4.3792307,1.5679133)" xlink:href="#rect7399"/><use id="use7495" width="100%" height="100%" x="0" y="0" fill="none" transform="translate(4.8274407,5.2908642)" xlink:href="#rect7399"/><use id="use7497" width="100%" height="100%" x="0" y="0" fill="none" transform="translate(14.092491,16.743036)" xlink:href="#rect7399"/><use id="use7499" width="100%" height="100%" x="0" y="0" fill="none" transform="translate(6.6919007,19.447885)" xlink:href="#rect7399"/><use id="use7501" width="100%" height="100%" x="0" y="0" fill="none" transform="translate(10.322811,8.8875972)" xlink:href="#rect7399"/><use id="use7503" width="100%" height="100%" x="0" y="0" fill="none" transform="translate(15.825151,9.3716602)" xlink:href="#rect7399"/><use id="use7505" width="100%" height="100%" x="0" y="0" fill="none" transform="translate(30.736051,22.464932)" xlink:href="#rect7399"/><use id="use7507" width="100%" height="100%" x="0" y="0" fill="none" transform="translate(33.254111,16.676737)" xlink:href="#rect7399"/><use id="use7509" width="100%" height="100%" x="0" y="0" fill="none" transform="translate(41.953051,1.6094843)" xlink:href="#rect7399"/><use id="use7511" width="100%" height="100%" x="0" y="0" fill="none" transform="translate(50.700321,4.4116952)" xlink:href="#rect7399"/><use id="use7513" width="100%" height="100%" x="0" y="0" fill="none" transform="translate(45.375101,1.7143633)" xlink:href="#rect7399"/><use id="use7515" width="100%" height="100%" x="0" y="0" fill="none" transform="translate(53.936021,-6.3420522)" xlink:href="#rect7399"/><use id="use7517" width="100%" height="100%" x="0" y="0" fill="none" transform="translate(45.693361,-3.8895887)" xlink:href="#rect7399"/><use id="use7519" width="100%" height="100%" x="0" y="0" fill="none" transform="translate(6.2227207,2.1699073)" xlink:href="#rect7399"/><use id="use7521" width="100%" height="100%" x="0" y="0" fill="none" transform="translate(6.1714007,24.798813)" xlink:href="#rect7399"/><use id="use7523" width="100%" height="100%" x="0" y="0" fill="none" transform="translate(16.744381,3.8861272)" xlink:href="#rect7399"/><use id="use7525" width="100%" height="100%" x="0" y="0" fill="none" transform="translate(5.9882707,7.4498762)" xlink:href="#rect7399"/><use id="use7527" width="100%" height="100%" x="0" y="0" fill="none" transform="translate(34.136021,4.1062142)" xlink:href="#rect7399"/><use id="use7749" width="100%" height="100%" x="0" y="0" transform="translate(-129.20628,-110.14358)" xlink:href="#rect7399"/><use id="use7759" width="100%" height="100%" x="0" y="0" fill="none" transform="translate(75.964581,1.0617493)" xlink:href="#rect7399"/><use id="use7779" width="100%" height="100%" x="0" y="0" fill="none" transform="translate(63.573601,25.081506)" xlink:href="#rect7399"/><use id="use7783" width="100%" height="100%" x="0" y="0" fill="none" transform="translate(52.161131,-57.954229)" xlink:href="#rect7399"/><use id="use7785" width="100%" height="100%" x="0" y="0" fill="none" transform="translate(55.473291,-30.183602)" xlink:href="#rect7399"/><use id="use7787" width="100%" height="100%" x="0" y="0" fill="none" transform="translate(64.050391,-26.10261)" xlink:href="#rect7399"/><use id="use7789" width="100%" height="100%" x="0" y="0" fill="none" transform="translate(44.804371,-45.309833)" xlink:href="#rect7399"/><use id="use7791" width="100%" height="100%" x="0" y="0" fill="none" transform="translate(67.665851,-41.773174)" xlink:href="#rect7399"/><use id="use7793" width="100%" height="100%" x="0" y="0" fill="none" transform="translate(66.862391,-33.135062)" xlink:href="#rect7399"/><use id="use7795" width="100%" height="100%" x="0" y="0" fill="none" transform="translate(44.932041,7.5836812)" xlink:href="#rect7399"/><use id="use7797" width="100%" height="100%" x="0" y="0" fill="none" transform="translate(53.711881,19.022767)" xlink:href="#rect7399"/><use id="use7799" width="100%" height="100%" x="0" y="0" fill="none" transform="translate(54.106181,2.0032623)" xlink:href="#rect7399"/><rect id="rect7843" width="188.77" height="45.226" x="-262.611" y="295.958" fill="#281700" fill-opacity="0" fill-rule="evenodd" stroke="#b50000" stroke-dasharray="none" stroke-miterlimit="4" stroke-opacity="0" stroke-width="21" opacity=".248" ry="7.435"/><path id="path7892" fill="none" fill-opacity="1" fill-rule="evenodd" stroke="#000" stroke-dasharray="none" stroke-linecap="butt" stroke-linejoin="miter" stroke-miterlimit="4" stroke-opacity="1" stroke-width="5" d="m 203.20003,104.45761 c 64.74226,20.21891 84.49536,49.0161 81.69422,77.26596 -3.38984,34.18666 -29.89134,72.02054 -82.53438,108.94"/><path id="path7873-6" fill="none" fill-rule="evenodd" stroke="#000" stroke-linecap="butt" stroke-linejoin="miter" stroke-opacity="1" stroke-width="1.489" d="m 212.51671,287.87316 0,0" display="inline"/><path id="path7942" fill="none" fill-rule="evenodd" stroke="#000" stroke-dasharray="none" stroke-linecap="butt" stroke-linejoin="miter" stroke-miterlimit="4" stroke-opacity="1" stroke-width="5" d="M 139.736,84.934394 178.57789,-7.1604101 215.98782,84.747865"/><path id="path7969" fill="none" fill-rule="evenodd" stroke="#000" stroke-linecap="butt" stroke-linejoin="miter" stroke-opacity="1" stroke-width="1" d="M 44.844829,251.70587 Z"/><path id="path7892-8" fill="none" fill-rule="evenodd" stroke="#000" stroke-dasharray="none" stroke-linecap="butt" stroke-linejoin="miter" stroke-miterlimit="4" stroke-opacity="1" stroke-width="5" d="m 152.1877,104.14917 c -64.742261,20.21891 -83.336671,48.55263 -80.535531,76.8025 3.38984,34.18666 29.891341,72.02053 82.534381,108.94" display="inline"/><rect id="rect7991" width="20.319" height="22.121" x="262.946" y="256.13" fill="none" fill-opacity="0" fill-rule="evenodd" stroke="#b50000" stroke-dasharray="none" stroke-miterlimit="4" stroke-opacity="0" stroke-width="21" opacity=".248" ry=".41"/><rect id="rect8007" width="19.172" height="25.235" x="262.29" y="259.08" fill="none" fill-opacity="0" fill-rule="evenodd" stroke="#b50000" stroke-dasharray="none" stroke-miterlimit="4" stroke-opacity="0" stroke-width="21" opacity=".248" ry="4.834"/><rect id="rect8009" width="205.918" height="28.597" x="72.861" y="290.892" fill="none" fill-rule="evenodd" stroke="#000" stroke-dasharray="none" stroke-linecap="butt" stroke-linejoin="miter" stroke-miterlimit="4" stroke-opacity="1" stroke-width="5" ry="2.061"/><path id="path8013" fill="none" fill-rule="evenodd" stroke="#000" stroke-dasharray="none" stroke-linecap="butt" stroke-linejoin="miter" stroke-miterlimit="4" stroke-opacity="1" stroke-width="3" d="m 129.7791,111.76895 c 92.41846,0 92.41846,0 92.41846,0"/><path id="path8015" fill="none" fill-rule="evenodd" stroke="#000" stroke-dasharray="none" stroke-linecap="butt" stroke-linejoin="miter" stroke-miterlimit="4" stroke-opacity="1" stroke-width="3" d="m 115.00818,119.30662 124.96605,0"/><path id="path8017" fill="none" fill-rule="evenodd" stroke="#000" stroke-dasharray="none" stroke-linecap="butt" stroke-linejoin="miter" stroke-miterlimit="4" stroke-opacity="1" stroke-width="3" d="m 148.45943,105.21445 55.28942,-0.14839 1.73473,0.47611"/><path id="path8019" fill="none" fill-rule="evenodd" stroke="#000" stroke-linecap="butt" stroke-linejoin="miter" stroke-opacity="1" stroke-width="1" d="m 70.788599,174.84865 c 214.659881,0 214.659881,0 214.659881,0"/><path id="path4313" fill="none" fill-rule="evenodd" stroke="#000" stroke-dasharray="none" stroke-linecap="butt" stroke-linejoin="miter" stroke-miterlimit="4" stroke-opacity="1" stroke-width="3" d="m 100.6339,241.35705 c 156.42218,0 156.42218,0 156.42218,0 l 0,0"/><path id="path4315" fill="none" fill-rule="evenodd" stroke="#000" stroke-dasharray="none" stroke-linecap="butt" stroke-linejoin="miter" stroke-miterlimit="4" stroke-opacity="1" stroke-width="3" d="m 108.51294,250.62651 c 141.12757,0 141.35931,0 141.35931,0"/><path id="path7946-4" fill="none" fill-rule="evenodd" stroke="#000" stroke-dasharray="none" stroke-linecap="butt" stroke-linejoin="miter" stroke-miterlimit="4" stroke-opacity="1" stroke-width="5" d="m 138.75275,82.631127 21.97687,12.127008 -9.30481,9.557455 0,0" display="inline"/><path id="path7965" fill="none" fill-rule="evenodd" stroke="#000" stroke-dasharray="none" stroke-linecap="butt" stroke-linejoin="miter" stroke-miterlimit="4" stroke-opacity="1" stroke-width="3" d="M 74.224469,300.37394 C 278.88207,299.72241 278.88207,299.72241 278.88207,299.72241" display="inline"/><path id="path7967" fill="none" fill-rule="evenodd" stroke="#000" stroke-dasharray="none" stroke-linecap="butt" stroke-linejoin="miter" stroke-miterlimit="4" stroke-opacity="1" stroke-width="3" d="m 277.20712,306.0432 c -202.729121,0 -200.966251,0 -202.729121,0 -1.76285,0 0,0 0,0" display="inline"/></g></svg>