<svg xmlns="http://www.w3.org/2000/svg" xmlns:osb="http://www.openswatchbook.org/uri/2009/osb" xmlns:svg="http://www.w3.org/2000/svg" xmlns:xlink="http://www.w3.org/1999/xlink" id="svg2" width="353.63" height="353.63" version="1.0"><defs id="defs4"><linearGradient id="linearGradient12649"><stop id="stop12651" offset="0" stop-color="#daa520" stop-opacity="1"/><stop id="stop12653" offset="1" stop-color="#daa520" stop-opacity="0"/></linearGradient><linearGradient id="linearGradient9202" osb:paint="solid"><stop id="stop9204" offset="0" stop-color="#9f9011" stop-opacity="1"/></linearGradient><linearGradient id="linearGradient9174" osb:paint="gradient"><stop id="stop9176" offset="0" stop-color="#fff" stop-opacity=".509"/><stop id="stop9178" offset="1" stop-color="#e9ddaf" stop-opacity="0"/></linearGradient><linearGradient id="linearGradient9155" osb:paint="gradient"><stop id="stop9157" offset="0" stop-color="#f5ea8e" stop-opacity="1"/><stop id="stop9159" offset="1" stop-color="#d3bc5f" stop-opacity="0"/></linearGradient><linearGradient id="linearGradient3693"><stop id="stop3695" offset="0" stop-color="#ffff82" stop-opacity="1"/><stop id="stop3697" offset="1" stop-color="#ffff82" stop-opacity="0"/></linearGradient><linearGradient id="linearGradient3645"><stop id="stop3649" offset="0" stop-color="#ffff23" stop-opacity=".498"/><stop id="stop3651" offset="1" stop-color="#ffff23" stop-opacity="0"/></linearGradient><linearGradient id="linearGradient3635"><stop id="stop3637" offset="0" stop-color="#ffff23" stop-opacity="1"/><stop id="stop3643" offset=".5" stop-color="#ffff23" stop-opacity=".498"/><stop id="stop3639" offset="1" stop-color="#ffff23" stop-opacity="0"/></linearGradient><linearGradient id="linearGradient3721" x1="212.179" x2="145.873" y1="114.928" y2="79.565" gradientUnits="userSpaceOnUse" xlink:href="#linearGradient3693"/><linearGradient id="linearGradient12655" x1="50.945" x2="301.759" y1="186.583" y2="186.583" gradientUnits="userSpaceOnUse" xlink:href="#linearGradient12649"/></defs><metadata id="metadata7"/><g id="layer17" display="inline"><path id="path9164" fill="#804d00" fill-opacity="1" fill-rule="nonzero" stroke="#000" stroke-linecap="butt" stroke-linejoin="miter" stroke-opacity="1" stroke-width="1" d="M 168.70422,50.055101 C 116.29839,81.018453 67.513792,116.01973 51.445522,167.77728 l 1.39042,156.19044 246.104228,-0.46347 2.31737,-160.3617 C 282.27143,118.26928 233.24571,76.910204 183.07189,49.591628 l 4.17126,39.395216 -20.85629,-0.463473 z"/></g><g id="g9208" display="inline"><path id="path9210" fill="url(#linearGradient12655)" fill-opacity="1" fill-rule="evenodd" stroke="#000" stroke-linecap="butt" stroke-linejoin="miter" stroke-opacity="1" stroke-width="1" d="M 168.70422,50.055101 C 116.29839,81.018453 67.513792,116.01973 51.445522,167.77728 l 1.39042,156.19044 246.104228,-0.46347 2.31737,-160.3617 C 282.27143,118.26928 233.24571,76.910204 183.07189,49.591628 l 4.17126,39.395216 -20.85629,-0.463473 z"/></g><g id="layer1" display="inline"><rect id="rect7399" width="111.479" height="46.484" x="110.93" y="83.043" fill="none" fill-opacity=".612" fill-rule="evenodd" stroke="#b50000" stroke-dasharray="none" stroke-miterlimit="4" stroke-opacity="0" stroke-width="23.622" opacity=".248" ry="8.019"/><use id="use7429" width="100%" height="100%" x="0" y="0" fill="none" fill-opacity=".612" transform="translate(-49.82298,32.590004)" xlink:href="#rect7399"/><use id="use7431" width="100%" height="100%" x="0" y="0" fill="none" fill-opacity=".612" transform="translate(-39.111846,39.216843)" xlink:href="#rect7399"/><use id="use7433" width="100%" height="100%" x="0" y="0" fill="none" fill-opacity=".612" transform="translate(-34.816691,36.472512)" xlink:href="#rect7399"/><use id="use7439" width="100%" height="100%" x="0" y="0" fill="none" fill-opacity=".612" transform="translate(-22.591475,22.633001)" xlink:href="#rect7399"/><use id="use7441" width="100%" height="100%" x="0" y="0" fill="none" fill-opacity=".612" transform="translate(-39.74188,42.792372)" xlink:href="#rect7399"/><use id="use7443" width="100%" height="100%" x="0" y="0" fill="none" fill-opacity=".612" transform="translate(-23.67786,29.241788)" xlink:href="#rect7399"/><use id="use7445" width="100%" height="100%" x="0" y="0" fill="none" fill-opacity=".612" transform="translate(-35.442291,36.61656)" xlink:href="#rect7399"/><use id="use7453" width="100%" height="100%" x="0" y="0" fill="none" fill-opacity=".612" transform="translate(-11.663113,49.999782)" xlink:href="#rect7399"/><use id="use7471" width="100%" height="100%" x="0" y="0" fill="none" fill-opacity=".612" transform="translate(-11.504598,27.76877)" xlink:href="#rect7399"/><use id="use7473" width="100%" height="100%" x="0" y="0" fill="none" fill-opacity=".612" transform="translate(-10.368665,46.328923)" xlink:href="#rect7399"/><use id="use7475" width="100%" height="100%" x="0" y="0" fill="none" fill-opacity=".612" transform="translate(-21.905263,39.99171)" xlink:href="#rect7399"/><use id="use7477" width="100%" height="100%" x="0" y="0" fill="none" fill-opacity=".612" transform="translate(-26.807912,23.126197)" xlink:href="#rect7399"/><use id="use7479" width="100%" height="100%" x="0" y="0" fill="none" fill-opacity=".612" transform="translate(-5.2636646,27.803334)" xlink:href="#rect7399"/><use id="use7481" width="100%" height="100%" x="0" y="0" fill="none" fill-opacity=".612" transform="translate(-0.57109663,38.96867)" xlink:href="#rect7399"/><use id="use7483" width="100%" height="100%" x="0" y="0" fill="none" fill-opacity=".612" transform="translate(-17.200527,41.865911)" xlink:href="#rect7399"/><use id="use7485" width="100%" height="100%" x="0" y="0" fill="none" fill-opacity=".612" transform="translate(12.561713,26.98689)" xlink:href="#rect7399"/><use id="use7487" width="100%" height="100%" x="0" y="0" fill="none" fill-opacity=".612" transform="translate(9.106934,10.434215)" xlink:href="#rect7399"/><use id="use7489" width="100%" height="100%" x="0" y="0" fill="none" fill-opacity=".612" transform="translate(-6.3653488,14.039035)" xlink:href="#rect7399"/><use id="use7491" width="100%" height="100%" x="0" y="0" fill="none" fill-opacity=".612" transform="translate(16.135654,20.91061)" xlink:href="#rect7399"/><use id="use7493" width="100%" height="100%" x="0" y="0" fill="none" fill-opacity=".612" transform="translate(5.1382194,1.6908823)" xlink:href="#rect7399"/><use id="use7495" width="100%" height="100%" x="0" y="0" fill="none" fill-opacity=".612" transform="translate(5.6641109,5.7058181)" xlink:href="#rect7399"/><use id="use7497" width="100%" height="100%" x="0" y="0" fill="none" fill-opacity=".612" transform="translate(16.534934,18.056165)" xlink:href="#rect7399"/><use id="use7499" width="100%" height="100%" x="0" y="0" fill="none" fill-opacity=".612" transform="translate(7.8517099,20.973151)" xlink:href="#rect7399"/><use id="use7501" width="100%" height="100%" x="0" y="0" fill="none" fill-opacity=".612" transform="translate(12.111912,9.5846372)" xlink:href="#rect7399"/><use id="use7503" width="100%" height="100%" x="0" y="0" fill="none" fill-opacity=".612" transform="translate(18.56789,10.106665)" xlink:href="#rect7399"/><use id="use7505" width="100%" height="100%" x="0" y="0" fill="none" fill-opacity=".612" transform="translate(36.063073,24.22682)" xlink:href="#rect7399"/><use id="use7507" width="100%" height="100%" x="0" y="0" fill="none" fill-opacity=".612" transform="translate(39.01755,17.984667)" xlink:href="#rect7399"/><use id="use7509" width="100%" height="100%" x="0" y="0" fill="none" fill-opacity=".612" transform="translate(49.224149,1.7357136)" xlink:href="#rect7399"/><use id="use7519" width="100%" height="100%" x="0" y="0" fill="none" fill-opacity=".612" transform="translate(7.3012139,2.3400896)" xlink:href="#rect7399"/><use id="use7521" width="100%" height="100%" x="0" y="0" fill="none" fill-opacity=".612" transform="translate(7.2409993,26.743744)" xlink:href="#rect7399"/><use id="use7523" width="100%" height="100%" x="0" y="0" fill="none" fill-opacity=".612" transform="translate(19.646436,4.1909101)" xlink:href="#rect7399"/><use id="use7525" width="100%" height="100%" x="0" y="0" fill="none" fill-opacity=".612" transform="translate(7.0261302,8.0341581)" xlink:href="#rect7399"/><use id="use7779" width="100%" height="100%" x="0" y="0" fill="none" fill-opacity=".612" transform="translate(74.591866,27.048608)" xlink:href="#rect7399"/><rect id="rect7843" width="188.77" height="45.226" x="-262.611" y="295.958" fill="#281700" fill-opacity="0" fill-rule="evenodd" stroke="#b50000" stroke-dasharray="none" stroke-miterlimit="4" stroke-opacity="0" stroke-width="21" opacity=".248" ry="7.435"/><path id="path7867" fill="none" fill-opacity=".612" fill-rule="evenodd" stroke="#000" stroke-linecap="butt" stroke-linejoin="miter" stroke-opacity="1" stroke-width="1.125" d="M 190.32502,81.043591 Z"/><path id="path7873-6" fill="none" fill-opacity=".612" fill-rule="evenodd" stroke="#000" stroke-linecap="butt" stroke-linejoin="miter" stroke-opacity="1" stroke-width="1.675" d="m 215.55781,286.1529 0,0" display="inline"/><path id="path7969" fill="none" fill-opacity=".612" fill-rule="evenodd" stroke="#000" stroke-linecap="butt" stroke-linejoin="miter" stroke-opacity="1" stroke-width="1" d="M 42.467242,253.20875 Z"/><rect id="rect7991" width="23.841" height="23.856" x="274.727" y="251.92" fill="none" fill-opacity=".612" fill-rule="evenodd" stroke="#b50000" stroke-dasharray="none" stroke-miterlimit="4" stroke-opacity="0" stroke-width="23.622" opacity=".248" ry=".442"/><rect id="rect8007" width="22.495" height="27.214" x="273.958" y="255.101" fill="none" fill-opacity=".612" fill-rule="evenodd" stroke="#b50000" stroke-dasharray="none" stroke-miterlimit="4" stroke-opacity="0" stroke-width="23.622" opacity=".248" ry="5.213"/><rect id="rect8009" width="247.954" height="34.117" x="52.251" y="289.52" fill="none" fill-opacity=".612" fill-rule="evenodd" stroke="#000" stroke-dasharray="none" stroke-linecap="butt" stroke-linejoin="miter" stroke-miterlimit="4" stroke-opacity="1" stroke-width="5" ry="2.458"/><path id="path8835" fill="none" fill-opacity=".612" fill-rule="evenodd" stroke="#000" stroke-dasharray="none" stroke-linecap="butt" stroke-linejoin="miter" stroke-miterlimit="4" stroke-opacity="1" stroke-width="5" d="m 301.12859,164.26226 c -1.15126,125.65518 -1.15126,125.65518 -1.15126,125.65518"/><path id="path7892" fill="none" fill-opacity=".612" fill-rule="evenodd" stroke="#000" stroke-dasharray="none" stroke-linecap="butt" stroke-linejoin="miter" stroke-miterlimit="4" stroke-opacity="1" stroke-width="5" d="m 182.43785,49.739754 c 69.36318,37.784648 117.90706,90.609666 118.97195,121.329386 1.46207,42.17749 -22.4897,90.04828 -100.50694,117.89208" display="inline"/><path id="path7892-8" fill="none" fill-opacity=".612" fill-rule="evenodd" stroke="#000" stroke-dasharray="none" stroke-linecap="butt" stroke-linejoin="miter" stroke-miterlimit="4" stroke-opacity="1" stroke-width="5" d="M 170.64966,49.032897 C 101.28647,86.817545 52.742592,139.64257 51.677702,170.36228 c -1.46207,42.17748 22.48971,90.04829 100.506958,117.89208" display="inline"/><path id="path8883" fill="none" fill-opacity=".612" fill-rule="evenodd" stroke="#000" stroke-dasharray="none" stroke-linecap="butt" stroke-linejoin="miter" stroke-miterlimit="4" stroke-opacity="1" stroke-width="5" d="m 52.007722,166.66666 -0.21256,124.28083"/></g><g id="layer2" display="inline"><path id="path7965" fill="#e9dd9a" fill-opacity=".612" fill-rule="evenodd" stroke="#000" stroke-dasharray="none" stroke-linecap="butt" stroke-linejoin="miter" stroke-miterlimit="4" stroke-opacity="1" stroke-width="5" d="M 53.742082,301.3167 C 299.08084,300.61437 299.08084,300.61437 299.08084,300.61437" display="inline"/><path id="path8902" fill="none" fill-opacity=".612" fill-rule="evenodd" stroke="#000" stroke-dasharray="none" stroke-linecap="butt" stroke-linejoin="miter" stroke-miterlimit="4" stroke-opacity="1" stroke-width="5" d="m 232.94312,99.541393 c -5.334,45.481157 -8.54723,91.653337 -27.30884,130.693587 -17.7851,17.6183 -33.60003,13.05906 -48.76577,1.19175 C 136.11285,190.0259 130.10455,144.25664 123.22015,98.746893"/><ellipse id="path8904" cx="206.825" cy="139.179" fill="#e9dd9a" fill-opacity=".612" fill-rule="evenodd" stroke="#000" stroke-dasharray="none" stroke-miterlimit="4" stroke-opacity="1" stroke-width="7.004" display="inline" opacity=".248" rx="4.053" ry=".544"/><ellipse id="path8904-2" cx="147.704" cy="139.355" fill="#e9dd9a" fill-opacity=".612" fill-rule="evenodd" stroke="#000" stroke-dasharray="none" stroke-miterlimit="4" stroke-opacity="1" stroke-width="7.004" display="inline" opacity=".248" rx="4.053" ry=".544"/><ellipse id="path8968" cx="204.23" cy="88.462" fill="#e9dd9a" fill-opacity=".612" fill-rule="evenodd" stroke="#000" stroke-dasharray="none" stroke-miterlimit="4" stroke-opacity="1" stroke-width="7.475" opacity=".248" rx=".346" ry="6.68"/><ellipse id="path8968-1" cx="149.627" cy="88.462" fill="#e9dd9a" fill-opacity=".612" fill-rule="evenodd" stroke="#000" stroke-dasharray="none" stroke-miterlimit="4" stroke-opacity="1" stroke-width="7.475" display="inline" opacity=".248" rx=".346" ry="6.68"/><path id="path8987" fill="none" fill-opacity=".612" fill-rule="evenodd" stroke="#000" stroke-dasharray="none" stroke-linecap="butt" stroke-linejoin="miter" stroke-miterlimit="4" stroke-opacity="1" stroke-width="5" d="m 203.18603,67.040079 c 18.14748,17.042237 14.41488,15.785673 6.05183,38.365301"/><path id="path8987-9" fill="none" fill-opacity=".612" fill-rule="evenodd" stroke="#000" stroke-dasharray="none" stroke-linecap="butt" stroke-linejoin="miter" stroke-miterlimit="4" stroke-opacity="1" stroke-width="5" d="m 151.99659,67.286877 c -18.14747,17.042227 -14.41487,15.785664 -6.05183,38.365293" display="inline"/><ellipse id="path8904-0" cx="187.606" cy="230.99" fill="#e9dd9a" fill-opacity=".612" fill-rule="evenodd" stroke="#000" stroke-dasharray="none" stroke-miterlimit="4" stroke-opacity="1" stroke-width="6.293" display="inline" opacity=".248" rx=".617" ry="2.884"/><ellipse id="path8904-0-0" cx="172.923" cy="230.491" fill="#e9dd9a" fill-opacity=".612" fill-rule="evenodd" stroke="#000" stroke-dasharray="none" stroke-miterlimit="4" stroke-opacity="1" stroke-width="6.293" display="inline" opacity=".248" rx=".617" ry="2.884"/></g></svg>