<svg xmlns="http://www.w3.org/2000/svg" xmlns:osb="http://www.openswatchbook.org/uri/2009/osb" xmlns:svg="http://www.w3.org/2000/svg" xmlns:xlink="http://www.w3.org/1999/xlink" id="svg2" width="353.63" height="353.63" version="1.0"><defs id="defs4"><linearGradient id="linearGradient12657"><stop id="stop12659" offset="0" stop-color="#daa520" stop-opacity="1"/><stop id="stop12661" offset="1" stop-color="#daa520" stop-opacity="0"/></linearGradient><linearGradient id="linearGradient10333" osb:paint="gradient"><stop id="stop10335" offset="0" stop-color="#daa520" stop-opacity="1"/><stop id="stop10337" offset="1" stop-color="#daa520" stop-opacity="0"/></linearGradient><linearGradient id="linearGradient3693"><stop id="stop3695" offset="0" stop-color="#ffff82" stop-opacity="1"/><stop id="stop3697" offset="1" stop-color="#ffff82" stop-opacity="0"/></linearGradient><linearGradient id="linearGradient3645"><stop id="stop3649" offset="0" stop-color="#ffff23" stop-opacity=".498"/><stop id="stop3651" offset="1" stop-color="#ffff23" stop-opacity="0"/></linearGradient><linearGradient id="linearGradient3635"><stop id="stop3637" offset="0" stop-color="#ffff23" stop-opacity="1"/><stop id="stop3643" offset=".5" stop-color="#ffff23" stop-opacity=".498"/><stop id="stop3639" offset="1" stop-color="#ffff23" stop-opacity="0"/></linearGradient><linearGradient id="linearGradient3721" x1="212.179" x2="145.873" y1="114.928" y2="79.565" gradientUnits="userSpaceOnUse" xlink:href="#linearGradient3693"/><linearGradient id="linearGradient12663" x1="67.828" x2="320.854" y1="223.523" y2="223.523" gradientTransform="translate(-12.050301,5.5616777)" gradientUnits="userSpaceOnUse" xlink:href="#linearGradient12657"/></defs><metadata id="metadata7"/><g id="layer19" display="inline"><path id="path10308" fill="#804d00" fill-opacity="1" fill-rule="evenodd" stroke="#000" stroke-linecap="butt" stroke-linejoin="miter" stroke-opacity="1" stroke-width="1" d="m 185.24015,136.66641 34.0834,18.68033 33.10022,9.50402 27.5289,12.12583 18.02488,12.78127 9.50402,13.43673 1.3109,25.89027 -1.3109,19.99123 -5.89905,19.33577 -10.4872,12.78128 -27.5289,20.64667 44.24288,-0.32772 0,19.33577 -248.087828,0.32773 0,-19.99123 43.587428,0.65545 -26.218003,-18.02487 -13.436725,-17.69715 -5.571325,-17.0417 -1.3109,-38.99928 9.1763,-16.71397 18.3526,-14.4199 23.923923,-10.81493 20.9744,-7.20995 19.99123,-5.2436 z"/></g><g id="layer18" display="inline"><path id="path10308-9" fill="url(#linearGradient12663)" fill-opacity="1" fill-rule="nonzero" stroke="#000" stroke-linecap="butt" stroke-linejoin="miter" stroke-opacity="1" stroke-width="1" d="m 184.75031,136.86377 34.0834,18.68033 33.10022,9.50402 27.5289,12.12583 18.02488,12.78127 9.50402,13.43673 1.3109,25.89027 -1.3109,19.99123 -5.89905,19.33577 -10.4872,12.78128 -27.5289,20.64667 44.24288,-0.32772 0,19.33577 -248.087831,0.32773 0,-19.99123 43.587431,0.65545 -26.218001,-18.02487 -13.43673,-17.69715 -5.57132,-17.0417 -1.3109,-38.99928 9.1763,-16.71397 18.3526,-14.4199 23.923921,-10.81493 20.9744,-7.20995 19.99123,-5.2436 z"/></g><g id="layer7" display="inline" opacity="1"><rect id="rect4610" width="79.564" height="144.255" x="143" y="156.194" fill="none" fill-rule="evenodd" stroke="#000" stroke-linecap="butt" stroke-linejoin="miter" stroke-opacity="0" stroke-width="1.436" display="inline" ry="1.388"/><path id="path7892" fill="none" fill-opacity="1" fill-rule="evenodd" stroke="#000" stroke-dasharray="none" stroke-linecap="butt" stroke-linejoin="miter" stroke-miterlimit="4" stroke-opacity="1" stroke-width="5" d="m 221.81016,156.41682 c 67.093,15.881 89.14949,38.36377 87.60998,60.68874 -1.87428,27.17972 7.36717,55.25783 -47.18729,84.25632" display="inline"/><path id="path7873-6" fill="none" fill-rule="evenodd" stroke="#000" stroke-linecap="butt" stroke-linejoin="miter" stroke-opacity="1" stroke-width="2.138" d="m 234.08711,298.35494 0,0" display="inline"/><path id="path7965" fill="none" fill-rule="evenodd" stroke="#000" stroke-dasharray="none" stroke-linecap="butt" stroke-linejoin="miter" stroke-miterlimit="4" stroke-opacity="1" stroke-width="3" d="m 62.126327,311.04028 c 245.572503,-0.9002 245.572503,-0.9002 245.572503,-0.9002" display="inline"/><path id="path7967" fill="none" fill-rule="evenodd" stroke="#000" stroke-linecap="butt" stroke-linejoin="miter" stroke-opacity="1" stroke-width="1.495" d="m 307.20592,318.47915 c -245.004107,0 -242.873628,0 -245.004107,0 -2.130465,0 0,0 0,0" display="inline"/><rect id="rect8009" width="248.529" height="19.269" x="59.343" y="301.704" fill="none" fill-opacity="1" fill-rule="evenodd" stroke="#000" stroke-dasharray="none" stroke-linecap="butt" stroke-linejoin="miter" stroke-miterlimit="4" stroke-opacity="1" stroke-width="5" display="inline" ry="1.388"/><path id="path8013" fill="none" fill-rule="evenodd" stroke="#000" stroke-dasharray="none" stroke-linecap="butt" stroke-linejoin="miter" stroke-miterlimit="4" stroke-opacity="1" stroke-width="3" d="m 123.66926,162.60413 c 121.64504,0 121.64504,0 121.64504,0" display="inline"/><path id="path8015" fill="none" fill-rule="evenodd" stroke="#000" stroke-dasharray="none" stroke-linecap="butt" stroke-linejoin="miter" stroke-miterlimit="4" stroke-opacity="1" stroke-width="3" d="m 94.532037,174.24155 177.615213,0" display="inline"/><path id="path8017" fill="none" fill-rule="evenodd" stroke="#000" stroke-dasharray="none" stroke-linecap="butt" stroke-linejoin="miter" stroke-miterlimit="4" stroke-opacity="1" stroke-width="3" d="m 141.55373,157.59767 82.88703,-0.20181 2.60061,0.64751" display="inline"/><path id="path4313" fill="none" fill-rule="evenodd" stroke="#000" stroke-dasharray="none" stroke-linecap="butt" stroke-linejoin="miter" stroke-miterlimit="4" stroke-opacity="1" stroke-width="3" d="m 106.36457,167.80699 c 155.19056,0 155.19056,0 155.19056,0 l 0,0" display="inline"/><path id="path4315" fill="none" fill-rule="evenodd" stroke="#000" stroke-dasharray="none" stroke-linecap="butt" stroke-linejoin="miter" stroke-miterlimit="4" stroke-opacity="1" stroke-width="3.201" d="m 59.367742,257.28026 c 247.319878,0 247.725988,0 247.725988,0" display="inline"/><path id="path4412" fill="none" fill-opacity="1" fill-rule="evenodd" stroke="#000" stroke-dasharray="none" stroke-linecap="butt" stroke-linejoin="miter" stroke-miterlimit="4" stroke-opacity="1" stroke-width="5" d="m 223.05796,157.26556 c 0,0 -13.59128,-8.91022 -37.35891,-20.82541 l 0,0 0,0 0,0 -43.1307,21.39957" display="inline"/><path id="path6071" fill="none" fill-rule="evenodd" stroke="#b60000" stroke-linecap="butt" stroke-linejoin="miter" stroke-opacity="0" stroke-width="1.436" d="m 74.732263,246.12839 c 218.310827,0 218.310827,0 218.310827,0" display="inline"/><path id="path6083" fill="none" fill-rule="evenodd" stroke="#000" stroke-dasharray="none" stroke-linecap="butt" stroke-linejoin="miter" stroke-miterlimit="4" stroke-opacity="1" stroke-width="3.034" d="m 60.065133,204.38444 c 246.989627,0.22501 246.989627,0.22501 246.989627,0.22501" display="inline"/><path id="path7892-4" fill="none" fill-opacity="1" fill-rule="evenodd" stroke="#000" stroke-dasharray="none" stroke-linecap="butt" stroke-linejoin="miter" stroke-miterlimit="4" stroke-opacity="1" stroke-width="5" d="m 144.7755,157.04285 c -67.093005,15.881 -89.149495,38.36377 -87.609985,60.68874 1.87428,27.17972 -7.36717,55.25783 47.187295,84.25632" display="inline"/></g></svg>