<svg xmlns="http://www.w3.org/2000/svg" xmlns:osb="http://www.openswatchbook.org/uri/2009/osb" xmlns:svg="http://www.w3.org/2000/svg" xmlns:xlink="http://www.w3.org/1999/xlink" id="svg2" width="353.63" height="353.63" version="1.0"><defs id="defs4"><linearGradient id="linearGradient8072"><stop id="stop8074" offset="0" stop-color="#daa520" stop-opacity="1"/><stop id="stop8076" offset="1" stop-color="#daa520" stop-opacity="0"/></linearGradient><linearGradient id="linearGradient9202" osb:paint="solid"><stop id="stop9204" offset="0" stop-color="#9f9011" stop-opacity="1"/></linearGradient><linearGradient id="linearGradient9174" osb:paint="gradient"><stop id="stop9176" offset="0" stop-color="#fff" stop-opacity=".509"/><stop id="stop9178" offset="1" stop-color="#e9ddaf" stop-opacity="0"/></linearGradient><linearGradient id="linearGradient9155" osb:paint="gradient"><stop id="stop9157" offset="0" stop-color="#f5ea8e" stop-opacity="1"/><stop id="stop9159" offset="1" stop-color="#d3bc5f" stop-opacity="0"/></linearGradient><linearGradient id="linearGradient3693"><stop id="stop3695" offset="0" stop-color="#ffff82" stop-opacity="1"/><stop id="stop3697" offset="1" stop-color="#ffff82" stop-opacity="0"/></linearGradient><linearGradient id="linearGradient3645"><stop id="stop3649" offset="0" stop-color="#ffff23" stop-opacity=".498"/><stop id="stop3651" offset="1" stop-color="#ffff23" stop-opacity="0"/></linearGradient><linearGradient id="linearGradient3635"><stop id="stop3637" offset="0" stop-color="#ffff23" stop-opacity="1"/><stop id="stop3643" offset=".5" stop-color="#ffff23" stop-opacity=".498"/><stop id="stop3639" offset="1" stop-color="#ffff23" stop-opacity="0"/></linearGradient><linearGradient id="linearGradient3721" x1="212.179" x2="145.873" y1="114.928" y2="79.565" gradientUnits="userSpaceOnUse" xlink:href="#linearGradient3693"/><linearGradient id="linearGradient8078" x1="51.087" x2="301.901" y1="186.583" y2="186.583" gradientUnits="userSpaceOnUse" xlink:href="#linearGradient8072"/></defs><metadata id="metadata7"/><g id="layer17" display="inline"><path id="path9164" fill="#fffbd6" fill-opacity="1" fill-rule="nonzero" stroke="#000" stroke-linecap="butt" stroke-linejoin="miter" stroke-opacity="1" stroke-width="1" d="m 184.14176,50.055101 c 52.40583,30.963352 101.19043,65.964629 117.2587,117.722179 l -1.39042,156.19044 -246.104232,-0.46347 -2.31737,-160.3617 C 70.574548,118.26928 119.60027,76.910204 169.77409,49.591628 l -4.17126,39.395216 20.85629,-0.463473 z"/></g><g id="g9208" display="inline"><path id="path9210" fill="url(#linearGradient8078)" fill-opacity="1" fill-rule="nonzero" stroke="#000" stroke-linecap="butt" stroke-linejoin="miter" stroke-opacity="1" stroke-width="1" d="m 184.14176,50.055101 c 52.40583,30.963352 101.19043,65.964629 117.2587,117.722179 l -1.39042,156.19044 -246.104232,-0.46347 -2.31737,-160.3617 C 70.574548,118.26928 119.60027,76.910204 169.77409,49.591628 l -4.17126,39.395216 20.85629,-0.463473 z"/></g><g id="layer1" display="inline" opacity="1"><rect id="rect7399" width="111.479" height="46.484" x="-241.916" y="83.043" fill="none" fill-opacity=".612" fill-rule="evenodd" stroke="#b50000" stroke-dasharray="none" stroke-miterlimit="4" stroke-opacity="0" stroke-width="23.622" opacity=".248" ry="8.019" transform="scale(-1,1)"/><use id="use7429" width="100%" height="100%" x="0" y="0" fill="none" fill-opacity=".612" transform="translate(49.82298,32.590004)" xlink:href="#rect7399"/><use id="use7431" width="100%" height="100%" x="0" y="0" fill="none" fill-opacity=".612" transform="translate(39.111846,39.216843)" xlink:href="#rect7399"/><use id="use7433" width="100%" height="100%" x="0" y="0" fill="none" fill-opacity=".612" transform="translate(34.816691,36.472512)" xlink:href="#rect7399"/><use id="use7439" width="100%" height="100%" x="0" y="0" fill="none" fill-opacity=".612" transform="translate(22.591475,22.633001)" xlink:href="#rect7399"/><use id="use7441" width="100%" height="100%" x="0" y="0" fill="none" fill-opacity=".612" transform="translate(39.74188,42.792372)" xlink:href="#rect7399"/><use id="use7443" width="100%" height="100%" x="0" y="0" fill="none" fill-opacity=".612" transform="translate(23.67786,29.241788)" xlink:href="#rect7399"/><use id="use7445" width="100%" height="100%" x="0" y="0" fill="none" fill-opacity=".612" transform="translate(35.442291,36.61656)" xlink:href="#rect7399"/><use id="use7453" width="100%" height="100%" x="0" y="0" fill="none" fill-opacity=".612" transform="translate(11.663113,49.999782)" xlink:href="#rect7399"/><use id="use7471" width="100%" height="100%" x="0" y="0" fill="none" fill-opacity=".612" transform="translate(11.504598,27.76877)" xlink:href="#rect7399"/><use id="use7473" width="100%" height="100%" x="0" y="0" fill="none" fill-opacity=".612" transform="translate(10.368665,46.328923)" xlink:href="#rect7399"/><use id="use7475" width="100%" height="100%" x="0" y="0" fill="none" fill-opacity=".612" transform="translate(21.905263,39.99171)" xlink:href="#rect7399"/><use id="use7477" width="100%" height="100%" x="0" y="0" fill="none" fill-opacity=".612" transform="translate(26.807912,23.126197)" xlink:href="#rect7399"/><use id="use7479" width="100%" height="100%" x="0" y="0" fill="none" fill-opacity=".612" transform="translate(5.2636646,27.803334)" xlink:href="#rect7399"/><use id="use7481" width="100%" height="100%" x="0" y="0" fill="none" fill-opacity=".612" transform="translate(0.57109663,38.96867)" xlink:href="#rect7399"/><use id="use7483" width="100%" height="100%" x="0" y="0" fill="none" fill-opacity=".612" transform="translate(17.200527,41.865911)" xlink:href="#rect7399"/><use id="use7485" width="100%" height="100%" x="0" y="0" fill="none" fill-opacity=".612" transform="translate(-12.561713,26.98689)" xlink:href="#rect7399"/><use id="use7487" width="100%" height="100%" x="0" y="0" fill="none" fill-opacity=".612" transform="translate(-9.106934,10.434215)" xlink:href="#rect7399"/><use id="use7489" width="100%" height="100%" x="0" y="0" fill="none" fill-opacity=".612" transform="translate(6.3653488,14.039035)" xlink:href="#rect7399"/><use id="use7491" width="100%" height="100%" x="0" y="0" fill="none" fill-opacity=".612" transform="translate(-16.135654,20.91061)" xlink:href="#rect7399"/><use id="use7493" width="100%" height="100%" x="0" y="0" fill="none" fill-opacity=".612" transform="translate(-5.1382194,1.6908823)" xlink:href="#rect7399"/><use id="use7495" width="100%" height="100%" x="0" y="0" fill="none" fill-opacity=".612" transform="translate(-5.6641109,5.7058181)" xlink:href="#rect7399"/><use id="use7497" width="100%" height="100%" x="0" y="0" fill="none" fill-opacity=".612" transform="translate(-16.534934,18.056165)" xlink:href="#rect7399"/><use id="use7499" width="100%" height="100%" x="0" y="0" fill="none" fill-opacity=".612" transform="translate(-7.8517099,20.973151)" xlink:href="#rect7399"/><use id="use7501" width="100%" height="100%" x="0" y="0" fill="none" fill-opacity=".612" transform="translate(-12.111912,9.5846372)" xlink:href="#rect7399"/><use id="use7503" width="100%" height="100%" x="0" y="0" fill="none" fill-opacity=".612" transform="translate(-18.56789,10.106665)" xlink:href="#rect7399"/><use id="use7505" width="100%" height="100%" x="0" y="0" fill="none" fill-opacity=".612" transform="translate(-36.063073,24.22682)" xlink:href="#rect7399"/><use id="use7507" width="100%" height="100%" x="0" y="0" fill="none" fill-opacity=".612" transform="translate(-39.01755,17.984667)" xlink:href="#rect7399"/><use id="use7509" width="100%" height="100%" x="0" y="0" fill="none" fill-opacity=".612" transform="translate(-49.224149,1.7357136)" xlink:href="#rect7399"/><use id="use7519" width="100%" height="100%" x="0" y="0" fill="none" fill-opacity=".612" transform="translate(-7.3012139,2.3400896)" xlink:href="#rect7399"/><use id="use7521" width="100%" height="100%" x="0" y="0" fill="none" fill-opacity=".612" transform="translate(-7.2409993,26.743744)" xlink:href="#rect7399"/><use id="use7523" width="100%" height="100%" x="0" y="0" fill="none" fill-opacity=".612" transform="translate(-19.646436,4.1909101)" xlink:href="#rect7399"/><use id="use7525" width="100%" height="100%" x="0" y="0" fill="none" fill-opacity=".612" transform="translate(-7.0261302,8.0341581)" xlink:href="#rect7399"/><use id="use7779" width="100%" height="100%" x="0" y="0" fill="none" fill-opacity=".612" transform="translate(-74.591866,27.048608)" xlink:href="#rect7399"/><rect id="rect7843" width="188.77" height="45.226" x="-262.611" y="295.958" fill="#281700" fill-opacity="0" fill-rule="evenodd" stroke="#b50000" stroke-dasharray="none" stroke-miterlimit="4" stroke-opacity="0" stroke-width="21" opacity=".248" ry="7.435"/><path id="path7867" fill="none" fill-opacity=".612" fill-rule="evenodd" stroke="#000" stroke-linecap="butt" stroke-linejoin="miter" stroke-opacity="1" stroke-width="1.125" d="M 162.52096,81.043591 Z"/><path id="path7873-6" fill="none" fill-opacity=".612" fill-rule="evenodd" stroke="#000" stroke-linecap="butt" stroke-linejoin="miter" stroke-opacity="1" stroke-width="1.675" d="m 137.28817,286.1529 0,0" display="inline"/><path id="path7969" fill="none" fill-opacity=".612" fill-rule="evenodd" stroke="#000" stroke-linecap="butt" stroke-linejoin="miter" stroke-opacity="1" stroke-width="1" d="M 310.37874,253.20875 Z"/><rect id="rect7991" width="23.841" height="23.856" x="-78.119" y="251.92" fill="none" fill-opacity=".612" fill-rule="evenodd" stroke="#b50000" stroke-dasharray="none" stroke-miterlimit="4" stroke-opacity="0" stroke-width="23.622" opacity=".248" ry=".442" transform="scale(-1,1)"/><rect id="rect8007" width="22.495" height="27.214" x="-78.888" y="255.101" fill="none" fill-opacity=".612" fill-rule="evenodd" stroke="#b50000" stroke-dasharray="none" stroke-miterlimit="4" stroke-opacity="0" stroke-width="23.622" opacity=".248" ry="5.213" transform="scale(-1,1)"/><rect id="rect8009" width="247.954" height="34.117" x="-300.595" y="289.52" fill="none" fill-opacity=".612" fill-rule="evenodd" stroke="#000" stroke-dasharray="none" stroke-linecap="butt" stroke-linejoin="miter" stroke-miterlimit="4" stroke-opacity="1" stroke-width="5" ry="2.458" transform="scale(-1,1)"/><path id="path8835" fill="none" fill-opacity=".612" fill-rule="evenodd" stroke="#000" stroke-dasharray="none" stroke-linecap="butt" stroke-linejoin="miter" stroke-miterlimit="4" stroke-opacity="1" stroke-width="5" d="m 51.717388,164.26226 c 1.15126,125.65518 1.15126,125.65518 1.15126,125.65518"/><path id="path7892" fill="none" fill-opacity=".612" fill-rule="evenodd" stroke="#000" stroke-dasharray="none" stroke-linecap="butt" stroke-linejoin="miter" stroke-miterlimit="4" stroke-opacity="1" stroke-width="5" d="M 170.40813,49.739754 C 101.04495,87.524402 52.501068,140.34942 51.436178,171.06914 c -1.46207,42.17749 22.4897,90.04828 100.506942,117.89208" display="inline"/><path id="path7892-8" fill="none" fill-opacity=".612" fill-rule="evenodd" stroke="#000" stroke-dasharray="none" stroke-linecap="butt" stroke-linejoin="miter" stroke-miterlimit="4" stroke-opacity="1" stroke-width="5" d="m 182.19632,49.032897 c 69.36319,37.784648 117.90707,90.609673 118.97196,121.329383 1.46207,42.17748 -22.48971,90.04829 -100.50696,117.89208" display="inline"/><path id="path8883" fill="none" fill-opacity=".612" fill-rule="evenodd" stroke="#000" stroke-dasharray="none" stroke-linecap="butt" stroke-linejoin="miter" stroke-miterlimit="4" stroke-opacity="1" stroke-width="5" d="m 300.83826,166.66666 0.21256,124.28083"/><path id="path7965" fill="#e9dd9a" fill-opacity=".612" fill-rule="evenodd" stroke="#000" stroke-dasharray="none" stroke-linecap="butt" stroke-linejoin="miter" stroke-miterlimit="4" stroke-opacity="1" stroke-width="5" d="M 299.71611,306.8235 C 54.377353,306.12117 54.377353,306.12117 54.377353,306.12117" display="inline"/><path id="path8902" fill="none" fill-opacity=".612" fill-rule="evenodd" stroke="#000" stroke-dasharray="none" stroke-linecap="butt" stroke-linejoin="miter" stroke-miterlimit="4" stroke-opacity="1" stroke-width="5" d="m 120.51507,105.0482 c 5.334,45.48115 8.54723,91.65333 27.30884,130.69358 17.7851,17.6183 33.60003,13.05906 48.76577,1.19175 20.75566,-41.40083 26.76396,-87.17009 33.64836,-132.67983" display="inline"/><ellipse id="path8904" cx="-146.633" cy="144.685" fill="#e9dd9a" fill-opacity=".612" fill-rule="evenodd" stroke="#000" stroke-dasharray="none" stroke-miterlimit="4" stroke-opacity="1" stroke-width="7.004" display="inline" opacity=".248" rx="4.053" ry=".544" transform="scale(-1,1)"/><ellipse id="path8904-2" cx="-205.754" cy="144.862" fill="#e9dd9a" fill-opacity=".612" fill-rule="evenodd" stroke="#000" stroke-dasharray="none" stroke-miterlimit="4" stroke-opacity="1" stroke-width="7.004" display="inline" opacity=".248" rx="4.053" ry=".544" transform="scale(-1,1)"/><ellipse id="path8968" cx="-149.229" cy="93.969" fill="#e9dd9a" fill-opacity=".612" fill-rule="evenodd" stroke="#000" stroke-dasharray="none" stroke-miterlimit="4" stroke-opacity="1" stroke-width="7.475" display="inline" opacity=".248" rx=".346" ry="6.68" transform="scale(-1,1)"/><ellipse id="path8968-1" cx="-203.831" cy="93.969" fill="#e9dd9a" fill-opacity=".612" fill-rule="evenodd" stroke="#000" stroke-dasharray="none" stroke-miterlimit="4" stroke-opacity="1" stroke-width="7.475" display="inline" opacity=".248" rx=".346" ry="6.68" transform="scale(-1,1)"/><path id="path8987" fill="#e9dd9a" fill-opacity=".612" fill-rule="evenodd" stroke="#000" stroke-dasharray="none" stroke-linecap="butt" stroke-linejoin="miter" stroke-miterlimit="4" stroke-opacity="1" stroke-width="5" d="m 150.27216,72.546882 c -18.14748,17.042237 -14.41488,15.785673 -6.05183,38.365298" display="inline"/><path id="path8987-9" fill="#e9dd9a" fill-opacity=".612" fill-rule="evenodd" stroke="#000" stroke-dasharray="none" stroke-linecap="butt" stroke-linejoin="miter" stroke-miterlimit="4" stroke-opacity="1" stroke-width="5" d="m 201.4616,72.79368 c 18.14747,17.042227 14.41487,15.785664 6.05183,38.36529" display="inline"/><ellipse id="path8904-0" cx="-165.852" cy="236.497" fill="#e9dd9a" fill-opacity=".612" fill-rule="evenodd" stroke="#000" stroke-dasharray="none" stroke-miterlimit="4" stroke-opacity="1" stroke-width="6.293" display="inline" opacity=".248" rx=".617" ry="2.884" transform="scale(-1,1)"/><ellipse id="path8904-0-0" cx="-180.535" cy="235.997" fill="#e9dd9a" fill-opacity=".612" fill-rule="evenodd" stroke="#000" stroke-dasharray="none" stroke-miterlimit="4" stroke-opacity="1" stroke-width="6.293" display="inline" opacity=".248" rx=".617" ry="2.884" transform="scale(-1,1)"/></g></svg>