<svg xmlns="http://www.w3.org/2000/svg" xmlns:svg="http://www.w3.org/2000/svg" xmlns:xlink="http://www.w3.org/1999/xlink" id="svg2" width="50mm" height="50mm" fill-rule="evenodd" clip-rule="evenodd" image-rendering="optimizeQuality" shape-rendering="geometricPrecision" text-rendering="geometricPrecision" version="1.1" viewBox="0 0 50 50" xml:space="preserve"><metadata id="metadata23"/><defs id="defs21"><linearGradient id="linearGradient2175"><stop id="stop2177" offset="0" stop-color="#fff" stop-opacity="1"/><stop id="stop2179" offset="1" stop-color="#b7b7b7" stop-opacity="1"/></linearGradient><linearGradient id="linearGradient2181" x1="21.253" x2="46.231" y1="37.224" y2="37.224" gradientTransform="translate(0,0.17285449)" gradientUnits="userSpaceOnUse" xlink:href="#linearGradient2175"/><linearGradient id="linearGradient2175-737"><stop id="stop4164" offset="0" stop-color="#000" stop-opacity="1"/><stop id="stop4166" offset="1" stop-color="#484848" stop-opacity="1"/></linearGradient><linearGradient id="linearGradient4204" x1="32.303" x2="4.424" y1="28.761" y2="28.761" gradientTransform="matrix(0.97239256,0,0,0.9724434,0.74080288,0.96441533)" gradientUnits="userSpaceOnUse" xlink:href="#linearGradient2175-737"/><linearGradient id="linearGradient4169" x1="33.606" x2="1.823" y1="9.081" y2="9.081" gradientTransform="translate(0.42169941,-0.42108131)" gradientUnits="userSpaceOnUse" xlink:href="#linearGradient2175-737"/><linearGradient id="linearGradient8088" x1="19.847" x2="47.085" y1="26.287" y2="26.287" gradientTransform="translate(-0.1045276,-0.29692229)" gradientUnits="userSpaceOnUse" xlink:href="#linearGradient2175"/><linearGradient id="linearGradient8292" x1="17.893" x2="50.021" y1="22.783" y2="22.783" gradientTransform="matrix(0.98949804,0,0,0.99946454,0.1323159,0.19747071)" gradientUnits="userSpaceOnUse" xlink:href="#linearGradient2175"/><linearGradient id="linearGradient8111" x1="21.253" x2="46.013" y1="37.224" y2="37.224" gradientTransform="translate(0,-0.2824293)" gradientUnits="userSpaceOnUse" xlink:href="#linearGradient2175"/><linearGradient id="linearGradient8116" x1="32.921" x2="1.823" y1="9.081" y2="9.081" gradientTransform="translate(0.42169944,-0.4210813)" gradientUnits="userSpaceOnUse" xlink:href="#linearGradient2175-737"/><linearGradient id="linearGradient8118" x1="32.921" x2="1.823" y1="9.081" y2="9.081" gradientTransform="translate(0.42169927,-0.4210813)" gradientUnits="userSpaceOnUse" xlink:href="#linearGradient2175-737"/><linearGradient id="linearGradient8120" x1="32.921" x2="1.823" y1="9.081" y2="9.081" gradientTransform="translate(0.42169937,-0.42108129)" gradientUnits="userSpaceOnUse" xlink:href="#linearGradient2175-737"/><linearGradient id="linearGradient8122" x1="32.921" x2="1.823" y1="9.081" y2="9.081" gradientTransform="translate(0.42169943,-0.4210813)" gradientUnits="userSpaceOnUse" xlink:href="#linearGradient2175-737"/><linearGradient id="linearGradient8117" x1="17.893" x2="50.021" y1="22.783" y2="22.783" gradientTransform="matrix(0.98949804,0,0,0.99946454,0.1323159,0.19747071)" gradientUnits="userSpaceOnUse" xlink:href="#linearGradient2175"/><linearGradient id="linearGradient8119" x1="17.893" x2="50.021" y1="22.783" y2="22.783" gradientTransform="matrix(0.98949804,0,0,0.99946454,0.1323159,0.19747071)" gradientUnits="userSpaceOnUse" xlink:href="#linearGradient2175"/><linearGradient id="linearGradient8121" x1="17.893" x2="50.021" y1="22.783" y2="22.783" gradientTransform="matrix(0.98949804,0,0,0.99946454,0.1323159,0.19747071)" gradientUnits="userSpaceOnUse" xlink:href="#linearGradient2175"/><linearGradient id="linearGradient8123" x1="17.893" x2="50.021" y1="22.783" y2="22.783" gradientTransform="matrix(0.98949804,0,0,0.99946454,0.1323159,0.19747071)" gradientUnits="userSpaceOnUse" xlink:href="#linearGradient2175"/><linearGradient id="linearGradient8125" x1="17.893" x2="50.021" y1="22.783" y2="22.783" gradientTransform="matrix(0.98949804,0,0,0.99946454,0.1323159,0.19747071)" gradientUnits="userSpaceOnUse" xlink:href="#linearGradient2175"/></defs><g id="g8108"><g id="g8174" transform="translate(0,-0.17285449)"><path id="path4159" fill="url(#linearGradient4204)" fill-opacity="1" stroke="#000" stroke-dasharray="none" stroke-miterlimit="4" stroke-opacity="1" stroke-width="1" d="M 21.542225,25.562678 14.656268,8.4912334 14.659566,25.840723 5.535111,11.178717 8.8347682,30.182333 c 0,0 1.6777328,2.353474 2.1719928,3.690498 0.451038,1.220106 0.739706,2.540832 0.682017,3.838829 -0.08987,2.022175 -1.589004,5.865081 -1.589004,5.865081 3.172569,2.152309 8.943338,2.568272 15.031841,2.568272 6.088503,0 11.857202,-0.415993 15.029724,-2.568272 0,0 -1.499129,-3.842906 -1.589004,-5.865081 -0.05768,-1.297997 0.230979,-2.618723 0.682018,-3.838829 0.494261,-1.337025 2.171997,-3.690498 2.171997,-3.690498 L 44.462906,11.178717 35.601616,25.840722 35.341747,8.4912333 28.718958,25.562677 24.999008,7.1882111 Z"/><path id="path8109" fill="url(#linearGradient8111)" fill-opacity="1" d="m 37.435934,34.807291 c -3.07186,-0.83865 -7.196073,-1.262276 -12.304319,-1.262276 -5.150996,0 -9.266719,0.406617 -12.406998,1.262276 l 0.376555,2.558167 c 3.157358,-0.813235 7.144632,-1.194439 12.030443,-1.194439 4.860141,0 8.873084,0.398113 11.927765,1.194439 z"/><path id="path18" fill="url(#linearGradient2181)" fill-opacity="1" d="M 38.111832,43.169705 37.294249,40.213224 C 34.034212,39.476229 30.060174,39.10353 25.131615,39.10353 c -4.87722,0 -8.988197,0.372699 -12.265313,1.109694 l -0.817583,2.956481 c 3.174438,-0.957313 7.546857,-1.440171 13.082896,-1.440171 2.652557,0 5.099656,0.135572 7.367169,0.398213 2.276003,0.262541 4.149882,0.626836 5.613048,1.041958 z"/><g id="g8279" fill="url(#linearGradient8292)" fill-opacity="1" transform="matrix(1.0106134,0,0,1.0005357,-0.13372022,-0.02472201)"><path id="path8123" fill="url(#linearGradient8117)" fill-opacity="1" fill-rule="evenodd" stroke="none" stroke-linecap="butt" stroke-linejoin="miter" stroke-opacity="1" stroke-width=".282" d="m 39.517695,27.476117 0.976596,-5.847839 c 0.03154,-0.188843 -0.322276,-0.651118 -0.561763,-0.239929 l -3.325973,5.710528 c 0,0 0.654763,0.472858 0.922117,0.505919 0.267354,0.03306 1.989023,-0.128679 1.989023,-0.128679 z"/><path id="path8125" fill="url(#linearGradient8119)" fill-opacity="1" fill-rule="evenodd" stroke="none" stroke-linecap="butt" stroke-linejoin="miter" stroke-opacity="1" stroke-width=".282" d="m 33.53489,25.395169 -0.06537,-5.850595 c -0.0036,-0.321382 -0.619739,-0.435661 -0.736188,-0.127408 l -2.211868,5.855041 3.013425,0.122962 z"/><path id="path8130" fill="url(#linearGradient8121)" fill-opacity="1" fill-rule="evenodd" stroke="none" stroke-linecap="butt" stroke-linejoin="miter" stroke-opacity="1" stroke-width=".282" d="m 23.170487,25.5737 1.411107,-7.336055 c 0.06501,-0.337959 0.784796,-0.40191 0.860685,0 l 1.385208,7.336054 c -1.302098,-0.706331 -2.559921,-1.036331 -3.657,10e-7 z"/><path id="path8219" fill="url(#linearGradient8123)" fill-opacity="1" fill-rule="evenodd" stroke="none" stroke-linecap="butt" stroke-linejoin="miter" stroke-opacity="1" stroke-width=".282" d="M 10.231236,27.192343 9.387068,21.628278 C 9.358348,21.438986 9.709344,20.97716 9.948831,21.388349 l 3.325973,5.710528 c 0,0 -0.654763,0.472858 -0.922117,0.505919 -0.267354,0.03306 -2.121451,-0.412453 -2.121451,-0.412453 z"/><path id="path8221" fill="url(#linearGradient8125)" fill-opacity="1" fill-rule="evenodd" stroke="none" stroke-linecap="butt" stroke-linejoin="miter" stroke-opacity="1" stroke-width=".282" d="m 16.346469,25.395169 0.06537,-5.850595 c 0.0036,-0.321382 0.619739,-0.435661 0.736188,-0.127408 l 2.211868,5.855041 -3.013425,0.122962 z"/></g><path id="path8108" fill="none" fill-rule="evenodd" stroke="url(#linearGradient8088)" stroke-dasharray="none" stroke-linecap="round" stroke-linejoin="round" stroke-miterlimit="4" stroke-opacity="1" stroke-width="1.468" d="m 18.338683,25.142463 c 1.277426,0.759504 2.296214,1.177145 3.322129,1.074136 1.025914,-0.103008 2.058954,-0.726666 3.364886,-2.049759 1.305931,1.323093 2.339111,1.946751 3.365164,2.049759 1.026054,0.103009 2.044982,-0.314632 3.322408,-1.074136 m -13.374587,0 c -0.239725,-0.14253 -0.485596,-0.292787 -0.745353,-0.458306 -0.18682,0.233841 -0.378106,0.449388 -0.573221,0.650783 m -6.066582,1.79944 c 0.207169,0.165686 0.690209,0.290694 0.873229,0.300816 0.366039,0.02025 0.731128,0.01266 1.093457,-0.0253 1.449321,-0.151819 2.854504,-0.789487 4.099896,-2.074958 m 16.011734,0 c -0.195114,-0.201395 -0.386958,-0.416942 -0.573778,-0.650783 -0.259756,0.165519 -0.505072,0.315776 -0.744795,0.458306 m 1.318573,0.192477 c 1.245394,1.285471 2.650578,1.923139 4.099896,2.074958 1.449321,0.151819 1.661786,0.01952 1.974819,-0.203044"/></g><path id="path6" fill="url(#linearGradient4169)" fill-opacity="1" stroke="#000" stroke-dasharray="none" stroke-miterlimit="4" stroke-opacity="1" stroke-width="1" d="m 24.988521,9.8081231 c -0.77597,0 -1.440061,-0.2722956 -1.978401,-0.8168878 -0.538259,-0.5445923 -0.803879,-1.2078502 -0.803879,-1.9828466 0,-0.7680695 0.26562,-1.424318 0.803879,-1.9689103 0.53834,-0.5445921 1.202431,-0.8168883 1.978401,-0.8168883 0.762017,0 1.426109,0.2722962 1.978404,0.8168883 0.552212,0.5445923 0.82485,1.2008408 0.82485,1.9689103 0,0.7749964 -0.272638,1.4382543 -0.82485,1.9828466 -0.552295,0.5445922 -1.216387,0.8168878 -1.978404,0.8168878 z"/><path id="path10" fill="url(#linearGradient8116)" fill-opacity="1" stroke="#000" stroke-dasharray="none" stroke-miterlimit="4" stroke-opacity="1" stroke-width="1" d="m 14.670245,11.111145 c -0.782005,0 -1.445264,-0.26662 -1.989855,-0.806908 -0.544592,-0.5403676 -0.816889,-1.2069628 -0.816889,-1.9858578 0,-0.7648883 0.272297,-1.4244377 0.816889,-1.9717691 0.544591,-0.5473314 1.20785,-0.8209972 1.989855,-0.8209972 0.761061,0 1.417309,0.2736658 1.961902,0.8209972 0.544591,0.5473314 0.816887,1.2068808 0.816887,1.9717691 0,0.7788949 -0.272296,1.4454902 -0.816887,1.9858578 -0.544593,0.540288 -1.200841,0.806908 -1.961902,0.806908 z"/><path id="path12" fill="url(#linearGradient8118)" fill-opacity="1" stroke="#000" stroke-dasharray="none" stroke-miterlimit="4" stroke-opacity="1" stroke-width="1" d="m 35.327769,11.111145 c -0.774996,0 -1.431327,-0.26662 -1.968911,-0.806908 C 32.821277,9.7638691 32.54898,9.0972739 32.54898,8.3183789 c 0,-0.7648883 0.272297,-1.4244377 0.809878,-1.9717691 0.537584,-0.5473314 1.193915,-0.8209972 1.968911,-0.8209972 0.782006,0 1.445265,0.2736658 1.989856,0.8209972 0.544591,0.5473314 0.816888,1.2068808 0.816888,1.9717691 0,0.7788949 -0.272297,1.4454902 -0.816888,1.9858581 -0.544591,0.540288 -1.20785,0.806908 -1.989856,0.806908 z"/><path id="path14" fill="url(#linearGradient8120)" fill-opacity="1" stroke="#000" stroke-dasharray="none" stroke-miterlimit="4" stroke-opacity="1" stroke-width="1" d="m 5.5211873,13.801129 c -0.774288,0 -1.4300188,-0.272535 -1.96711,-0.810674 -0.5371738,-0.538057 -0.809221,-1.194964 -0.809221,-1.977577 0,-0.76173 0.2720472,-1.4186377 0.809221,-1.9706428 0.5370912,-0.5591027 1.192822,-0.8316386 1.96711,-0.8316386 0.7812086,0 1.4369396,0.2725359 1.9880368,0.8316386 0.5440943,0.552005 0.8161415,1.2089128 0.8161415,1.9706428 0,0.782613 -0.2720472,1.43952 -0.8161415,1.977577 -0.5510972,0.538139 -1.2068282,0.810674 -1.9880368,0.810674 z"/><path id="path16" fill="url(#linearGradient8122)" fill-opacity="1" stroke="#000" stroke-dasharray="none" stroke-miterlimit="4" stroke-opacity="1" stroke-width="1" d="m 44.469909,13.801129 c -0.774289,0 -1.437022,-0.272536 -1.981117,-0.810674 -0.544094,-0.538058 -0.816141,-1.194965 -0.816141,-1.977577 0,-0.76173 0.272047,-1.4186379 0.816141,-1.9706428 0.544095,-0.5591028 1.206828,-0.8316386 1.981117,-0.8316386 0.767285,0 1.423015,0.2725358 1.96711,0.8316386 0.544094,0.5520049 0.816141,1.2089128 0.816141,1.9706428 0,0.782612 -0.272047,1.439519 -0.816141,1.977577 -0.544095,0.538138 -1.199825,0.810674 -1.96711,0.810674 z"/></g></svg>