<svg xmlns="http://www.w3.org/2000/svg" xmlns:svg="http://www.w3.org/2000/svg" xmlns:xlink="http://www.w3.org/1999/xlink" id="svg2" width="50mm" height="50mm" fill-rule="evenodd" clip-rule="evenodd" image-rendering="optimizeQuality" shape-rendering="geometricPrecision" text-rendering="geometricPrecision" version="1.1" viewBox="0 0 50 50" xml:space="preserve"><metadata id="metadata13"/><defs id="defs11"><linearGradient id="linearGradient2165"><stop id="stop2167" offset="0" stop-color="#fff" stop-opacity="1"/><stop id="stop2169" offset="1" stop-color="#b7b7b7" stop-opacity="1"/></linearGradient><linearGradient id="linearGradient8171" x1="-20.066" x2="-2.772" y1="87.896" y2="87.896" gradientTransform="matrix(3.5433072,0,0,3.5433072,147.25848,-220.0108)" gradientUnits="userSpaceOnUse" xlink:href="#linearGradient2165"/><linearGradient id="linearGradient8476" x1="21.321" x2="38.599" y1="27.821" y2="27.821" gradientTransform="scale(3.5433072,3.5433072)" gradientUnits="userSpaceOnUse" xlink:href="#linearGradient2165"/></defs><g id="g8190" transform="translate(-75.443803,-0.766149)"><path id="path8192" fill="#000" fill-opacity="1" fill-rule="evenodd" d="m 86.081339,6.7686957 0,9.2967963 6.067777,4.241601 -0.564444,17.054048 c -2.516505,0 -6.632222,0.562619 -6.632222,4.216245 l 0,5.660982 15.49135,0 0.0706,0 15.49135,0 0,-5.660982 c 0,-3.653626 -4.11571,-4.216245 -6.63222,-4.216245 l -0.56444,-17.054048 6.06778,-4.241601 0,-9.2967963 -7.89065,0 0,3.3954853 -2.41267,0 0,-3.3954853 -4.09442,0 -4.09443,0 0,3.3954853 -2.41267,0 0,-3.3954853 -7.890647,0 z" clip-rule="evenodd" image-rendering="optimizeQuality" shape-rendering="geometricPrecision" text-rendering="geometricPrecision"/></g><path id="path8169" fill="url(#linearGradient8171)" fill-opacity="1" fill-rule="evenodd" d="m 43.570312,27.271484 0,20.96875 90.027348,0 0,-20.96875 -15.95704,0 0,12.027344 -20.54687,0 0,-12.027344 -8.513672,0 -8.503906,0 0,12.027344 -20.548828,0 0,-12.027344 z m 3.830079,26.939454 13.748047,9.058593 54.865232,0 13.75195,-9.058593 z m 15.664062,81.433592 -6,0.0234 c -4.011198,0.0157 -9.245063,0.58354 -12.650391,2.09765 -3.405327,1.51412 -4.84375,2.62374 -4.84375,6.84376 l 0,14.05468 48.886719,0 0.248047,0 48.894532,0 0,-14.05468 c 0,-4.22002 -1.44037,-5.32964 -4.8457,-6.84376 -3.40533,-1.51411 -8.64697,-2.09765 -12.65821,-2.09765 l -6,-0.0234 -25.639645,0 z" clip-rule="evenodd" image-rendering="optimizeQuality" shape-rendering="geometricPrecision" text-rendering="geometricPrecision" transform="scale(0.2822222,0.2822222)"/><path id="path8172" fill="none" fill-rule="evenodd" stroke="#000" stroke-dasharray="none" stroke-dashoffset="0" stroke-linecap="butt" stroke-linejoin="miter" stroke-miterlimit="4" stroke-opacity="1" stroke-width="1.665" d="M 9.75741,42.68501 40.242587,42.504309" clip-rule="evenodd" image-rendering="optimizeQuality" shape-rendering="geometricPrecision" text-rendering="geometricPrecision"/><path id="path8464" fill="#000" fill-opacity="1" fill-rule="evenodd" d="m 16.705313,19.540944 c 0,5.6845 -0.302089,15.093863 -1.693333,17.053497 -0.287129,0.404436 -0.797256,1.256378 -0.797256,1.256378 l 3.490518,-1.256378 0.564444,-17.053497 z" clip-rule="evenodd" image-rendering="optimizeQuality" shape-rendering="geometricPrecision" text-rendering="geometricPrecision"/><path id="path8445" fill="#000" fill-opacity="1" fill-rule="evenodd" d="m 33.365287,19.540944 c 0,5.6845 0.302089,15.093863 1.693333,17.053497 0.287129,0.404436 0.797256,1.256378 0.797256,1.256378 L 32.365358,36.594441 31.800914,19.540944 Z" clip-rule="evenodd" image-rendering="optimizeQuality" shape-rendering="geometricPrecision" text-rendering="geometricPrecision"/><path id="path8431" fill="url(#linearGradient8476)" fill-opacity="1" fill-rule="evenodd" d="M 65.191406 69.242188 C 65.191406 89.384117 64.121011 122.72438 59.191406 129.66797 L 68.734375 129.66797 L 88.707031 129.66797 L 108.67969 129.66797 L 118.22266 129.66797 C 113.29305 122.72438 112.22266 89.384114 112.22266 69.242188 L 108.67969 69.242188 L 88.707031 69.242188 L 68.734375 69.242188 L 65.191406 69.242188 z" clip-rule="evenodd" image-rendering="optimizeQuality" shape-rendering="geometricPrecision" text-rendering="geometricPrecision" transform="scale(0.2822222,0.2822222)"/></svg>