<svg xmlns="http://www.w3.org/2000/svg" xmlns:svg="http://www.w3.org/2000/svg" id="svg2" width="100%" height="100%" version="1.1" viewBox="0 0 2048 2048"><metadata id="metadata12"/><g id="g4" transform="matrix(1 0 0 -1 0 2048)"><path id="path6" fill="#000" d="M1024 205h-641l29 264l159 118l50 659l-149 107l-17 341h289v-147h137v147h143h143v-147h137v147h289l-17 -341l-149 -107l50 -659l159 -118l29 -264h-641zM1024 1194h333l-6 88h-327h-327l-6 -88h333zM1024 547h381l-6 87h-375h-375l-6 -87h381z"/></g><path id="path2989" fill="#ececec" fill-opacity="1" stroke="#000" stroke-dasharray="none" stroke-dashoffset="0" stroke-linecap="round" stroke-linejoin="miter" stroke-miterlimit="3.8" stroke-opacity="1" stroke-width="0" d="m 650.84746,1457.0305 0,-39.0508 373.15254,0 373.1525,0 0,39.0508 0,39.0509 -373.1525,0 -373.15254,0 0,-39.0509 z"/><path id="path2991" fill="#ececec" fill-opacity="1" stroke="#000" stroke-dasharray="none" stroke-dashoffset="0" stroke-linecap="round" stroke-linejoin="miter" stroke-miterlimit="3.8" stroke-opacity="1" stroke-width="0" d="m 694.23729,837.64068 c 0,-8.94915 2.44068,-28.47458 5.42373,-43.38983 l 5.42373,-27.11865 318.91525,0 318.9153,0 5.4237,27.11865 c 13.0658,65.32909 43.8795,59.66101 -324.339,59.66101 -316.64934,0 -329.76271,-0.64703 -329.76271,-16.27118 z"/></svg>