<svg xmlns="http://www.w3.org/2000/svg" xmlns:cc="http://web.resource.org/cc/" xmlns:svg="http://www.w3.org/2000/svg" id="svg2186" width="49.934" height="36.077" version="1.0"><metadata id="metadata2191"/><g id="layer1" transform="translate(53.538245,-508.60933)"><path id="rect5702" fill="#e3ddd4" fill-opacity="1" stroke="none" stroke-dashoffset="0" stroke-linejoin="miter" stroke-miterlimit="4" stroke-opacity="1" stroke-width="11.3" d="M -50.385987,509.88388 L -6.6183207,509.88388 C -5.5103207,509.88388 -4.6183207,510.77588 -4.6183207,511.88388 L -4.6183207,541.6086 C -4.6183207,542.7166 -5.5103207,543.6086 -6.6183207,543.6086 L -50.385987,543.6086 C -51.493987,543.6086 -52.385987,542.7166 -52.385987,541.6086 L -52.385987,511.88388 C -52.385987,510.77588 -51.493987,509.88388 -50.385987,509.88388 z"/><rect id="rect5596" width="11.72" height="47.904" x="509.61" y="-52.538" fill="#18b0ff" fill-opacity="1" stroke="#575757" stroke-dasharray="2 2" stroke-dashoffset="0" stroke-linejoin="miter" stroke-miterlimit="4" stroke-opacity="1" stroke-width="2" rx="2" ry="2" transform="matrix(0,1,1,0,0,0)"/><path id="path5598" fill="#000" fill-opacity="1" fill-rule="evenodd" stroke="none" stroke-linecap="butt" stroke-linejoin="miter" stroke-opacity="1" stroke-width="1" d="M -35.470822,538.05769 L -28.586404,529.05481 L -21.701774,538.05769 L -35.470822,538.05769 z"/><rect id="rect5600" width="47.933" height="34.077" x="-52.537" y="-543.686" fill="none" fill-opacity="1" stroke="#575757" stroke-dasharray="none" stroke-dashoffset="36.609" stroke-linejoin="miter" stroke-miterlimit="4" stroke-opacity="1" stroke-width="2" rx="2" ry="2" transform="scale(1,-1)"/></g></svg>