<svg xmlns="http://www.w3.org/2000/svg" xmlns:cc="http://web.resource.org/cc/" xmlns:svg="http://www.w3.org/2000/svg" id="svg5624" width="49.934" height="45.793" version="1.0"><metadata id="metadata34"/><path id="path3151" fill="#e3ddd4" fill-opacity="1" stroke="#575757" stroke-dasharray="none" stroke-dashoffset="36.609" stroke-linejoin="miter" stroke-miterlimit="4" stroke-opacity="1" stroke-width="2" d="M 3.0840738,1.0266791 C 1.9295033,1.0266791 0.99999845,1.9561839 0.99999845,3.1107648 L 0.99999845,42.708487 C 0.99999845,43.863078 1.9295033,44.792593 3.0840738,44.792593 L 46.850029,44.792593 C 48.00462,44.792593 48.934135,43.863078 48.934135,42.708487 L 48.934135,12.489202 C 48.934135,11.334611 48.00462,10.405106 46.850029,10.405106 L 20.929128,10.405106 C 20.397901,10.405106 19.756822,9.7894681 19.756822,9.195501 L 19.756822,3.1107648 C 19.756822,1.9561839 18.827317,1.0266791 17.672725,1.0266791 L 3.0840738,1.0266791 z"/><path id="path3153" fill="#d4cec5" fill-opacity="1" stroke="#575757" stroke-dashoffset="36.609" stroke-linejoin="miter" stroke-miterlimit="4" stroke-opacity="1" stroke-width="2" d="M 21.840918,0.99999845 L 36.42958,0.99999845 C 37.584171,0.99999845 38.513676,1.9295033 38.513676,3.0840945 L 38.513676,8.2943398 C 38.513676,9.4489206 37.584171,10.378425 36.42958,10.378425 L 21.840918,10.378425 C 20.686337,10.378425 19.756832,9.4489206 19.756832,8.2943398 L 19.756832,3.0840945 C 19.756832,1.9295033 20.686337,0.99999845 21.840918,0.99999845 z"/><path id="path4154" fill="#18b0ff" fill-opacity="1" stroke="#575757" stroke-dasharray="2 2" stroke-dashoffset="0" stroke-linejoin="miter" stroke-miterlimit="4" stroke-opacity="1" stroke-width="2" d="M 6.8889217,5.1946646 C 5.9351325,5.1946646 5.1672816,5.9470216 5.1672816,6.8817324 L 5.1672816,38.937106 C 5.1672816,39.87162 5.9351325,40.624194 6.8889217,40.624194 L 43.043415,40.624194 C 43.997194,40.624194 44.765055,39.87162 44.765055,38.937106 L 44.765055,16.148665 C 44.765055,15.213944 43.997194,14.46139 43.043415,14.46139 L 16.606336,14.46139 C 16.167495,14.46139 15.637911,13.963073 15.637911,13.482274 L 15.637911,6.8817324 C 15.637911,5.9470216 14.87006,5.1946646 13.916271,5.1946646 L 6.8889217,5.1946646 z"/></svg>