<svg xmlns="http://www.w3.org/2000/svg" xmlns:cc="http://web.resource.org/cc/" xmlns:svg="http://www.w3.org/2000/svg" id="svg2198" width="49.934" height="36.078" version="1.0"><metadata id="metadata2203"/><g id="layer1" transform="translate(567.82391,-497.18042)"><path id="rect3165" fill="#e3ddd4" fill-opacity="1" stroke="none" stroke-dashoffset="0" stroke-linejoin="miter" stroke-miterlimit="4" stroke-opacity="1" stroke-width="11.3" d="M -564.61092,498.45491 L -520.84235,498.45491 C -519.73435,498.45491 -518.84235,499.34691 -518.84235,500.45491 L -518.84235,530.18027 C -518.84235,531.28827 -519.73435,532.18027 -520.84235,532.18027 L -564.61092,532.18027 C -565.71892,532.18027 -566.61092,531.28827 -566.61092,530.18027 L -566.61092,500.45491 C -566.61092,499.34691 -565.71892,498.45491 -564.61092,498.45491 z"/><rect id="rect5604" width="17.013" height="34.078" x="518.89" y="498.18" fill="#18b0ff" fill-opacity="1" stroke="#575757" stroke-dasharray="2 2" stroke-dashoffset="0" stroke-linejoin="miter" stroke-miterlimit="4" stroke-opacity="1" stroke-width="2" rx="2" ry="2" transform="scale(-1,1)"/><path id="path5606" fill="#000" fill-opacity="1" fill-rule="evenodd" stroke="none" stroke-linecap="butt" stroke-linejoin="miter" stroke-opacity="1" stroke-width="1" d="M -556.91382,508.3346 L -547.91068,515.21915 L -556.91382,522.10392 L -556.91382,508.3346 z"/><rect id="rect5608" width="47.934" height="34.078" x="-566.824" y="498.18" fill="none" fill-opacity="1" stroke="#575757" stroke-dasharray="none" stroke-dashoffset="36.609" stroke-linejoin="miter" stroke-miterlimit="4" stroke-opacity="1" stroke-width="2" rx="2" ry="2"/></g></svg>