<svg xmlns="http://www.w3.org/2000/svg" xmlns:cc="http://web.resource.org/cc/" xmlns:svg="http://www.w3.org/2000/svg" id="svg2222" width="49.934" height="36.078" version="1.0"><metadata id="metadata2227"/><g id="layer1" transform="translate(-335.0332,-254.32329)"><path id="rect3193" fill="#e3ddd4" fill-opacity="1" stroke="none" stroke-dashoffset="0" stroke-linejoin="miter" stroke-miterlimit="4" stroke-opacity="1" stroke-width="11.3" d="M 337.94978,255.59776 L 381.71835,255.59776 C 382.82635,255.59776 383.71835,256.48976 383.71835,257.59776 L 383.71835,287.32313 C 383.71835,288.43113 382.82635,289.32313 381.71835,289.32313 L 337.94978,289.32313 C 336.84178,289.32313 335.94978,288.43113 335.94978,287.32313 L 335.94978,257.59776 C 335.94978,256.48976 336.84178,255.59776 337.94978,255.59776 z"/><rect id="rect5618" width="17.013" height="34.078" x="336.033" y="255.323" fill="#18b0ff" fill-opacity="1" stroke="#575757" stroke-dasharray="2 2" stroke-dashoffset="0" stroke-linejoin="miter" stroke-miterlimit="4" stroke-opacity="1" stroke-width="2" rx="2" ry="2"/><path id="path5620" fill="#000" fill-opacity="1" fill-rule="evenodd" stroke="none" stroke-linecap="butt" stroke-linejoin="miter" stroke-opacity="1" stroke-width="1" d="M 374.05667,265.47746 L 365.05354,272.36201 L 374.05667,279.24677 L 374.05667,265.47746 z"/><rect id="rect5622" width="47.934" height="34.078" x="-383.967" y="255.323" fill="none" fill-opacity="1" stroke="#575757" stroke-dasharray="none" stroke-dashoffset="36.609" stroke-linejoin="miter" stroke-miterlimit="4" stroke-opacity="1" stroke-width="2" rx="2" ry="2" transform="scale(-1,1)"/></g></svg>