<svg xmlns="http://www.w3.org/2000/svg" xmlns:cc="http://web.resource.org/cc/" xmlns:svg="http://www.w3.org/2000/svg" id="svg2210" width="49.934" height="36.077" version="1.0"><metadata id="metadata2215"/><g id="layer1" transform="translate(-500.74747,-465.7522)"><path id="rect3167" fill="#e3ddd4" fill-opacity="1" stroke="none" stroke-dashoffset="0" stroke-linejoin="miter" stroke-miterlimit="4" stroke-opacity="1" stroke-width="11.3" d="M 503.81275,467.02673 L 547.58042,467.02673 C 548.68842,467.02673 549.58042,467.91873 549.58042,469.02673 L 549.58042,498.75146 C 549.58042,499.85946 548.68842,500.75146 547.58042,500.75146 L 503.81275,500.75146 C 502.70475,500.75146 501.81275,499.85946 501.81275,498.75146 L 501.81275,469.02673 C 501.81275,467.91873 502.70475,467.02673 503.81275,467.02673 z"/><rect id="rect5610" width="11.72" height="47.904" x="-500.829" y="501.747" fill="#18b0ff" fill-opacity="1" stroke="#575757" stroke-dasharray="2 2" stroke-dashoffset="0" stroke-linejoin="miter" stroke-miterlimit="4" stroke-opacity="1" stroke-width="2" rx="2" ry="2" transform="matrix(0,-1,1,0,0,0)"/><path id="path5612" fill="#000" fill-opacity="1" fill-rule="evenodd" stroke="none" stroke-linecap="butt" stroke-linejoin="miter" stroke-opacity="1" stroke-width="1" d="M 518.81491,472.38074 L 525.69933,481.38359 L 532.58396,472.38074 L 518.81491,472.38074 z"/><rect id="rect5614" width="47.933" height="34.077" x="501.748" y="466.752" fill="none" fill-opacity="1" stroke="#575757" stroke-dasharray="none" stroke-dashoffset="36.609" stroke-linejoin="miter" stroke-miterlimit="4" stroke-opacity="1" stroke-width="2" rx="2" ry="2"/></g></svg>