<svg xmlns="http://www.w3.org/2000/svg" xmlns:cc="http://web.resource.org/cc/" xmlns:svg="http://www.w3.org/2000/svg" id="svg2" width="83.39" height="83.39" version="1.0"><metadata id="metadata7"/><g id="layer1" transform="translate(472.0828,-784.41402)"><path id="path2170" fill="#babdb6" fill-opacity="1" stroke="none" stroke-dasharray="none" stroke-linecap="round" stroke-linejoin="miter" stroke-miterlimit="4" stroke-opacity="1" stroke-width="20" d="M -430.05092,791.63977 C -427.21055,793.31694 -424.53549,795.38744 -422.09597,797.82696 C -406.48306,813.43988 -406.48305,838.78258 -422.09597,854.3955 C -424.53549,856.83502 -427.21055,858.90552 -430.05092,860.58269 L -422.82517,867.80843 C -420.07198,865.98636 -417.44934,863.89101 -415.0249,861.46657 C -395.50875,841.95042 -395.50875,810.27204 -415.0249,790.75589 C -417.44934,788.33145 -420.07198,786.2361 -422.82517,784.41403 L -430.05092,791.63977 z"/><path id="path2166" fill="#888a85" fill-opacity="1" stroke="none" stroke-dasharray="none" stroke-linecap="round" stroke-linejoin="miter" stroke-miterlimit="4" stroke-opacity="1" stroke-width="20" d="M -445.20952,806.79838 C -441.92172,807.67386 -438.81548,809.39172 -436.2381,811.96909 C -428.43164,819.77555 -428.43164,832.44691 -436.2381,840.25337 C -438.81548,842.83074 -441.92172,844.5486 -445.20952,845.42408 L -437.45344,853.18016 C -434.4561,851.75049 -431.64803,849.80542 -429.16704,847.32443 C -417.45735,835.61475 -417.45735,816.60772 -429.16704,804.89803 C -431.64803,802.41704 -434.4561,800.47197 -437.45344,799.0423 L -445.20952,806.79838 z"/><path id="path2160" fill="#555753" fill-opacity="1" stroke="none" stroke-dasharray="none" stroke-linecap="round" stroke-linejoin="miter" stroke-miterlimit="4" stroke-opacity="1" stroke-width="20" d="M 195.9696 543.75037 A 11.616755 10.606602 0 1 1 172.73609,543.75037 A 11.616755 10.606602 0 1 1 195.9696 543.75037 z" transform="matrix(0.6086956,-0.6086956,0.6666667,0.6666667,-925.10432,575.8167)"/></g></svg>