<svg xmlns="http://www.w3.org/2000/svg" xmlns:svg="http://www.w3.org/2000/svg" xmlns:xlink="http://www.w3.org/1999/xlink" id="svg2" width="16" height="16" version="1.0"><defs id="defs4"><linearGradient id="linearGradient7295"><stop id="stop7297" offset="0" stop-color="#8e8e80" stop-opacity="1"/><stop id="stop7305" offset=".25" stop-color="#929287" stop-opacity="1"/><stop id="stop7303" offset=".5" stop-color="#cbcbc5" stop-opacity="1"/><stop id="stop7299" offset="1" stop-color="#858577" stop-opacity="1"/></linearGradient><linearGradient id="linearGradient7279"><stop id="stop7281" offset="0" stop-color="#a3a398" stop-opacity="1"/><stop id="stop7283" offset="1" stop-color="#a3a398" stop-opacity="0"/></linearGradient><linearGradient id="linearGradient7261"><stop id="stop7263" offset="0" stop-color="#a3a399" stop-opacity="1"/><stop id="stop7273" offset=".5" stop-color="#a3a399" stop-opacity="1"/><stop id="stop7275" offset=".75" stop-color="#eaeaca" stop-opacity="1"/><stop id="stop7265" offset="1" stop-color="#a3a399" stop-opacity="1"/></linearGradient><linearGradient id="linearGradient7253"><stop id="stop7255" offset="0" stop-color="#000" stop-opacity="1"/><stop id="stop7269" offset=".5" stop-color="#0b0808" stop-opacity="1"/><stop id="stop7271" offset=".75" stop-color="#141414" stop-opacity="1"/><stop id="stop7277" offset=".875" stop-color="#000" stop-opacity="1"/><stop id="stop7257" offset="1" stop-color="#000" stop-opacity="1"/></linearGradient><marker id="Arrow1Lstart" orient="auto" overflow="visible" refX="0" refY="0"><path id="path6254" fill-rule="evenodd" stroke="#000" stroke-width="1pt" marker-start="none" d="M 0.0,0.0 L 5.0,-5.0 L -12.5,0.0 L 5.0,5.0 L 0.0,0.0 z" transform="scale(0.8) translate(12.5,0)"/></marker><linearGradient id="linearGradient2519" x1="35.213" x2="20.774" y1="32.307" y2="17.868" gradientUnits="userSpaceOnUse" xlink:href="#linearGradient3344"/><linearGradient id="linearGradient2521" x1="53.182" x2="38.743" y1="15.226" y2=".786" gradientUnits="userSpaceOnUse" xlink:href="#linearGradient3344"/><linearGradient id="linearGradient2523" x1="53.714" x2="39.274" y1="32.726" y2="18.286" gradientUnits="userSpaceOnUse" xlink:href="#linearGradient3344"/><linearGradient id="linearGradient4356"><stop id="stop4358" offset="0" stop-color="#fff" stop-opacity="1"/><stop id="stop4366" offset=".542" stop-color="#cecece" stop-opacity=".749"/><stop id="stop4364" offset=".634" stop-color="#959595" stop-opacity=".498"/><stop id="stop4360" offset="1" stop-color="#fff" stop-opacity="0"/></linearGradient><linearGradient id="linearGradient3344"><stop id="stop3346" offset="0" stop-color="#fff" stop-opacity="0"/><stop id="stop3348" offset="1" stop-color="#fff" stop-opacity="1"/></linearGradient><linearGradient id="linearGradient3324"><stop id="stop3326" offset="0" stop-color="#000" stop-opacity="0"/><stop id="stop3328" offset="1" stop-color="#fff" stop-opacity="1"/></linearGradient><linearGradient id="linearGradient3211"><stop id="stop3213" offset="0" stop-color="#babdb6" stop-opacity="1"/><stop id="stop3219" offset=".259" stop-color="#f2f2f1" stop-opacity="1"/><stop id="stop3221" offset=".518" stop-color="#000" stop-opacity="1"/><stop id="stop3223" offset=".759" stop-color="#f1f1f0" stop-opacity="1"/><stop id="stop3215" offset="1" stop-color="#babdb6" stop-opacity="1"/></linearGradient><linearGradient id="linearGradient2430"><stop id="stop2432" offset="0" stop-color="#d6d6d1" stop-opacity="1"/><stop id="stop2434" offset="1" stop-color="#eeeeec" stop-opacity="1"/></linearGradient><linearGradient id="linearGradient3350" x1="35.213" x2="20.774" y1="32.307" y2="17.868" gradientUnits="userSpaceOnUse" xlink:href="#linearGradient3344"/><linearGradient id="linearGradient3383" x1="35" x2="21" y1="15" y2="1" gradientUnits="userSpaceOnUse" xlink:href="#linearGradient3344"/><linearGradient id="linearGradient3398" x1="53.714" x2="39.274" y1="32.726" y2="18.286" gradientUnits="userSpaceOnUse" xlink:href="#linearGradient3344"/><clipPath id="clipPath6694" clipPathUnits="userSpaceOnUse"><path id="path6696" d="M 0,648.06 L 432,648.06 L 432,0.06 L 0,0.06 L 0,648.06 z"/></clipPath><clipPath id="clipPath6686" clipPathUnits="userSpaceOnUse"><path id="path6688" d="M 0,648 L 432,648 L 432,0 L 0,0 L 0,648 z"/></clipPath><clipPath id="clipPath6678" clipPathUnits="userSpaceOnUse"><path id="path6680" d="M 262.975,549.378 L 396,549.378 L 396,507.171 L 262.975,507.171 L 262.975,549.378 z" clip-rule="evenodd"/></clipPath><clipPath id="clipPath6668" clipPathUnits="userSpaceOnUse"><path id="path6670" d="M 0,648.06 L 432,648.06 L 432,0.06 L 0,0.06 L 0,648.06 z"/></clipPath><clipPath id="clipPath6662" clipPathUnits="userSpaceOnUse"><path id="path6664" d="M 0,648 L 432,648 L 432,0 L 0,0 L 0,648 z"/></clipPath><clipPath id="clipPath6656" clipPathUnits="userSpaceOnUse"><path id="path6658" d="M 262.975,549.378 L 396,549.378 L 396,507.171 L 262.975,507.171 L 262.975,549.378 z" clip-rule="evenodd"/></clipPath><clipPath id="clipPath6598" clipPathUnits="userSpaceOnUse"><path id="path6600" d="M 0,648.06 L 432,648.06 L 432,0.06 L 0,0.06 L 0,648.06 z"/></clipPath><clipPath id="clipPath6592" clipPathUnits="userSpaceOnUse"><path id="path6594" d="M 0,648 L 432,648 L 432,0 L 0,0 L 0,648 z"/></clipPath><clipPath id="clipPath6554" clipPathUnits="userSpaceOnUse"><path id="path6556" d="M 0,648.06 L 432,648.06 L 432,0.06 L 0,0.06 L 0,648.06 z"/></clipPath><clipPath id="clipPath6546" clipPathUnits="userSpaceOnUse"><path id="path6548" d="M 0,648 L 432,648 L 432,0 L 0,0 L 0,648 z"/></clipPath><clipPath id="clipPath6538" clipPathUnits="userSpaceOnUse"><path id="path6540" d="M 7.832,259.865 L 214.833,259.865 L 214.833,126 L 7.832,126 L 7.832,259.865 z" clip-rule="evenodd"/></clipPath><clipPath id="clipPath6528" clipPathUnits="userSpaceOnUse"><path id="path6530" d="M 0,648.06 L 432,648.06 L 432,0.06 L 0,0.06 L 0,648.06 z"/></clipPath><clipPath id="clipPath6522" clipPathUnits="userSpaceOnUse"><path id="path6524" d="M 0,648 L 432,648 L 432,0 L 0,0 L 0,648 z"/></clipPath><clipPath id="clipPath6516" clipPathUnits="userSpaceOnUse"><path id="path6518" d="M 7.832,259.865 L 214.833,259.865 L 214.833,126 L 7.832,126 L 7.832,259.865 z" clip-rule="evenodd"/></clipPath><linearGradient id="linearGradient4397" x1="53.182" x2="38.743" y1="15.226" y2=".786" gradientUnits="userSpaceOnUse" xlink:href="#linearGradient3344"/><linearGradient id="linearGradient2517" x1="35" x2="21" y1="15" y2="1" gradientUnits="userSpaceOnUse" xlink:href="#linearGradient3344"/><linearGradient id="linearGradient7259" x1="23.361" x2="31.58" y1="22.045" y2="22.045" gradientUnits="userSpaceOnUse" xlink:href="#linearGradient7253"/><linearGradient id="linearGradient7267" x1="23.361" x2="31.58" y1="22.045" y2="22.045" gradientUnits="userSpaceOnUse" xlink:href="#linearGradient7261"/><linearGradient id="linearGradient7285" x1="27.252" x2="32.648" y1="29.986" y2="29.986" gradientUnits="userSpaceOnUse" xlink:href="#linearGradient7279"/><linearGradient id="linearGradient7301" x1="5.264" x2="12.673" y1="10.578" y2="10.578" gradientTransform="matrix(0.91930479,0,0,0.9237504,20.42564,17.520536)" gradientUnits="userSpaceOnUse" xlink:href="#linearGradient7295"/></defs><metadata id="metadata7"/><g id="layer1"><g id="g4426" transform="translate(-19.99989,-17.09386)"><path id="rect3385" fill="#eeeeec" fill-opacity="1" stroke="#000" stroke-dasharray="none" stroke-dashoffset="0" stroke-linecap="butt" stroke-linejoin="miter" stroke-miterlimit="4" stroke-opacity="1" stroke-width=".5" d="m 22.375,17.34375 c -1.178947,0 -2.125,0.946053 -2.125,2.125 l 0,5.979518 0,5.270482 c 0,1.178947 0.946053,2.125 2.125,2.125 l 2.59375,0 c 1.022239,-0.01225 6.416005,0.04554 8.648865,0.02732 1.064641,-0.0087 2.13823,-0.83771 2.135755,-2.062668 -0.0077,-3.809034 0.021,-10.025702 0.007,-11.349025 -0.01281,-1.20983 -0.894322,-2.195052 -2.133831,-2.115632 z"/><path id="path6228" fill="url(#linearGradient7301)" fill-opacity="1" stroke="#000" stroke-dasharray="none" stroke-linecap="round" stroke-linejoin="round" stroke-miterlimit="4" stroke-opacity="1" stroke-width=".78" marker-mid="none" marker-start="none" d="m 25.654186,23.091906 c 0.820777,1.576888 1.478852,2.928203 2.285653,4.594923 -0.658432,0.684308 -0.712145,1.191985 -0.725772,1.755861 -0.03125,1.293118 1.087864,2.269865 2.378414,2.330821 1.32324,0.0625 2.371799,-1.131777 2.344642,-2.268321 -0.03125,-1.307836 -1.03958,-2.476551 -2.263501,-2.424572 l -1.951001,-3.959845 z"/><rect id="rect6238" width="2.342" height=".133" x="8.176" y="4.023" fill="#eeeeec" fill-opacity="1" stroke="#000" stroke-dasharray="none" stroke-linecap="round" stroke-linejoin="round" stroke-miterlimit="4" stroke-opacity="1" stroke-width="0" rx="2.128" ry=".133" transform="translate(19.99989,17.09386)"/><g id="g6245" transform="matrix(0.9416135,0,0,1.452432,1.2311654,-10.852897)"><path id="path6224" fill="url(#linearGradient7267)" fill-opacity="1" stroke="url(#linearGradient7259)" stroke-dasharray="none" stroke-linecap="butt" stroke-linejoin="miter" stroke-miterlimit="4" stroke-opacity="1" stroke-width=".635" d="m 23.679035,20.371955 7.568237,0.01228 -0.0023,0.701686 -0.148473,0.237179 0.165637,0.218384 -0.01043,2.162781 -0.811261,0.0018 -0.418098,-0.207723 -5.098362,-0.01904 -0.442044,0.239476 -0.783127,-0.0095 -0.01663,-2.145268 0.184137,-0.226148 -0.185386,-0.251963 z" opacity="1"/><path id="path6243" fill="none" stroke="#000" stroke-linecap="butt" stroke-linejoin="miter" stroke-opacity="1" stroke-width=".451" d="m 23.733501,21.346307 c 1.30555,0 2.377604,1.17e-4 3.257923,0 2.534727,-3.36e-4 3.261806,-0.01399 3.489491,-0.0106 0.09079,0.0014 0.505387,0.003 0.505387,0.003" opacity=".7"/></g><path id="path6236" fill="#eeeeec" fill-opacity="1" stroke="#000" stroke-dasharray="none" stroke-linecap="round" stroke-linejoin="round" stroke-miterlimit="4" stroke-opacity="1" stroke-width=".412" d="m 11,13.21875 a 0.59375,0.53125 0 1 1 -1.1875,0 0.59375,0.53125 0 1 1 1.1875,0 z" transform="matrix(1.5418112,0,0,1.7399716,13.515651,6.423942)"/><rect id="rect3334" width="13.988" height="13.988" x="21" y="18.094" fill="none" fill-opacity="1" stroke="url(#linearGradient2519)" stroke-dasharray="none" stroke-dashoffset="0" stroke-linecap="butt" stroke-linejoin="miter" stroke-miterlimit="4" stroke-opacity="1" stroke-width=".451" rx="1.92" ry="1.92"/></g></g></svg>