<svg xmlns="http://www.w3.org/2000/svg" xmlns:svg="http://www.w3.org/2000/svg" xmlns:xlink="http://www.w3.org/1999/xlink" id="svg2" width="16" height="16" version="1.0"><defs id="defs4"><linearGradient id="linearGradient3846"><stop id="stop3848" offset="0" stop-color="#000" stop-opacity="1"/><stop id="stop3850" offset="1" stop-color="#291c7f" stop-opacity="1"/></linearGradient><linearGradient id="linearGradient3888"><stop id="stop3890" offset="0" stop-color="#140e3c" stop-opacity="1"/><stop id="stop3892" offset="1" stop-color="#3726a5" stop-opacity="1"/></linearGradient><linearGradient id="linearGradient3866"><stop id="stop3868" offset="0" stop-color="#d7cdce" stop-opacity=".884"/><stop id="stop3870" offset="1" stop-color="#504447" stop-opacity=".87"/></linearGradient><linearGradient id="linearGradient3850"><stop id="stop3852" offset="0" stop-color="#000" stop-opacity="1"/><stop id="stop3854" offset="1" stop-color="#000" stop-opacity="0"/></linearGradient><linearGradient id="linearGradient2521" x1="53.182" x2="38.743" y1="15.226" y2=".786" gradientUnits="userSpaceOnUse" xlink:href="#linearGradient3344"/><linearGradient id="linearGradient2523" x1="53.714" x2="39.274" y1="32.726" y2="18.286" gradientUnits="userSpaceOnUse" xlink:href="#linearGradient3344"/><linearGradient id="linearGradient4356"><stop id="stop4358" offset="0" stop-color="#fff" stop-opacity="1"/><stop id="stop4366" offset=".542" stop-color="#cecece" stop-opacity=".749"/><stop id="stop4364" offset=".634" stop-color="#959595" stop-opacity=".498"/><stop id="stop4360" offset="1" stop-color="#fff" stop-opacity="0"/></linearGradient><linearGradient id="linearGradient3344"><stop id="stop3346" offset="0" stop-color="#fff" stop-opacity="0"/><stop id="stop3348" offset="1" stop-color="#fff" stop-opacity="1"/></linearGradient><linearGradient id="linearGradient3324"><stop id="stop3326" offset="0" stop-color="#000" stop-opacity="0"/><stop id="stop3328" offset="1" stop-color="#fff" stop-opacity="1"/></linearGradient><linearGradient id="linearGradient3211"><stop id="stop3213" offset="0" stop-color="#babdb6" stop-opacity="1"/><stop id="stop3219" offset=".259" stop-color="#f2f2f1" stop-opacity="1"/><stop id="stop3221" offset=".518" stop-color="#000" stop-opacity="1"/><stop id="stop3223" offset=".759" stop-color="#f1f1f0" stop-opacity="1"/><stop id="stop3215" offset="1" stop-color="#babdb6" stop-opacity="1"/></linearGradient><linearGradient id="linearGradient2430"><stop id="stop2432" offset="0" stop-color="#d6d6d1" stop-opacity="1"/><stop id="stop2434" offset="1" stop-color="#eeeeec" stop-opacity="1"/></linearGradient><linearGradient id="linearGradient3350" x1="35.213" x2="20.774" y1="32.307" y2="17.868" gradientUnits="userSpaceOnUse" xlink:href="#linearGradient3344"/><linearGradient id="linearGradient3383" x1="35" x2="21" y1="15" y2="1" gradientUnits="userSpaceOnUse" xlink:href="#linearGradient3344"/><linearGradient id="linearGradient3398" x1="53.714" x2="39.274" y1="32.726" y2="18.286" gradientUnits="userSpaceOnUse" xlink:href="#linearGradient3344"/><clipPath id="clipPath6694" clipPathUnits="userSpaceOnUse"><path id="path6696" d="M 0,648.06 L 432,648.06 L 432,0.06 L 0,0.06 L 0,648.06 z"/></clipPath><clipPath id="clipPath6686" clipPathUnits="userSpaceOnUse"><path id="path6688" d="M 0,648 L 432,648 L 432,0 L 0,0 L 0,648 z"/></clipPath><clipPath id="clipPath6678" clipPathUnits="userSpaceOnUse"><path id="path6680" d="M 262.975,549.378 L 396,549.378 L 396,507.171 L 262.975,507.171 L 262.975,549.378 z" clip-rule="evenodd"/></clipPath><clipPath id="clipPath6668" clipPathUnits="userSpaceOnUse"><path id="path6670" d="M 0,648.06 L 432,648.06 L 432,0.06 L 0,0.06 L 0,648.06 z"/></clipPath><clipPath id="clipPath6662" clipPathUnits="userSpaceOnUse"><path id="path6664" d="M 0,648 L 432,648 L 432,0 L 0,0 L 0,648 z"/></clipPath><clipPath id="clipPath6656" clipPathUnits="userSpaceOnUse"><path id="path6658" d="M 262.975,549.378 L 396,549.378 L 396,507.171 L 262.975,507.171 L 262.975,549.378 z" clip-rule="evenodd"/></clipPath><clipPath id="clipPath6598" clipPathUnits="userSpaceOnUse"><path id="path6600" d="M 0,648.06 L 432,648.06 L 432,0.06 L 0,0.06 L 0,648.06 z"/></clipPath><clipPath id="clipPath6592" clipPathUnits="userSpaceOnUse"><path id="path6594" d="M 0,648 L 432,648 L 432,0 L 0,0 L 0,648 z"/></clipPath><clipPath id="clipPath6554" clipPathUnits="userSpaceOnUse"><path id="path6556" d="M 0,648.06 L 432,648.06 L 432,0.06 L 0,0.06 L 0,648.06 z"/></clipPath><clipPath id="clipPath6546" clipPathUnits="userSpaceOnUse"><path id="path6548" d="M 0,648 L 432,648 L 432,0 L 0,0 L 0,648 z"/></clipPath><clipPath id="clipPath6538" clipPathUnits="userSpaceOnUse"><path id="path6540" d="M 7.832,259.865 L 214.833,259.865 L 214.833,126 L 7.832,126 L 7.832,259.865 z" clip-rule="evenodd"/></clipPath><clipPath id="clipPath6528" clipPathUnits="userSpaceOnUse"><path id="path6530" d="M 0,648.06 L 432,648.06 L 432,0.06 L 0,0.06 L 0,648.06 z"/></clipPath><clipPath id="clipPath6522" clipPathUnits="userSpaceOnUse"><path id="path6524" d="M 0,648 L 432,648 L 432,0 L 0,0 L 0,648 z"/></clipPath><clipPath id="clipPath6516" clipPathUnits="userSpaceOnUse"><path id="path6518" d="M 7.832,259.865 L 214.833,259.865 L 214.833,126 L 7.832,126 L 7.832,259.865 z" clip-rule="evenodd"/></clipPath><linearGradient id="linearGradient4397" x1="53.182" x2="38.743" y1="15.226" y2=".786" gradientUnits="userSpaceOnUse" xlink:href="#linearGradient3344"/><linearGradient id="linearGradient3864" x1="11.656" x2="9.625" y1="8.219" y2="7.063" gradientTransform="matrix(1.1576444,-0.10263922,0.14311897,1.0706925,-2.5492391,0.63742383)" gradientUnits="userSpaceOnUse" xlink:href="#linearGradient3866"/><linearGradient id="linearGradient3936" x1="4.892" x2="6.233" y1="10.741" y2="12.421" gradientTransform="matrix(1.579453,0,0,1.4135338,-2.2749589,-5.8167783)" gradientUnits="userSpaceOnUse" xlink:href="#linearGradient3888"/><linearGradient id="linearGradient3948" x1="4.892" x2="6.233" y1="10.741" y2="12.421" gradientTransform="matrix(1.5053859,0,0,1.4135338,-1.7484193,-5.8167783)" gradientUnits="userSpaceOnUse" xlink:href="#linearGradient3888"/><linearGradient id="linearGradient3852" x1=".639" x2="7.318" y1="12.347" y2="12.347" gradientUnits="userSpaceOnUse" xlink:href="#linearGradient3846"/><linearGradient id="linearGradient3079" x1=".639" x2="7.318" y1="12.347" y2="12.347" gradientUnits="userSpaceOnUse" xlink:href="#linearGradient3846"/><linearGradient id="linearGradient3082" x1=".639" x2="7.318" y1="12.347" y2="12.347" gradientUnits="userSpaceOnUse" xlink:href="#linearGradient3846"/><linearGradient id="linearGradient3864-9" x1="11.656" x2="9.625" y1="8.219" y2="7.063" gradientTransform="matrix(0.78885423,0,0,0.84723423,3.3796361,0.89756869)" gradientUnits="userSpaceOnUse" xlink:href="#linearGradient3866-1"/><linearGradient id="linearGradient3866-1"><stop id="stop3868-6" offset="0" stop-color="#d6cecf" stop-opacity="1"/><stop id="stop3870-2" offset="1" stop-color="#30292b" stop-opacity="1"/></linearGradient><linearGradient id="linearGradient3091" x1="11.656" x2="9.625" y1="8.219" y2="7.063" gradientTransform="matrix(0.92404144,0,0,1.0497894,0.696191,0.49500213)" gradientUnits="userSpaceOnUse" xlink:href="#linearGradient3866-1"/></defs><metadata id="metadata7"/><g id="layer1"><g id="g4419" transform="translate(-37.968945,-1.2296349e-2)"><g id="g4391"><rect id="rect3494" width="15.5" height="15.5" x="38.219" y=".262" fill="#eeeeec" fill-opacity="1" stroke="#000" stroke-dasharray="none" stroke-dashoffset="0" stroke-linecap="butt" stroke-linejoin="miter" stroke-miterlimit="4" stroke-opacity="1" stroke-width=".5" rx="2.128" ry="2.128"/><rect id="rect3496" width="13.988" height="13.988" x="38.969" y="1.012" fill="none" fill-opacity="1" stroke="url(#linearGradient2521)" stroke-dasharray="none" stroke-dashoffset="0" stroke-linecap="butt" stroke-linejoin="miter" stroke-miterlimit="4" stroke-opacity="1" stroke-width=".451" rx="1.92" ry="1.92"/></g></g><path id="path3076" fill="url(#linearGradient3082)" fill-opacity="1" fill-rule="nonzero" stroke="none" d="M 2.15625,11 C 1.8986491,11.022779 1.7122584,11.231035 1.488404,11.340427 1.1606502,11.522069 0.80035513,11.712678 0.625,12.0625 c 0.22378244,-0.113653 0.4409023,-0.24832 0.6706889,-0.34375 0.208273,-0.04802 0.4265291,0.0018 0.5881353,0.143166 0.1769928,0.212778 0.4463785,0.09514 0.6528942,-0.0021 0.1846926,-0.05848 0.5865423,-0.330564 0.6371759,-0.0032 0.011582,0.299959 -0.153675,0.596803 -0.07636,0.893176 0.1800914,0.188313 0.1184722,0.47614 0.1735294,0.711937 2.41e-4,0.354082 0.3453773,0.193464 0.4901225,0.02509 0.1627293,-0.146603 0.3594389,-0.300773 0.5891552,-0.20717 0.2306113,0.05871 0.471606,0.04102 0.6580151,-0.121815 0.1452164,-0.138254 0.3741354,-0.117343 0.3385633,0.126341 0.2439804,0.175891 0.5885833,0.207275 0.8730012,0.321401 0.1267937,0.08655 0.2484869,0.147394 0.3538217,0.0061 C 6.8199952,13.418218 7.0662476,13.224734 7.3125,13.03125 6.9744845,12.889804 6.6101713,12.821607 6.28125,12.65625 5.9981921,12.58865 5.7064854,12.551229 5.5497353,12.268723 5.3330996,12.032869 5.2032855,12.455145 5.1046376,12.59978 5.0261168,12.867654 4.7879104,12.909261 4.5457493,12.855878 4.3343525,12.822625 4.0649889,12.876165 3.8974566,12.734583 3.899489,12.488278 4.2054963,12.234946 3.9651768,12.01812 3.88954,11.793044 4.076388,11.413821 3.789392,11.308168 3.5060396,11.257504 3.2094512,11.43285 2.9375,11.3125 2.705661,11.155085 2.448061,10.988812 2.15625,11 z" opacity=".712"/><path id="path3064-7" fill="url(#linearGradient3091)" fill-opacity="1" fill-rule="nonzero" stroke="#000" stroke-dasharray="none" stroke-linecap="butt" stroke-linejoin="miter" stroke-miterlimit="4.1" stroke-opacity="1" stroke-width=".414" d="M 13.254378,2.1131874 C 11.383109,5.3399217 8.9984778,7.7405557 7.8634111,10.603985 7.319356,14.23216 6.7327856,12.383068 9.2798225,11.500893 11.341429,8.9423761 12.010372,5.980923 14.172005,2.7716077 z"/></g></svg>