<svg xmlns="http://www.w3.org/2000/svg" xmlns:svg="http://www.w3.org/2000/svg" xmlns:xlink="http://www.w3.org/1999/xlink" id="svg2" width="16" height="16" version="1.0"><defs id="defs4"><linearGradient id="linearGradient4356"><stop id="stop4358" offset="0" stop-color="#fff" stop-opacity="1"/><stop id="stop4366" offset=".542" stop-color="#cecece" stop-opacity=".749"/><stop id="stop4364" offset=".634" stop-color="#959595" stop-opacity=".498"/><stop id="stop4360" offset="1" stop-color="#fff" stop-opacity="0"/></linearGradient><linearGradient id="linearGradient3344"><stop id="stop3346" offset="0" stop-color="#fff" stop-opacity="0"/><stop id="stop3348" offset="1" stop-color="#fff" stop-opacity="1"/></linearGradient><linearGradient id="linearGradient3324"><stop id="stop3326" offset="0" stop-color="#000" stop-opacity="0"/><stop id="stop3328" offset="1" stop-color="#fff" stop-opacity="1"/></linearGradient><linearGradient id="linearGradient3211"><stop id="stop3213" offset="0" stop-color="#babdb6" stop-opacity="1"/><stop id="stop3219" offset=".259" stop-color="#f2f2f1" stop-opacity="1"/><stop id="stop3221" offset=".518" stop-color="#000" stop-opacity="1"/><stop id="stop3223" offset=".759" stop-color="#f1f1f0" stop-opacity="1"/><stop id="stop3215" offset="1" stop-color="#babdb6" stop-opacity="1"/></linearGradient><linearGradient id="linearGradient2430"><stop id="stop2432" offset="0" stop-color="#d6d6d1" stop-opacity="1"/><stop id="stop2434" offset="1" stop-color="#eeeeec" stop-opacity="1"/></linearGradient><linearGradient id="linearGradient3350" x1="35.213" x2="20.774" y1="32.307" y2="17.868" gradientUnits="userSpaceOnUse" xlink:href="#linearGradient3344"/><linearGradient id="linearGradient3383" x1="35" x2="21" y1="15" y2="1" gradientUnits="userSpaceOnUse" xlink:href="#linearGradient3344"/><linearGradient id="linearGradient3398" x1="53.714" x2="39.274" y1="32.726" y2="18.286" gradientUnits="userSpaceOnUse" xlink:href="#linearGradient3344"/><clipPath id="clipPath6694" clipPathUnits="userSpaceOnUse"><path id="path6696" d="M 0,648.06 L 432,648.06 L 432,0.06 L 0,0.06 L 0,648.06 z"/></clipPath><clipPath id="clipPath6686" clipPathUnits="userSpaceOnUse"><path id="path6688" d="M 0,648 L 432,648 L 432,0 L 0,0 L 0,648 z"/></clipPath><clipPath id="clipPath6678" clipPathUnits="userSpaceOnUse"><path id="path6680" d="M 262.975,549.378 L 396,549.378 L 396,507.171 L 262.975,507.171 L 262.975,549.378 z" clip-rule="evenodd"/></clipPath><clipPath id="clipPath6668" clipPathUnits="userSpaceOnUse"><path id="path6670" d="M 0,648.06 L 432,648.06 L 432,0.06 L 0,0.06 L 0,648.06 z"/></clipPath><clipPath id="clipPath6662" clipPathUnits="userSpaceOnUse"><path id="path6664" d="M 0,648 L 432,648 L 432,0 L 0,0 L 0,648 z"/></clipPath><clipPath id="clipPath6656" clipPathUnits="userSpaceOnUse"><path id="path6658" d="M 262.975,549.378 L 396,549.378 L 396,507.171 L 262.975,507.171 L 262.975,549.378 z" clip-rule="evenodd"/></clipPath><clipPath id="clipPath6598" clipPathUnits="userSpaceOnUse"><path id="path6600" d="M 0,648.06 L 432,648.06 L 432,0.06 L 0,0.06 L 0,648.06 z"/></clipPath><clipPath id="clipPath6592" clipPathUnits="userSpaceOnUse"><path id="path6594" d="M 0,648 L 432,648 L 432,0 L 0,0 L 0,648 z"/></clipPath><clipPath id="clipPath6554" clipPathUnits="userSpaceOnUse"><path id="path6556" d="M 0,648.06 L 432,648.06 L 432,0.06 L 0,0.06 L 0,648.06 z"/></clipPath><clipPath id="clipPath6546" clipPathUnits="userSpaceOnUse"><path id="path6548" d="M 0,648 L 432,648 L 432,0 L 0,0 L 0,648 z"/></clipPath><clipPath id="clipPath6538" clipPathUnits="userSpaceOnUse"><path id="path6540" d="M 7.832,259.865 L 214.833,259.865 L 214.833,126 L 7.832,126 L 7.832,259.865 z" clip-rule="evenodd"/></clipPath><clipPath id="clipPath6528" clipPathUnits="userSpaceOnUse"><path id="path6530" d="M 0,648.06 L 432,648.06 L 432,0.06 L 0,0.06 L 0,648.06 z"/></clipPath><clipPath id="clipPath6522" clipPathUnits="userSpaceOnUse"><path id="path6524" d="M 0,648 L 432,648 L 432,0 L 0,0 L 0,648 z"/></clipPath><clipPath id="clipPath6516" clipPathUnits="userSpaceOnUse"><path id="path6518" d="M 7.832,259.865 L 214.833,259.865 L 214.833,126 L 7.832,126 L 7.832,259.865 z" clip-rule="evenodd"/></clipPath><linearGradient id="linearGradient4371" x1="3.675" x2="10.636" y1="10.263" y2="10.098" gradientTransform="matrix(0.9969594,-7.7922506e-2,7.7922506e-2,0.9969594,0,0)" gradientUnits="userSpaceOnUse" xlink:href="#linearGradient4356"/><linearGradient id="linearGradient4378" x1="3.675" x2="10.636" y1="10.263" y2="10.098" gradientTransform="matrix(0.9955141,-9.4612669e-2,9.4612669e-2,0.9955141,-7.4501007,1.3228302)" gradientUnits="userSpaceOnUse" xlink:href="#linearGradient4356"/><linearGradient id="linearGradient4397" x1="53.182" x2="38.743" y1="15.226" y2=".786" gradientUnits="userSpaceOnUse" xlink:href="#linearGradient3344"/><linearGradient id="linearGradient4401" x1="15.213" x2=".774" y1="15.213" y2=".774" gradientUnits="userSpaceOnUse" xlink:href="#linearGradient3344"/><linearGradient id="linearGradient4438" x1="35" x2="21" y1="15" y2="1" gradientUnits="userSpaceOnUse" xlink:href="#linearGradient3344"/><linearGradient id="linearGradient4440" x1="53.182" x2="38.743" y1="15.226" y2=".786" gradientUnits="userSpaceOnUse" xlink:href="#linearGradient3344"/><linearGradient id="linearGradient4442" x1="35.213" x2="20.774" y1="32.307" y2="17.868" gradientUnits="userSpaceOnUse" xlink:href="#linearGradient3344"/><linearGradient id="linearGradient4444" x1="53.714" x2="39.274" y1="32.726" y2="18.286" gradientUnits="userSpaceOnUse" xlink:href="#linearGradient3344"/><linearGradient id="linearGradient2517" x1="35" x2="21" y1="15" y2="1" gradientUnits="userSpaceOnUse" xlink:href="#linearGradient3344"/><linearGradient id="linearGradient2519" x1="35.213" x2="20.774" y1="32.307" y2="17.868" gradientUnits="userSpaceOnUse" xlink:href="#linearGradient3344"/><linearGradient id="linearGradient2521" x1="53.182" x2="38.743" y1="15.226" y2=".786" gradientUnits="userSpaceOnUse" xlink:href="#linearGradient3344"/><linearGradient id="linearGradient2523" x1="53.714" x2="39.274" y1="32.726" y2="18.286" gradientUnits="userSpaceOnUse" xlink:href="#linearGradient3344"/><linearGradient id="linearGradient2525" x1="3.675" x2="10.636" y1="10.263" y2="10.098" gradientTransform="matrix(0.9969594,-7.7922506e-2,7.7922506e-2,0.9969594,0,0)" gradientUnits="userSpaceOnUse" xlink:href="#linearGradient4356"/><linearGradient id="linearGradient2527" x1="3.675" x2="10.636" y1="10.263" y2="10.098" gradientTransform="matrix(0.9955141,-9.4612669e-2,9.4612669e-2,0.9955141,-7.4501007,1.3228302)" gradientUnits="userSpaceOnUse" xlink:href="#linearGradient4356"/><linearGradient id="linearGradient2529" x1="15.213" x2=".774" y1="15.213" y2=".774" gradientUnits="userSpaceOnUse" xlink:href="#linearGradient3344"/></defs><metadata id="metadata7"/><g id="layer1"><g id="g4403"><rect id="rect3532" width="15.5" height="15.5" x=".25" y=".25" fill="#eeeeec" fill-opacity="1" stroke="#000" stroke-dasharray="none" stroke-dashoffset="0" stroke-linecap="butt" stroke-linejoin="miter" stroke-miterlimit="4" stroke-opacity="1" stroke-width=".5" rx="2.128" ry="2.128"/><path id="rect4354" fill="url(#linearGradient2525)" fill-opacity="1" stroke="none" stroke-dashoffset="0" stroke-linecap="butt" stroke-linejoin="bevel" stroke-miterlimit="4" stroke-opacity="1" stroke-width=".5" d="M 7.46875,4.65625 L 6.1875,4.75 C 5.8936593,4.7729666 5.5893756,4.8730736 5.34375,5 C 5.2209372,5.0634632 5.1068857,5.133827 5,5.21875 C 4.5797569,5.5526423 4.2943574,6.0432456 4.21875,6.59375 C 4.2174367,6.6033121 4.2199352,6.6154007 4.21875,6.625 L 4.53125,10.90625 L 4.65625,12.5 C 4.7251499,13.381522 5.3066598,14.082084 6.09375,14.34375 C 6.8485727,14.078874 7.7042409,14.018326 8.4375,14 C 8.9380994,14.048229 9.4443879,14.080621 9.9375,14.15625 C 10.426047,13.992127 10.838314,13.648242 11.09375,13.21875 C 11.002703,10.777608 10.901854,8.3970405 10.8125,5.96875 C 10.668833,5.5658877 10.427142,5.2154043 10.09375,4.96875 C 9.1834587,5.115402 8.3505084,4.8316975 7.5,4.65625 C 7.4898798,4.6530191 7.4788784,4.6593253 7.46875,4.65625 z"/><path id="path6562" fill="#000" fill-opacity="1" fill-rule="nonzero" stroke="none" d="M 11.875,2.8125 C 10.455672,3.2318572 9.0453113,3.6462718 7.6875,4.0625 L 7.6875,4.03125 C 7.4878299,4.2209789 7.2427806,4.1240685 7.03125,4.09375 C 6.1272586,3.7962499 5.0922335,4.3375769 4.5,5.09375 C 4.4457808,5.2171716 4.2669737,5.2944 4.21875,5.25 L 4.1875,5.3125 C 4.0844068,5.2465835 4.100166,5.0821958 4.0625,4.96875 L 3.5,5.09375 C 3.4538621,5.2040654 3.546168,5.3312905 3.46875,5.4375 C 3.2328469,5.5239531 3.0171531,5.4760454 2.78125,5.5625 C 2.2349675,5.1730197 1.6255291,4.9759395 1,4.9375 L 1,5.90625 C 1.8800041,6.1230045 2.6755916,6.7180734 3.59375,6.6875 L 4.3125,14.96875 L 4.3125,15 L 4.90625,15 C 4.7179276,13.70265 4.6424278,12.272824 4.53125,10.90625 L 4.2316942,6.6057743 C 4.7737171,5.808184 5.7075662,4.9133544 6.6379442,4.827665 C 6.9480702,4.7991019 7.2478163,4.8267955 7.5441942,4.921415 C 8.6023695,5.1397012 9.6441031,5.5348177 10.825444,5.046415 C 10.943004,8.2119371 11.005354,10.948328 11.125,14.125 L 11.1875,14.53125 C 10.321305,14.069839 9.3734233,14.090169 8.4375,14 C 7.2976935,14.028486 5.8670895,14.162509 4.96875,15 L 12,15 C 12.000166,14.493222 12.000721,13.96927 12,13.53125 L 11.875,2.8125 z M 2.9375,14.875 C 2.8228312,14.887721 2.7074475,14.912516 2.59375,14.9375 C 2.6998816,14.955544 2.7948228,15 2.90625,15 L 4.125,15 C 3.733912,14.874434 3.3267876,14.831814 2.9375,14.875 z"/><path id="path4374" fill="url(#linearGradient2527)" fill-opacity="1" stroke="none" stroke-dashoffset="0" stroke-linecap="butt" stroke-linejoin="bevel" stroke-miterlimit="4" stroke-opacity="1" stroke-width=".5" d="M 1,6 L 1,13.0625 C 1,14.12645 1.8422996,15 2.90625,15 L 3.28125,15 C 3.512968,14.823807 3.7325735,14.592624 3.875,14.34375 C 3.7430717,11.904475 3.5987703,9.5514528 3.46875,7.125 C 3.3183544,6.7246007 3.0562272,6.3660347 2.71875,6.125 C 2.1200276,6.2317762 1.5623476,6.1137679 1,6 z"/><rect id="rect3534" width="13.988" height="13.988" x="1" y="1" fill="none" fill-opacity="1" stroke="url(#linearGradient2529)" stroke-dasharray="none" stroke-dashoffset="0" stroke-linecap="butt" stroke-linejoin="miter" stroke-miterlimit="4" stroke-opacity="1" stroke-width=".451" rx="1.92" ry="1.92"/><path id="path4383" fill="none" fill-rule="evenodd" stroke="#000" stroke-linecap="butt" stroke-linejoin="miter" stroke-opacity="1" stroke-width="1" d="M 5.922019,7.5589127 L 6.938485,7.5147185 L 6.938485,7.5147185"/><path id="path4385" fill="none" fill-rule="evenodd" stroke="#000" stroke-linecap="butt" stroke-linejoin="miter" stroke-opacity="1" stroke-width="1" d="M 8.0433394,7.5589128 L 9.0598054,7.5147186 L 9.0598054,7.5147186"/><path id="path4387" fill="none" fill-rule="evenodd" stroke="#000" stroke-linecap="butt" stroke-linejoin="miter" stroke-opacity="1" stroke-width="1" d="M 6.4965433,9.5476506 L 7.5130093,9.5034566 L 7.5130093,9.5034566"/></g></g></svg>