<svg xmlns="http://www.w3.org/2000/svg" xmlns:xlink="http://www.w3.org/1999/xlink" id="svg4813" width="64" height="64" version="1.1"><metadata id="metadata69"/><defs id="defs4815"><linearGradient id="linearGradient3680-6"><stop id="stop3682-4" offset="0" stop-color="#dcdcdc"/><stop id="stop3684-8" offset="1" stop-color="#fff"/></linearGradient><linearGradient id="linearGradient5060-6-6-5"><stop id="stop5062-3-0-3" offset="0"/><stop id="stop5064-1-4-9" offset="1" stop-opacity="0"/></linearGradient><linearGradient id="linearGradient3652" x1="16.143" x2="16.143" y1="4" y2="44" gradientTransform="matrix(1.2052 0 0 .94879 3.0752 12.229)" gradientUnits="userSpaceOnUse"><stop id="stop2225-6-4-7-2" offset="0" stop-color="#fff"/><stop id="stop2229-2-5-5-8" offset="1" stop-color="#fff" stop-opacity="0"/></linearGradient><linearGradient id="linearGradient3655" x1="16.626" x2="20.055" y1="15.298" y2="24.628" gradientTransform="matrix(1.2626 0 0 1.3398 1.698 3.0028)" gradientUnits="userSpaceOnUse"><stop id="stop2687-1-9-0-2" offset="0" stop-color="#fff"/><stop id="stop2689-5-4-3-1" offset="1" stop-color="#fff" stop-opacity="0"/></linearGradient><linearGradient id="linearGradient3658" x1="16" x2="16" y1="27.045" y2="16" gradientTransform="matrix(1.3714 0 0 1.3636 -1.7143 -.81819)" gradientUnits="userSpaceOnUse" xlink:href="#linearGradient3680-6"/><linearGradient id="linearGradient3662" x1="20" x2="20" y1="28" y2="26" gradientTransform="matrix(1.375 0 0 1.5 -.75001 -3)" gradientUnits="userSpaceOnUse" xlink:href="#linearGradient3680-6"/><linearGradient id="linearGradient3666" x1="12.579" x2="12.213" y1="2.917" y2="47.279" gradientTransform="matrix(1.2655 0 0 1.2039 1.6269 7.3166)" gradientUnits="userSpaceOnUse"><stop id="stop2240-1-6-7-0" offset="0" stop-color="#fff"/><stop id="stop2242-7-3-7-2" offset="1" stop-color="#fff" stop-opacity="0"/></linearGradient><linearGradient id="linearGradient3669" x1="23.071" x2="23.071" y1="36.047" y2="33.296" gradientTransform="matrix(1.296 0 0 1.3378 .90331 8.2994)" gradientUnits="userSpaceOnUse"><stop id="stop2225-6-4-7" offset="0" stop-color="#fff"/><stop id="stop2229-2-5-5" offset="1" stop-color="#fff" stop-opacity="0"/></linearGradient><radialGradient id="radialGradient3672" cx="7.496" cy="8.45" r="20" gradientTransform="matrix(0 2.2999 -3.8677 -9.7048e-8 64.681 -1.1584)" gradientUnits="userSpaceOnUse"><stop id="stop3790-0-0" offset="0" stop-color="#505050"/><stop id="stop3792-0-2" offset="1" stop-color="#141414"/></radialGradient><linearGradient id="linearGradient3674" x1="16.143" x2="16.143" y1="4" y2="44" gradientTransform="matrix(1.2565 0 0 1.0001 1.8444 10.998)" gradientUnits="userSpaceOnUse"><stop id="stop3796-3-0" offset="0" stop-color="#323232"/><stop id="stop3798-8-6" offset="1"/></linearGradient><linearGradient id="linearGradient3677" x1="24" x2="24" y1="7.96" y2="43.865" gradientTransform="matrix(1.3111 0 0 1.3243 .53297 .56708)" gradientUnits="userSpaceOnUse"><stop id="stop4324-9-7" offset="0" stop-color="#f0f0f0"/><stop id="stop2860-4-4" offset=".086" stop-color="#d7d7d8"/><stop id="stop2862-5-9" offset=".922" stop-color="#b2b2b3"/><stop id="stop4326-1-1" offset="1" stop-color="#979798"/></linearGradient><linearGradient id="linearGradient3679" x1="10.014" x2="10.014" y1="44.96" y2="2.877" gradientTransform="matrix(1.2553 0 0 1.1965 1.8719 6.2692)" gradientUnits="userSpaceOnUse"><stop id="stop4334-7-6" offset="0" stop-color="#595959"/><stop id="stop4336-8-0" offset="1" stop-color="#b3b3b3"/></linearGradient><radialGradient id="radialGradient3682" cx="605.71" cy="486.65" r="117.14" gradientTransform="matrix(-.087450 0 0 .032941 63.59 42.589)" gradientUnits="userSpaceOnUse" xlink:href="#linearGradient5060-6-6-5"/><radialGradient id="radialGradient3685" cx="605.71" cy="486.65" r="117.14" gradientTransform="matrix(.087450 0 0 .032941 .41038 42.589)" gradientUnits="userSpaceOnUse" xlink:href="#linearGradient5060-6-6-5"/><linearGradient id="linearGradient3688" x1="302.86" x2="302.86" y1="366.65" y2="609.51" gradientTransform="matrix(.087450 0 0 .032941 .39317 42.589)" gradientUnits="userSpaceOnUse"><stop id="stop5050-5-6-4" offset="0" stop-opacity="0"/><stop id="stop5056-9-0-1" offset=".5"/><stop id="stop5052-6-9-5" offset="1" stop-opacity="0"/></linearGradient></defs><rect id="rect2512-9-5" width="42.226" height="8" x="10.887" y="54.667" fill="url(#linearGradient3688)" opacity=".402"/><path id="path2514-7-4" fill="url(#radialGradient3685)" d="m53.113 54.667v7.9996c4.5034 0.01505 10.887-1.7923 10.887-4.0003s-5.0255-3.9993-10.887-3.9993z" opacity=".402"/><path id="path2516-8-9" fill="url(#radialGradient3682)" d="m10.887 54.667v7.9996c-4.5033 0.015-10.887-1.793-10.887-4.001s5.0255-3.999 10.887-3.999z" opacity=".402"/><rect id="rect2551-5-8" width="58.998" height="48.998" x="2.501" y="10.501" fill="url(#linearGradient3677)" fill-rule="evenodd" stroke="url(#linearGradient3679)" stroke-linecap="round" stroke-linejoin="round" stroke-width="1.002" rx="1.499" ry="1.499"/><rect id="rect1314-3-3" width="49" height="39" x="7.5" y="15.5" fill="url(#radialGradient3672)" stroke="url(#linearGradient3674)" stroke-linecap="round" stroke-linejoin="round" color="#000" rx="0" ry="0"/><rect id="rect2221-3-8" width="50.998" height="40.998" x="6.501" y="14.501" fill="none" stroke="url(#linearGradient3669)" stroke-linecap="round" stroke-linejoin="round" stroke-width="1.002" opacity=".4" rx="0" ry="0"/><rect id="rect2556-8-5" width="56.996" height="46.996" x="3.502" y="11.502" fill="none" stroke="url(#linearGradient3666)" stroke-linecap="round" stroke-linejoin="round" stroke-width="1.004" opacity=".8" rx=".498" ry=".498"/><path id="path3651-7-2" d="m35 40v-3h-11v3h11z" opacity=".4"/><path id="path3651-2" fill="url(#linearGradient3662)" d="m35 39v-3h-11v3h11z"/><path id="path3653-3-2" d="m14.743 37-2.743-2.727 6.171-4.773-6.171-4.773 2.743-2.727 9.257 7.5-9.257 7.5z" opacity=".4"/><path id="path3653-7" fill="url(#linearGradient3658)" d="m14.743 36-2.7429-2.7273 6.1714-4.7727-6.1714-4.7727 2.7429-2.7273 9.2571 7.5-9.2571 7.5z"/><path id="path3333-3-0" fill="url(#linearGradient3655)" fill-rule="evenodd" d="m5.7619 11c-1.5256 0-2.7619 1.312-2.7619 2.931v21.438c0.00395 0.18035 0.078036 0.3509 0.20549 0.47024 0.12747 0.11934 0.2962 0.17658 0.46525 0.15781l56.816-9.547c0.292-0.049 0.509-0.314 0.513-0.628v-11.891c0-1.6189-1.2363-2.9309-2.7619-2.9309h-52.476z" opacity=".2"/><rect id="rect1314-3-3-9" width="47" height="37" x="8.5" y="16.5" fill="none" stroke="url(#linearGradient3652)" stroke-linecap="round" stroke-linejoin="round" color="#000" opacity=".1" rx="0" ry="0"/></svg>