<svg xmlns="http://www.w3.org/2000/svg" xmlns:svg="http://www.w3.org/2000/svg" xmlns:xlink="http://www.w3.org/1999/xlink" id="svg2" width="16" height="16" version="1.0"><defs id="defs4"><linearGradient id="linearGradient4356"><stop id="stop4358" offset="0" stop-color="#fff" stop-opacity="1"/><stop id="stop4366" offset=".542" stop-color="#cecece" stop-opacity=".749"/><stop id="stop4364" offset=".634" stop-color="#959595" stop-opacity=".498"/><stop id="stop4360" offset="1" stop-color="#fff" stop-opacity="0"/></linearGradient><linearGradient id="linearGradient3344"><stop id="stop3346" offset="0" stop-color="#fff" stop-opacity="0"/><stop id="stop3348" offset="1" stop-color="#fff" stop-opacity="1"/></linearGradient><linearGradient id="linearGradient3324"><stop id="stop3326" offset="0" stop-color="#000" stop-opacity="0"/><stop id="stop3328" offset="1" stop-color="#fff" stop-opacity="1"/></linearGradient><linearGradient id="linearGradient3211"><stop id="stop3213" offset="0" stop-color="#babdb6" stop-opacity="1"/><stop id="stop3219" offset=".259" stop-color="#f2f2f1" stop-opacity="1"/><stop id="stop3221" offset=".518" stop-color="#000" stop-opacity="1"/><stop id="stop3223" offset=".759" stop-color="#f1f1f0" stop-opacity="1"/><stop id="stop3215" offset="1" stop-color="#babdb6" stop-opacity="1"/></linearGradient><linearGradient id="linearGradient2430"><stop id="stop2432" offset="0" stop-color="#d6d6d1" stop-opacity="1"/><stop id="stop2434" offset="1" stop-color="#eeeeec" stop-opacity="1"/></linearGradient><linearGradient id="linearGradient3350" x1="35.213" x2="20.774" y1="32.307" y2="17.868" gradientUnits="userSpaceOnUse" xlink:href="#linearGradient3344"/><linearGradient id="linearGradient3383" x1="35" x2="21" y1="15" y2="1" gradientUnits="userSpaceOnUse" xlink:href="#linearGradient3344"/><linearGradient id="linearGradient3398" x1="53.714" x2="39.274" y1="32.726" y2="18.286" gradientUnits="userSpaceOnUse" xlink:href="#linearGradient3344"/><clipPath id="clipPath6694" clipPathUnits="userSpaceOnUse"><path id="path6696" d="M 0,648.06 L 432,648.06 L 432,0.06 L 0,0.06 L 0,648.06 z"/></clipPath><clipPath id="clipPath6686" clipPathUnits="userSpaceOnUse"><path id="path6688" d="M 0,648 L 432,648 L 432,0 L 0,0 L 0,648 z"/></clipPath><clipPath id="clipPath6678" clipPathUnits="userSpaceOnUse"><path id="path6680" d="M 262.975,549.378 L 396,549.378 L 396,507.171 L 262.975,507.171 L 262.975,549.378 z" clip-rule="evenodd"/></clipPath><clipPath id="clipPath6668" clipPathUnits="userSpaceOnUse"><path id="path6670" d="M 0,648.06 L 432,648.06 L 432,0.06 L 0,0.06 L 0,648.06 z"/></clipPath><clipPath id="clipPath6662" clipPathUnits="userSpaceOnUse"><path id="path6664" d="M 0,648 L 432,648 L 432,0 L 0,0 L 0,648 z"/></clipPath><clipPath id="clipPath6656" clipPathUnits="userSpaceOnUse"><path id="path6658" d="M 262.975,549.378 L 396,549.378 L 396,507.171 L 262.975,507.171 L 262.975,549.378 z" clip-rule="evenodd"/></clipPath><clipPath id="clipPath6598" clipPathUnits="userSpaceOnUse"><path id="path6600" d="M 0,648.06 L 432,648.06 L 432,0.06 L 0,0.06 L 0,648.06 z"/></clipPath><clipPath id="clipPath6592" clipPathUnits="userSpaceOnUse"><path id="path6594" d="M 0,648 L 432,648 L 432,0 L 0,0 L 0,648 z"/></clipPath><clipPath id="clipPath6554" clipPathUnits="userSpaceOnUse"><path id="path6556" d="M 0,648.06 L 432,648.06 L 432,0.06 L 0,0.06 L 0,648.06 z"/></clipPath><clipPath id="clipPath6546" clipPathUnits="userSpaceOnUse"><path id="path6548" d="M 0,648 L 432,648 L 432,0 L 0,0 L 0,648 z"/></clipPath><clipPath id="clipPath6538" clipPathUnits="userSpaceOnUse"><path id="path6540" d="M 7.832,259.865 L 214.833,259.865 L 214.833,126 L 7.832,126 L 7.832,259.865 z" clip-rule="evenodd"/></clipPath><clipPath id="clipPath6528" clipPathUnits="userSpaceOnUse"><path id="path6530" d="M 0,648.06 L 432,648.06 L 432,0.06 L 0,0.06 L 0,648.06 z"/></clipPath><clipPath id="clipPath6522" clipPathUnits="userSpaceOnUse"><path id="path6524" d="M 0,648 L 432,648 L 432,0 L 0,0 L 0,648 z"/></clipPath><clipPath id="clipPath6516" clipPathUnits="userSpaceOnUse"><path id="path6518" d="M 7.832,259.865 L 214.833,259.865 L 214.833,126 L 7.832,126 L 7.832,259.865 z" clip-rule="evenodd"/></clipPath><linearGradient id="linearGradient4397" x1="53.182" x2="38.743" y1="15.226" y2=".786" gradientUnits="userSpaceOnUse" xlink:href="#linearGradient3344"/><linearGradient id="linearGradient2517" x1="35" x2="21" y1="15" y2="1" gradientUnits="userSpaceOnUse" xlink:href="#linearGradient3344"/><linearGradient id="linearGradient2519" x1="35.213" x2="20.774" y1="32.307" y2="17.868" gradientUnits="userSpaceOnUse" xlink:href="#linearGradient3344"/><linearGradient id="linearGradient2521" x1="53.182" x2="38.743" y1="15.226" y2=".786" gradientUnits="userSpaceOnUse" xlink:href="#linearGradient3344"/><linearGradient id="linearGradient2523" x1="53.714" x2="39.274" y1="32.726" y2="18.286" gradientUnits="userSpaceOnUse" xlink:href="#linearGradient3344"/><linearGradient id="linearGradient2525" x1="3.675" x2="10.636" y1="10.263" y2="10.098" gradientTransform="matrix(0.9969594,-7.7922506e-2,7.7922506e-2,0.9969594,0,0)" gradientUnits="userSpaceOnUse" xlink:href="#linearGradient4356"/><linearGradient id="linearGradient2527" x1="3.675" x2="10.636" y1="10.263" y2="10.098" gradientTransform="matrix(0.9955141,-9.4612669e-2,9.4612669e-2,0.9955141,-7.4501007,1.3228302)" gradientUnits="userSpaceOnUse" xlink:href="#linearGradient4356"/><linearGradient id="linearGradient2529" x1="15.213" x2=".774" y1="15.213" y2=".774" gradientUnits="userSpaceOnUse" xlink:href="#linearGradient3344"/></defs><metadata id="metadata7"/><g id="layer1"><path id="path686" fill="#1a1a1a" fill-opacity=".918" stroke="#000" stroke-dasharray="none" stroke-miterlimit="4" stroke-opacity="1" stroke-width=".019" d="M 8.037267,13.660317 6.490392,12.510688 v -1.46522 -1.4652195 l -2,-2.8267713 -2,-2.8267712 V 3.4193305 2.9119549 L 2.8826986,2.5231355 3.2750052,2.134316 h 4.7813739 4.7813739 l 0.38882,0.3923066 0.388819,0.3923066 v 0.5201331 0.5201332 l -1.984375,2.7906852 -1.984375,2.7906853 -0.03125,2.634691 -0.03125,2.63469 z m 2.829,-7.0965484 1.999125,-2.824859 V 3.3116128 2.884316 h -4.8125 -4.8125 l 0.00231,0.421875 0.00231,0.421875 1.9970386,2.8125 1.9970386,2.8125 0.0022,1.40625 0.0022,1.40625 0.7953264,0.580075 0.7953264,0.580075 0.0165,-1.968544 0.0165,-1.9685448 z"/><g id="g4413" transform="translate(-19.999999,-1.1622906e-6)"><rect id="rect3373" width="15.5" height="15.5" x="20.25" y=".25" fill="#eeeeec" fill-opacity="1" stroke="#000" stroke-dasharray="none" stroke-dashoffset="0" stroke-linecap="butt" stroke-linejoin="miter" stroke-miterlimit="4" stroke-opacity="1" stroke-width=".5" rx="2.128" ry="2.128"/><rect id="rect3375" width="13.988" height="13.988" x="21" y="1" fill="none" fill-opacity="1" stroke="url(#linearGradient2517)" stroke-dasharray="none" stroke-dashoffset="0" stroke-linecap="butt" stroke-linejoin="miter" stroke-miterlimit="4" stroke-opacity="1" stroke-width=".451" rx="1.92" ry="1.92"/><g id="layer1-8" fill="#1a1a1a" transform="translate(-4.625001,-1057.6122)"><g id="layer1-6" fill="#1a1a1a"><path id="rect4145" fill="#1a1a1a" fill-opacity="1" stroke="none" stroke-opacity="1" stroke-width=".8" d="m 27.887503,1059.7122 -0.8,0.8 v 0.8 0.2437 l 4,5.65 v 2.9063 0.031 l 3.192188,2.3687 h 0.0078 v -5.3062 l 4,-5.65 v -1.0438 l -0.8,-0.8 z m 0,0.8 h 9.6 v 0.7906 l -3.971875,5.6094 h -0.02812 v 0.039 0.7609 3.2156 l -1.6,-1.1874 v -2.0282 -0.7609 -0.039 h -0.02813 l -3.971872,-5.6094 z m 0.8,0.8 1.6,2.4 v -1.6 l 1.6,-0.8 z" class="ColorScheme-Text" opacity="1"/></g></g></g><path id="path688" fill="#1a1a1a" fill-opacity=".918" stroke="#000" stroke-dasharray="none" stroke-miterlimit="4" stroke-opacity="1" stroke-width=".019" d="M 4.896642,4.902623 C 4.518517,4.3344255 4.199767,3.844737 4.1883087,3.8144263 4.1766359,3.7835483 4.7949721,3.7609126 5.5945587,3.762947 L 7.021642,3.7665781 6.3203328,4.1201396 5.6190236,4.4737012 5.6015828,5.2047053 5.584142,5.9357094 Z"/></g></svg>