<svg xmlns="http://www.w3.org/2000/svg" xmlns:svg="http://www.w3.org/2000/svg" xmlns:xlink="http://www.w3.org/1999/xlink" id="svg2" width="16" height="16" version="1.0"><defs id="defs4"><linearGradient id="linearGradient2519" x1="35.213" x2="20.774" y1="32.307" y2="17.868" gradientUnits="userSpaceOnUse" xlink:href="#linearGradient3344"/><linearGradient id="linearGradient2521" x1="53.182" x2="38.743" y1="15.226" y2=".786" gradientUnits="userSpaceOnUse" xlink:href="#linearGradient3344"/><linearGradient id="linearGradient2523" x1="53.714" x2="39.274" y1="32.726" y2="18.286" gradientUnits="userSpaceOnUse" xlink:href="#linearGradient3344"/><linearGradient id="linearGradient4356"><stop id="stop4358" offset="0" stop-color="#fff" stop-opacity="1"/><stop id="stop4366" offset=".542" stop-color="#cecece" stop-opacity=".749"/><stop id="stop4364" offset=".634" stop-color="#959595" stop-opacity=".498"/><stop id="stop4360" offset="1" stop-color="#fff" stop-opacity="0"/></linearGradient><linearGradient id="linearGradient3344"><stop id="stop3346" offset="0" stop-color="#fff" stop-opacity="0"/><stop id="stop3348" offset="1" stop-color="#fff" stop-opacity="1"/></linearGradient><linearGradient id="linearGradient3324"><stop id="stop3326" offset="0" stop-color="#000" stop-opacity="0"/><stop id="stop3328" offset="1" stop-color="#fff" stop-opacity="1"/></linearGradient><linearGradient id="linearGradient3211"><stop id="stop3213" offset="0" stop-color="#babdb6" stop-opacity="1"/><stop id="stop3219" offset=".259" stop-color="#f2f2f1" stop-opacity="1"/><stop id="stop3221" offset=".518" stop-color="#000" stop-opacity="1"/><stop id="stop3223" offset=".759" stop-color="#f1f1f0" stop-opacity="1"/><stop id="stop3215" offset="1" stop-color="#babdb6" stop-opacity="1"/></linearGradient><linearGradient id="linearGradient2430"><stop id="stop2432" offset="0" stop-color="#d6d6d1" stop-opacity="1"/><stop id="stop2434" offset="1" stop-color="#eeeeec" stop-opacity="1"/></linearGradient><linearGradient id="linearGradient3350" x1="35.213" x2="20.774" y1="32.307" y2="17.868" gradientUnits="userSpaceOnUse" xlink:href="#linearGradient3344"/><linearGradient id="linearGradient3383" x1="35" x2="21" y1="15" y2="1" gradientUnits="userSpaceOnUse" xlink:href="#linearGradient3344"/><linearGradient id="linearGradient3398" x1="53.714" x2="39.274" y1="32.726" y2="18.286" gradientUnits="userSpaceOnUse" xlink:href="#linearGradient3344"/><clipPath id="clipPath6694" clipPathUnits="userSpaceOnUse"><path id="path6696" d="M 0,648.06 L 432,648.06 L 432,0.06 L 0,0.06 L 0,648.06 z"/></clipPath><clipPath id="clipPath6686" clipPathUnits="userSpaceOnUse"><path id="path6688" d="M 0,648 L 432,648 L 432,0 L 0,0 L 0,648 z"/></clipPath><clipPath id="clipPath6678" clipPathUnits="userSpaceOnUse"><path id="path6680" d="M 262.975,549.378 L 396,549.378 L 396,507.171 L 262.975,507.171 L 262.975,549.378 z" clip-rule="evenodd"/></clipPath><clipPath id="clipPath6668" clipPathUnits="userSpaceOnUse"><path id="path6670" d="M 0,648.06 L 432,648.06 L 432,0.06 L 0,0.06 L 0,648.06 z"/></clipPath><clipPath id="clipPath6662" clipPathUnits="userSpaceOnUse"><path id="path6664" d="M 0,648 L 432,648 L 432,0 L 0,0 L 0,648 z"/></clipPath><clipPath id="clipPath6656" clipPathUnits="userSpaceOnUse"><path id="path6658" d="M 262.975,549.378 L 396,549.378 L 396,507.171 L 262.975,507.171 L 262.975,549.378 z" clip-rule="evenodd"/></clipPath><clipPath id="clipPath6598" clipPathUnits="userSpaceOnUse"><path id="path6600" d="M 0,648.06 L 432,648.06 L 432,0.06 L 0,0.06 L 0,648.06 z"/></clipPath><clipPath id="clipPath6592" clipPathUnits="userSpaceOnUse"><path id="path6594" d="M 0,648 L 432,648 L 432,0 L 0,0 L 0,648 z"/></clipPath><clipPath id="clipPath6554" clipPathUnits="userSpaceOnUse"><path id="path6556" d="M 0,648.06 L 432,648.06 L 432,0.06 L 0,0.06 L 0,648.06 z"/></clipPath><clipPath id="clipPath6546" clipPathUnits="userSpaceOnUse"><path id="path6548" d="M 0,648 L 432,648 L 432,0 L 0,0 L 0,648 z"/></clipPath><clipPath id="clipPath6538" clipPathUnits="userSpaceOnUse"><path id="path6540" d="M 7.832,259.865 L 214.833,259.865 L 214.833,126 L 7.832,126 L 7.832,259.865 z" clip-rule="evenodd"/></clipPath><clipPath id="clipPath6528" clipPathUnits="userSpaceOnUse"><path id="path6530" d="M 0,648.06 L 432,648.06 L 432,0.06 L 0,0.06 L 0,648.06 z"/></clipPath><clipPath id="clipPath6522" clipPathUnits="userSpaceOnUse"><path id="path6524" d="M 0,648 L 432,648 L 432,0 L 0,0 L 0,648 z"/></clipPath><clipPath id="clipPath6516" clipPathUnits="userSpaceOnUse"><path id="path6518" d="M 7.832,259.865 L 214.833,259.865 L 214.833,126 L 7.832,126 L 7.832,259.865 z" clip-rule="evenodd"/></clipPath><linearGradient id="linearGradient4397" x1="53.182" x2="38.743" y1="15.226" y2=".786" gradientUnits="userSpaceOnUse" xlink:href="#linearGradient3344"/><linearGradient id="linearGradient2517" x1="35" x2="21" y1="15" y2="1" gradientUnits="userSpaceOnUse" xlink:href="#linearGradient3344"/></defs><metadata id="metadata7"/><g id="layer1"><g id="g4426" transform="translate(-19.99989,-17.09386)"><path id="rect3322" fill="#eeeeec" fill-opacity="1" stroke="#000" stroke-dasharray="none" stroke-dashoffset="0" stroke-linecap="butt" stroke-linejoin="miter" stroke-miterlimit="4" stroke-opacity="1" stroke-width=".5" d="M 28.5,17.34375 L 26.21875,22.65625 L 28.9375,25.28125 L 25.875,28.0625 L 23,31 L 24.96875,32.84375 L 33.625,32.84375 C 34.803947,32.84375 35.75,31.897697 35.75,30.71875 L 35.75,19.46875 C 35.75,18.289803 34.803948,17.34375 33.625,17.34375 L 28.5,17.34375 z"/><path id="rect3385" fill="#2e3436" fill-opacity="1" stroke="#000" stroke-dasharray="none" stroke-dashoffset="0" stroke-linecap="butt" stroke-linejoin="miter" stroke-miterlimit="4" stroke-opacity="1" stroke-width=".5" d="M 22.375,17.34375 C 21.196053,17.34375 20.25,18.289803 20.25,19.46875 L 20.25,30.71875 C 20.25,31.897697 21.196053,32.84375 22.375,32.84375 L 24.96875,32.84375 L 23,31 L 25.875,28.0625 L 28.9375,25.28125 L 26.21875,22.65625 L 28.5,17.34375 L 22.375,17.34375 z"/><rect id="rect3334" width="13.988" height="13.988" x="21" y="18.094" fill="none" fill-opacity="1" stroke="url(#linearGradient2519)" stroke-dasharray="none" stroke-dashoffset="0" stroke-linecap="butt" stroke-linejoin="miter" stroke-miterlimit="4" stroke-opacity="1" stroke-width=".451" rx="1.92" ry="1.92"/></g></g></svg>