<svg xmlns="http://www.w3.org/2000/svg" xmlns:svg="http://www.w3.org/2000/svg" xmlns:xlink="http://www.w3.org/1999/xlink" id="svg2" width="16" height="16" version="1.0"><defs id="defs4"><linearGradient id="linearGradient4356"><stop id="stop4358" offset="0" stop-color="#fff" stop-opacity="1"/><stop id="stop4366" offset=".542" stop-color="#cecece" stop-opacity=".749"/><stop id="stop4364" offset=".634" stop-color="#959595" stop-opacity=".498"/><stop id="stop4360" offset="1" stop-color="#fff" stop-opacity="0"/></linearGradient><linearGradient id="linearGradient3344"><stop id="stop3346" offset="0" stop-color="#fff" stop-opacity="0"/><stop id="stop3348" offset="1" stop-color="#fff" stop-opacity="1"/></linearGradient><linearGradient id="linearGradient3324"><stop id="stop3326" offset="0" stop-color="#000" stop-opacity="0"/><stop id="stop3328" offset="1" stop-color="#fff" stop-opacity="1"/></linearGradient><linearGradient id="linearGradient3211"><stop id="stop3213" offset="0" stop-color="#babdb6" stop-opacity="1"/><stop id="stop3219" offset=".259" stop-color="#f2f2f1" stop-opacity="1"/><stop id="stop3221" offset=".518" stop-color="#000" stop-opacity="1"/><stop id="stop3223" offset=".759" stop-color="#f1f1f0" stop-opacity="1"/><stop id="stop3215" offset="1" stop-color="#babdb6" stop-opacity="1"/></linearGradient><linearGradient id="linearGradient2430"><stop id="stop2432" offset="0" stop-color="#d6d6d1" stop-opacity="1"/><stop id="stop2434" offset="1" stop-color="#eeeeec" stop-opacity="1"/></linearGradient><linearGradient id="linearGradient3350" x1="35.213" x2="20.774" y1="32.307" y2="17.868" gradientUnits="userSpaceOnUse" xlink:href="#linearGradient3344"/><linearGradient id="linearGradient3383" x1="35" x2="21" y1="15" y2="1" gradientUnits="userSpaceOnUse" xlink:href="#linearGradient3344"/><linearGradient id="linearGradient3398" x1="53.714" x2="39.274" y1="32.726" y2="18.286" gradientUnits="userSpaceOnUse" xlink:href="#linearGradient3344"/><clipPath id="clipPath6694" clipPathUnits="userSpaceOnUse"><path id="path6696" d="M 0,648.06 L 432,648.06 L 432,0.06 L 0,0.06 L 0,648.06 z"/></clipPath><clipPath id="clipPath6686" clipPathUnits="userSpaceOnUse"><path id="path6688" d="M 0,648 L 432,648 L 432,0 L 0,0 L 0,648 z"/></clipPath><clipPath id="clipPath6678" clipPathUnits="userSpaceOnUse"><path id="path6680" d="M 262.975,549.378 L 396,549.378 L 396,507.171 L 262.975,507.171 L 262.975,549.378 z" clip-rule="evenodd"/></clipPath><clipPath id="clipPath6668" clipPathUnits="userSpaceOnUse"><path id="path6670" d="M 0,648.06 L 432,648.06 L 432,0.06 L 0,0.06 L 0,648.06 z"/></clipPath><clipPath id="clipPath6662" clipPathUnits="userSpaceOnUse"><path id="path6664" d="M 0,648 L 432,648 L 432,0 L 0,0 L 0,648 z"/></clipPath><clipPath id="clipPath6656" clipPathUnits="userSpaceOnUse"><path id="path6658" d="M 262.975,549.378 L 396,549.378 L 396,507.171 L 262.975,507.171 L 262.975,549.378 z" clip-rule="evenodd"/></clipPath><clipPath id="clipPath6598" clipPathUnits="userSpaceOnUse"><path id="path6600" d="M 0,648.06 L 432,648.06 L 432,0.06 L 0,0.06 L 0,648.06 z"/></clipPath><clipPath id="clipPath6592" clipPathUnits="userSpaceOnUse"><path id="path6594" d="M 0,648 L 432,648 L 432,0 L 0,0 L 0,648 z"/></clipPath><clipPath id="clipPath6554" clipPathUnits="userSpaceOnUse"><path id="path6556" d="M 0,648.06 L 432,648.06 L 432,0.06 L 0,0.06 L 0,648.06 z"/></clipPath><clipPath id="clipPath6546" clipPathUnits="userSpaceOnUse"><path id="path6548" d="M 0,648 L 432,648 L 432,0 L 0,0 L 0,648 z"/></clipPath><clipPath id="clipPath6538" clipPathUnits="userSpaceOnUse"><path id="path6540" d="M 7.832,259.865 L 214.833,259.865 L 214.833,126 L 7.832,126 L 7.832,259.865 z" clip-rule="evenodd"/></clipPath><clipPath id="clipPath6528" clipPathUnits="userSpaceOnUse"><path id="path6530" d="M 0,648.06 L 432,648.06 L 432,0.06 L 0,0.06 L 0,648.06 z"/></clipPath><clipPath id="clipPath6522" clipPathUnits="userSpaceOnUse"><path id="path6524" d="M 0,648 L 432,648 L 432,0 L 0,0 L 0,648 z"/></clipPath><clipPath id="clipPath6516" clipPathUnits="userSpaceOnUse"><path id="path6518" d="M 7.832,259.865 L 214.833,259.865 L 214.833,126 L 7.832,126 L 7.832,259.865 z" clip-rule="evenodd"/></clipPath><linearGradient id="linearGradient4397" x1="53.182" x2="38.743" y1="15.226" y2=".786" gradientUnits="userSpaceOnUse" xlink:href="#linearGradient3344"/><linearGradient id="linearGradient2517" x1="35" x2="21" y1="15" y2="1" gradientUnits="userSpaceOnUse" xlink:href="#linearGradient3344"/><linearGradient id="linearGradient2519" x1="35.213" x2="20.774" y1="32.307" y2="17.868" gradientUnits="userSpaceOnUse" xlink:href="#linearGradient3344"/><linearGradient id="linearGradient2521" x1="53.182" x2="38.743" y1="15.226" y2=".786" gradientUnits="userSpaceOnUse" xlink:href="#linearGradient3344"/><linearGradient id="linearGradient2523" x1="53.714" x2="39.274" y1="32.726" y2="18.286" gradientUnits="userSpaceOnUse" xlink:href="#linearGradient3344"/><linearGradient id="linearGradient2525" x1="3.675" x2="10.636" y1="10.263" y2="10.098" gradientTransform="matrix(0.9969594,-7.7922506e-2,7.7922506e-2,0.9969594,0,0)" gradientUnits="userSpaceOnUse" xlink:href="#linearGradient4356"/><linearGradient id="linearGradient2527" x1="3.675" x2="10.636" y1="10.263" y2="10.098" gradientTransform="matrix(0.9955141,-9.4612669e-2,9.4612669e-2,0.9955141,-7.4501007,1.3228302)" gradientUnits="userSpaceOnUse" xlink:href="#linearGradient4356"/><linearGradient id="linearGradient2529" x1="15.213" x2=".774" y1="15.213" y2=".774" gradientUnits="userSpaceOnUse" xlink:href="#linearGradient3344"/></defs><metadata id="metadata7"/><g id="layer1"><g id="g4413" transform="translate(-19.999999,-1.1622906e-6)"><rect id="rect3373" width="15.5" height="15.5" x="20.25" y=".25" fill="#eeeeec" fill-opacity="1" stroke="#000" stroke-dasharray="none" stroke-dashoffset="0" stroke-linecap="butt" stroke-linejoin="miter" stroke-miterlimit="4" stroke-opacity="1" stroke-width=".5" rx="2.128" ry="2.128"/><rect id="rect3375" width="13.988" height="13.988" x="21" y="1" fill="none" fill-opacity="1" stroke="url(#linearGradient2517)" stroke-dasharray="none" stroke-dashoffset="0" stroke-linecap="butt" stroke-linejoin="miter" stroke-miterlimit="4" stroke-opacity="1" stroke-width=".451" rx="1.92" ry="1.92"/></g><g id="layer1-8" fill="#1a1a1a" fill-opacity="1" transform="matrix(0.8,0,0,0.8,-337.98393,-421.49509)"><path id="rect4109" fill="#1a1a1a" fill-opacity="1" stroke="none" d="M 8,6 C 6.3380003,6 5,7.3380003 5,9 c 0,1.662 1.3380003,3 3,3 1.6619997,0 3,-1.338 3,-3 C 11,7.3380003 9.6619997,6 8,6 Z m 0,7 c -2.7700166,0 -5,2.229983 -5,5 v 1 h 10 v -1 c 0,-2.770017 -2.229983,-5 -5,-5 z m 0,1 c 2.216017,0 4,1.783983 4,4 H 4 c 0,-2.216017 1.7839834,-4 4,-4 z" class="ColorScheme-Text" opacity="1" transform="translate(421.71429,525.79074)"/><path id="path4139" fill="#1a1a1a" fill-opacity="1" stroke="none" d="m 14,3 c -1.662,0 -3,1.338 -3,3 0,1.662 1.338,3 3,3 1.662,0 3,-1.338 3,-3 0,-1.662 -1.338,-3 -3,-3 z m 0,7 c -0.646346,0 -1.255994,0.134157 -1.818359,0.361328 l 0.455078,0.914063 C 13.064535,11.114885 13.514485,11 14,11 c 2.21602,0 4,1.78398 4,4 h -3.5 l 0.5,1 h 4 v -1 c 0,-2.77002 -2.22998,-5 -5,-5 z" class="ColorScheme-Text" opacity="1" transform="translate(421.71429,525.79074)"/></g><path id="path4569" fill="#1a1a1a" fill-opacity="1" stroke="#000" stroke-dasharray="none" stroke-miterlimit="4" stroke-opacity="1" stroke-width=".019" d="m 2.6328923,13.249941 c 0.101312,-0.764475 0.3748056,-1.3658 0.8494486,-1.867665 1.2101029,-1.279505 3.1424634,-1.355779 4.418488,-0.174405 0.597745,0.553406 0.9287216,1.177437 1.0352304,1.951846 l 0.044644,0.324599 H 5.7912672 2.6018318 Z"/></g></svg>