<svg xmlns="http://www.w3.org/2000/svg" xmlns:svg="http://www.w3.org/2000/svg" id="svg3128" width="45" height="45" version="1.1"><g id="layer1" display="inline"><path id="path3119" fill="#fff" fill-opacity="1" fill-rule="evenodd" stroke="#000" stroke-dasharray="none" stroke-linecap="butt" stroke-linejoin="round" stroke-miterlimit="4" stroke-opacity="1" stroke-width="1.5" d="M 9,39 L 36,39 L 36,36 L 9,36 L 9,39 z"/><path id="path3121" fill="#fff" fill-opacity="1" fill-rule="evenodd" stroke="#000" stroke-dasharray="none" stroke-linecap="butt" stroke-linejoin="round" stroke-miterlimit="4" stroke-opacity="1" stroke-width="1.5" d="M 12,36 L 12,32 L 33,32 L 33,36 L 12,36 z"/><path id="path3129" fill="#fff" fill-opacity="1" fill-rule="evenodd" stroke="#000" stroke-dasharray="none" stroke-linecap="butt" stroke-linejoin="round" stroke-miterlimit="4" stroke-opacity="1" stroke-width="1.5" d="M 11,14 L 11,9 L 15,9 L 15,11 L 20,11 L 20,9 L 25,9 L 25,11 L 30,11 L 30,9 L 34,9 L 34,14"/><path id="path3127" fill="#fff" fill-opacity="1" fill-rule="evenodd" stroke="#000" stroke-dasharray="none" stroke-linecap="round" stroke-linejoin="round" stroke-miterlimit="4" stroke-opacity="1" stroke-width="1.5" d="M 34,14 L 31,17 L 14,17 L 11,14"/><path id="path3125" fill="#fff" fill-opacity="1" fill-rule="evenodd" stroke="#000" stroke-dasharray="none" stroke-linecap="butt" stroke-linejoin="miter" stroke-miterlimit="4" stroke-opacity="1" stroke-width="1.5" d="M 31,17 L 31,29.5 L 14,29.5 L 14,17"/><path id="path3123" fill="#fff" fill-opacity="1" fill-rule="evenodd" stroke="#000" stroke-dasharray="none" stroke-linecap="round" stroke-linejoin="round" stroke-miterlimit="4" stroke-opacity="1" stroke-width="1.5" d="M 31,29.5 L 32.5,32 L 12.5,32 L 14,29.5"/><path id="path5175" fill="none" fill-opacity=".75" fill-rule="evenodd" stroke="#000" stroke-linecap="round" stroke-linejoin="miter" stroke-opacity="1" stroke-width="1" d="M 11,14 L 34,14"/></g></svg>